LibreCaslonDisplay-Regular.ufo
<glyph name="exclam" format="1">
  <advance width="240"/>
  <unicode hex="0021"/>
  <outline>
    <contour>
      <point x="125" y="170" type="line"/>
      <point x="130" y="280"/>
      <point x="135" y="381"/>
      <point x="142" y="465" type="curve" smooth="yes"/>
      <point x="150" y="564"/>
      <point x="159" y="639"/>
      <point x="159" y="666" type="curve" smooth="yes"/>
      <point x="159" y="695"/>
      <point x="146" y="712"/>
      <point x="120" y="712" type="curve" smooth="yes"/>
      <point x="96" y="712"/>
      <point x="81" y="694"/>
      <point x="81" y="663" type="curve" smooth="yes"/>
      <point x="81" y="637"/>
      <point x="88" y="561"/>
      <point x="98" y="461" type="curve" smooth="yes"/>
      <point x="107" y="378"/>
      <point x="109" y="279"/>
      <point x="115" y="170" type="curve"/>
    </contour>
    <contour>
      <point x="72" y="38" type="curve" smooth="yes"/>
      <point x="72" y="11"/>
      <point x="91" y="-10"/>
      <point x="120" y="-10" type="curve" smooth="yes"/>
      <point x="149" y="-10"/>
      <point x="168" y="11"/>
      <point x="168" y="38" type="curve" smooth="yes"/>
      <point x="168" y="65"/>
      <point x="149" y="86"/>
      <point x="120" y="86" type="curve" smooth="yes"/>
      <point x="91" y="86"/>
      <point x="72" y="65"/>
    </contour>
  </outline>
</glyph>
<glyph name="quotedbl" format="1">
  <advance width="258"/>
  <unicode hex="0022"/>
  <outline>
    <contour>
      <point x="79" y="510" type="curve"/>
      <point x="89" y="510" type="line"/>
      <point x="89" y="616"/>
      <point x="111" y="650"/>
      <point x="111" y="684" type="curve" smooth="yes"/>
      <point x="111" y="705"/>
      <point x="100" y="714"/>
      <point x="84" y="714" type="curve" smooth="yes"/>
      <point x="68" y="714"/>
      <point x="57" y="705"/>
      <point x="57" y="684" type="curve" smooth="yes"/>
      <point x="57" y="651"/>
      <point x="79" y="616"/>
    </contour>
    <contour>
      <point x="169" y="510" type="curve"/>
      <point x="179" y="510" type="line"/>
      <point x="179" y="616"/>
      <point x="201" y="650"/>
      <point x="201" y="684" type="curve" smooth="yes"/>
      <point x="201" y="705"/>
      <point x="190" y="714"/>
      <point x="174" y="714" type="curve" smooth="yes"/>
      <point x="158" y="714"/>
      <point x="147" y="705"/>
      <point x="147" y="684" type="curve" smooth="yes"/>
      <point x="147" y="651"/>
      <point x="169" y="616"/>
    </contour>
  </outline>
</glyph>
<glyph name="numbersign" format="1">
  <advance width="601"/>
  <unicode hex="0023"/>
  <outline>
    <contour>
      <point x="90" y="444" type="line"/>
      <point x="552" y="444" type="line"/>
      <point x="547" y="422" type="line"/>
      <point x="85" y="422" type="line"/>
    </contour>
    <contour>
      <point x="54" y="252" type="line"/>
      <point x="517" y="252" type="line"/>
      <point x="511" y="230" type="line"/>
      <point x="49" y="230" type="line"/>
    </contour>
    <contour>
      <point x="256" y="583" type="line"/>
      <point x="179" y="92" type="line"/>
      <point x="156" y="92" type="line"/>
      <point x="233" y="583" type="line"/>
    </contour>
    <contour>
      <point x="448" y="583" type="line"/>
      <point x="371" y="92" type="line"/>
      <point x="348" y="92" type="line"/>
      <point x="425" y="583" type="line"/>
    </contour>
  </outline>
</glyph>
<glyph name="dollar" format="1">
  <advance width="516"/>
  <unicode hex="0024"/>
  <outline>
    <contour>
      <point x="269" y="800" type="line"/>
      <point x="269" y="-101" type="line"/>
      <point x="247" y="-101" type="line"/>
      <point x="247" y="800" type="line"/>
    </contour>
    <contour>
      <point x="248" y="-4" type="curve" smooth="yes"/>
      <point x="342" y="-4"/>
      <point x="411" y="50"/>
      <point x="411" y="139" type="curve" smooth="yes"/>
      <point x="411" y="232"/>
      <point x="335" y="266"/>
      <point x="227" y="315" type="curve" smooth="yes"/>
      <point x="142" y="354"/>
      <point x="49" y="397"/>
      <point x="49" y="513" type="curve" smooth="yes"/>
      <point x="49" y="627"/>
      <point x="139" y="706"/>
      <point x="264" y="706" type="curve" smooth="yes"/>
      <point x="363" y="706"/>
      <point x="454" y="657"/>
      <point x="454" y="605" type="curve" smooth="yes"/>
      <point x="454" y="584"/>
      <point x="439" y="568"/>
      <point x="418" y="568" type="curve" smooth="yes"/>
      <point x="391" y="568"/>
      <point x="382" y="592"/>
      <point x="377" y="607" type="curve" smooth="yes"/>
      <point x="360" y="654"/>
      <point x="339" y="694"/>
      <point x="260" y="694" type="curve" smooth="yes"/>
      <point x="171" y="694"/>
      <point x="114" y="644"/>
      <point x="114" y="560" type="curve" smooth="yes"/>
      <point x="114" y="469"/>
      <point x="181" y="437"/>
      <point x="295" y="383" type="curve" smooth="yes"/>
      <point x="390" y="338"/>
      <point x="473" y="297"/>
      <point x="473" y="189" type="curve" smooth="yes"/>
      <point x="473" y="67"/>
      <point x="366" y="-16"/>
      <point x="244" y="-16" type="curve" smooth="yes"/>
      <point x="142" y="-16"/>
      <point x="53" y="42"/>
      <point x="53" y="102" type="curve" smooth="yes"/>
      <point x="53" y="126"/>
      <point x="67" y="142"/>
      <point x="89" y="142" type="curve" smooth="yes"/>
      <point x="114" y="142"/>
      <point x="123" y="121"/>
      <point x="130" y="103" type="curve" smooth="yes"/>
      <point x="154" y="42"/>
      <point x="161" y="-4"/>
    </contour>
  </outline>
</glyph>
<glyph name="ampersand" format="1">
  <advance width="828"/>
  <unicode hex="0026"/>
  <outline>
    <contour>
      <point x="783" y="104" type="line"/>
      <point x="787" y="102" type="line"/>
      <point x="783" y="91" type="line" smooth="yes"/>
      <point x="758" y="22"/>
      <point x="700" y="-20"/>
      <point x="631" y="-20" type="curve" smooth="yes"/>
      <point x="579" y="-20"/>
      <point x="540" y="3"/>
      <point x="488" y="63" type="curve" smooth="yes"/>
      <point x="220" y="374" type="line" smooth="yes"/>
      <point x="158" y="445"/>
      <point x="137" y="487"/>
      <point x="137" y="538" type="curve" smooth="yes"/>
      <point x="137" y="636"/>
      <point x="214" y="706"/>
      <point x="321" y="706" type="curve" smooth="yes"/>
      <point x="413" y="706"/>
      <point x="476" y="654"/>
      <point x="476" y="578" type="curve" smooth="yes"/>
      <point x="476" y="499"/>
      <point x="408" y="422"/>
      <point x="307" y="385" type="curve"/>
      <point x="303" y="392" type="line"/>
      <point x="373" y="430"/>
      <point x="409" y="488"/>
      <point x="409" y="565" type="curve" smooth="yes"/>
      <point x="409" y="644"/>
      <point x="370" y="694"/>
      <point x="308" y="694" type="curve" smooth="yes"/>
      <point x="249" y="694"/>
      <point x="207" y="648"/>
      <point x="207" y="581" type="curve" smooth="yes"/>
      <point x="207" y="526"/>
      <point x="236" y="469"/>
      <point x="303" y="394" type="curve" smooth="yes"/>
      <point x="544" y="120" type="line" smooth="yes"/>
      <point x="598" y="59"/>
      <point x="626" y="40"/>
      <point x="670" y="40" type="curve" smooth="yes"/>
      <point x="709" y="40"/>
      <point x="737" y="54"/>
      <point x="773" y="93" type="curve" smooth="yes"/>
    </contour>
    <contour>
      <point x="627" y="331" type="curve" smooth="yes"/>
      <point x="529" y="102"/>
      <point x="395" y="-20"/>
      <point x="241" y="-20" type="curve" smooth="yes"/>
      <point x="117" y="-20"/>
      <point x="46" y="41"/>
      <point x="46" y="147" type="curve" smooth="yes"/>
      <point x="46" y="249"/>
      <point x="114" y="328"/>
      <point x="244" y="369" type="curve"/>
      <point x="250" y="365" type="line"/>
      <point x="179" y="328"/>
      <point x="136" y="256"/>
      <point x="136" y="172" type="curve" smooth="yes"/>
      <point x="136" y="78"/>
      <point x="192" y="16"/>
      <point x="277" y="16" type="curve" smooth="yes"/>
      <point x="404" y="16"/>
      <point x="541" y="145"/>
      <point x="611" y="331" type="curve" smooth="yes"/>
      <point x="614" y="339"/>
      <point x="615" y="342"/>
      <point x="615" y="348" type="curve" smooth="yes"/>
      <point x="615" y="363"/>
      <point x="608" y="369"/>
      <point x="585" y="371" type="curve" smooth="yes"/>
      <point x="504" y="376" type="line"/>
      <point x="504" y="384" type="line"/>
      <point x="757" y="384" type="line"/>
      <point x="757" y="376" type="line"/>
      <point x="681" y="371" type="line" smooth="yes"/>
      <point x="647" y="369"/>
      <point x="640" y="363"/>
    </contour>
  </outline>
</glyph>
<glyph name="quotesingle" format="1">
  <advance width="168"/>
  <unicode hex="0027"/>
  <outline>
    <contour>
      <point x="79" y="510" type="curve"/>
      <point x="89" y="510" type="line"/>
      <point x="89" y="616"/>
      <point x="111" y="650"/>
      <point x="111" y="684" type="curve" smooth="yes"/>
      <point x="111" y="705"/>
      <point x="100" y="714"/>
      <point x="84" y="714" type="curve" smooth="yes"/>
      <point x="68" y="714"/>
      <point x="57" y="705"/>
      <point x="57" y="684" type="curve" smooth="yes"/>
      <point x="57" y="651"/>
      <point x="79" y="616"/>
    </contour>
  </outline>
</glyph>
<glyph name="parenleft" format="1">
  <advance width="267"/>
  <unicode hex="0028"/>
  <outline>
    <contour>
      <point x="119" y="281" type="curve" smooth="yes"/>
      <point x="119" y="82"/>
      <point x="169" y="-98"/>
      <point x="241" y="-175" type="curve"/>
      <point x="237" y="-178" type="line"/>
      <point x="151" y="-107"/>
      <point x="43" y="81"/>
      <point x="43" y="282" type="curve" smooth="yes"/>
      <point x="43" y="483"/>
      <point x="151" y="671"/>
      <point x="237" y="742" type="curve"/>
      <point x="241" y="739" type="line"/>
      <point x="169" y="662"/>
      <point x="119" y="480"/>
    </contour>
  </outline>
</glyph>
<glyph name="parenright" format="1">
  <advance width="267"/>
  <unicode hex="0029"/>
  <outline>
    <contour>
      <point x="148" y="281" type="curve" smooth="yes"/>
      <point x="148" y="480"/>
      <point x="98" y="662"/>
      <point x="26" y="739" type="curve"/>
      <point x="30" y="742" type="line"/>
      <point x="116" y="671"/>
      <point x="224" y="483"/>
      <point x="224" y="282" type="curve" smooth="yes"/>
      <point x="224" y="81"/>
      <point x="116" y="-107"/>
      <point x="30" y="-178" type="curve"/>
      <point x="26" y="-175" type="line"/>
      <point x="98" y="-98"/>
      <point x="148" y="82"/>
    </contour>
  </outline>
</glyph>
<glyph name="asterisk" format="1">
  <advance width="408"/>
  <unicode hex="002A"/>
  <outline>
    <contour>
      <point x="231" y="685" type="curve" smooth="yes"/>
      <point x="231" y="705"/>
      <point x="220" y="714"/>
      <point x="204" y="714" type="curve" smooth="yes"/>
      <point x="188" y="714"/>
      <point x="177" y="705"/>
      <point x="177" y="685" type="curve" smooth="yes"/>
      <point x="177" y="660"/>
      <point x="198" y="638"/>
      <point x="199" y="565" type="curve"/>
      <point x="127" y="614"/>
      <point x="118" y="652"/>
      <point x="91" y="652" type="curve" smooth="yes"/>
      <point x="78" y="652"/>
      <point x="65" y="644"/>
      <point x="65" y="627" type="curve" smooth="yes"/>
      <point x="65" y="597"/>
      <point x="108" y="607"/>
      <point x="194" y="557" type="curve"/>
      <point x="107" y="508"/>
      <point x="65" y="518"/>
      <point x="65" y="487" type="curve" smooth="yes"/>
      <point x="65" y="470"/>
      <point x="78" y="463"/>
      <point x="90" y="463" type="curve" smooth="yes"/>
      <point x="118" y="463"/>
      <point x="127" y="501"/>
      <point x="199" y="549" type="curve"/>
      <point x="198" y="477"/>
      <point x="177" y="454"/>
      <point x="177" y="430" type="curve" smooth="yes"/>
      <point x="177" y="411"/>
      <point x="188" y="401"/>
      <point x="204" y="401" type="curve" smooth="yes"/>
      <point x="220" y="401"/>
      <point x="231" y="412"/>
      <point x="231" y="430" type="curve" smooth="yes"/>
      <point x="231" y="455"/>
      <point x="210" y="478"/>
      <point x="209" y="549" type="curve"/>
      <point x="281" y="501"/>
      <point x="290" y="463"/>
      <point x="317" y="463" type="curve" smooth="yes"/>
      <point x="330" y="463"/>
      <point x="343" y="471"/>
      <point x="343" y="488" type="curve" smooth="yes"/>
      <point x="343" y="518"/>
      <point x="300" y="508"/>
      <point x="214" y="557" type="curve"/>
      <point x="301" y="607"/>
      <point x="343" y="597"/>
      <point x="343" y="627" type="curve" smooth="yes"/>
      <point x="343" y="645"/>
      <point x="329" y="652"/>
      <point x="317" y="652" type="curve" smooth="yes"/>
      <point x="290" y="652"/>
      <point x="281" y="614"/>
      <point x="209" y="565" type="curve"/>
      <point x="210" y="637"/>
      <point x="231" y="659"/>
    </contour>
  </outline>
</glyph>
<glyph name="plus" format="1">
  <advance width="454"/>
  <unicode hex="002B"/>
  <outline>
    <contour>
      <point x="57" y="355" type="line"/>
      <point x="397" y="355" type="line"/>
      <point x="397" y="333" type="line"/>
      <point x="57" y="333" type="line"/>
    </contour>
    <contour>
      <point x="238" y="514" type="line"/>
      <point x="238" y="174" type="line"/>
      <point x="216" y="174" type="line"/>
      <point x="216" y="514" type="line"/>
    </contour>
  </outline>
</glyph>
<glyph name="comma" format="1">
  <advance width="234"/>
  <unicode hex="002C"/>
  <outline>
    <contour>
      <point x="77" y="-161" type="line"/>
      <point x="138" y="-113"/>
      <point x="171" y="-51"/>
      <point x="171" y="20" type="curve" smooth="yes"/>
      <point x="171" y="72"/>
      <point x="146" y="99"/>
      <point x="111" y="99" type="curve" smooth="yes"/>
      <point x="84" y="99"/>
      <point x="64" y="78"/>
      <point x="64" y="48" type="curve" smooth="yes"/>
      <point x="64" y="-1"/>
      <point x="123" y="5"/>
      <point x="123" y="-52" type="curve" smooth="yes"/>
      <point x="123" y="-85"/>
      <point x="102" y="-128"/>
      <point x="73" y="-156" type="curve"/>
    </contour>
  </outline>
</glyph>
<glyph name="hyphen" format="1">
  <advance width="356"/>
  <unicode hex="002D"/>
  <outline>
    <contour>
      <point x="72" y="238" type="line"/>
      <point x="292" y="238" type="line"/>
      <point x="285" y="216" type="line"/>
      <point x="65" y="216" type="line"/>
    </contour>
  </outline>
</glyph>
<glyph name="period" format="1">
  <advance width="231"/>
  <unicode hex="002E"/>
  <outline>
    <contour>
      <point x="64" y="48" type="curve" smooth="yes"/>
      <point x="64" y="19"/>
      <point x="85" y="-4"/>
      <point x="116" y="-4" type="curve" smooth="yes"/>
      <point x="147" y="-4"/>
      <point x="167" y="19"/>
      <point x="167" y="48" type="curve" smooth="yes"/>
      <point x="167" y="77"/>
      <point x="147" y="99"/>
      <point x="116" y="99" type="curve" smooth="yes"/>
      <point x="85" y="99"/>
      <point x="64" y="77"/>
    </contour>
  </outline>
</glyph>
<glyph name="slash" format="1">
  <advance width="325"/>
  <unicode hex="002F"/>
  <outline>
    <contour>
      <point x="279" y="690" type="line"/>
      <point x="69" y="0" type="line"/>
      <point x="46" y="0" type="line"/>
      <point x="256" y="690" type="line"/>
    </contour>
  </outline>
</glyph>
<glyph name="zero" format="1">
  <advance width="622"/>
  <unicode hex="0030"/>
  <outline>
    <contour>
      <point x="311" y="706" type="curve" smooth="yes"/>
      <point x="453" y="706"/>
      <point x="566" y="546"/>
      <point x="566" y="345" type="curve" smooth="yes"/>
      <point x="566" y="144"/>
      <point x="453" y="-16"/>
      <point x="311" y="-16" type="curve" smooth="yes"/>
      <point x="169" y="-16"/>
      <point x="56" y="144"/>
      <point x="56" y="345" type="curve" smooth="yes"/>
      <point x="56" y="546"/>
      <point x="169" y="706"/>
    </contour>
    <contour>
      <point x="152" y="345" type="curve" smooth="yes"/>
      <point x="152" y="109"/>
      <point x="204" y="-4"/>
      <point x="311" y="-4" type="curve" smooth="yes"/>
      <point x="418" y="-4"/>
      <point x="470" y="109"/>
      <point x="470" y="345" type="curve" smooth="yes"/>
      <point x="470" y="581"/>
      <point x="418" y="694"/>
      <point x="311" y="694" type="curve" smooth="yes"/>
      <point x="204" y="694"/>
      <point x="152" y="581"/>
    </contour>
  </outline>
</glyph>
<glyph name="one" format="1">
  <advance width="344"/>
  <unicode hex="0031"/>
  <outline>
    <contour>
      <point x="143" y="600" type="line"/>
      <point x="40" y="600" type="line"/>
      <point x="40" y="607" type="line"/>
      <point x="125" y="618"/>
      <point x="177" y="650"/>
      <point x="215" y="714" type="curve"/>
      <point x="220" y="712" type="line"/>
      <point x="220" y="17" type="line"/>
      <point x="312" y="9" type="line"/>
      <point x="312" y="0" type="line"/>
      <point x="41" y="0" type="line"/>
      <point x="41" y="9" type="line"/>
      <point x="143" y="17" type="line"/>
    </contour>
  </outline>
</glyph>
<glyph name="two" format="1">
  <advance width="510"/>
  <unicode hex="0032"/>
  <outline>
    <contour>
      <point x="429" y="0" type="line"/>
      <point x="452" y="194" type="line"/>
      <point x="444" y="196" type="line"/>
      <point x="425" y="123" type="line" smooth="yes"/>
      <point x="415" y="84"/>
      <point x="398" y="77"/>
      <point x="361" y="77" type="curve" smooth="yes"/>
      <point x="130" y="77" type="line"/>
      <point x="250" y="198" type="line" smooth="yes"/>
      <point x="386" y="336"/>
      <point x="439" y="420"/>
      <point x="439" y="512" type="curve" smooth="yes"/>
      <point x="439" y="625"/>
      <point x="364" y="706"/>
      <point x="259" y="706" type="curve" smooth="yes"/>
      <point x="171" y="706"/>
      <point x="91" y="649"/>
      <point x="56" y="562" type="curve"/>
      <point x="65" y="557" type="line"/>
      <point x="97" y="617"/>
      <point x="151" y="651"/>
      <point x="216" y="651" type="curve" smooth="yes"/>
      <point x="299" y="651"/>
      <point x="345" y="594"/>
      <point x="345" y="490" type="curve" smooth="yes"/>
      <point x="345" y="365"/>
      <point x="278" y="240"/>
      <point x="142" y="111" type="curve" smooth="yes"/>
      <point x="35" y="9" type="line"/>
      <point x="38" y="0" type="line"/>
    </contour>
  </outline>
</glyph>
<glyph name="three" format="1">
  <advance width="516"/>
  <unicode hex="0033"/>
  <outline>
    <contour>
      <point x="165" y="342" type="line"/>
      <point x="183" y="348"/>
      <point x="207" y="351"/>
      <point x="225" y="351" type="curve" smooth="yes"/>
      <point x="313" y="351"/>
      <point x="375" y="275"/>
      <point x="375" y="166" type="curve" smooth="yes"/>
      <point x="375" y="62"/>
      <point x="319" y="-2"/>
      <point x="228" y="-2" type="curve" smooth="yes"/>
      <point x="187" y="-2"/>
      <point x="178" y="7"/>
      <point x="155" y="69" type="curve" smooth="yes"/>
      <point x="132" y="131"/>
      <point x="117" y="149"/>
      <point x="89" y="149" type="curve" smooth="yes"/>
      <point x="63" y="149"/>
      <point x="46" y="130"/>
      <point x="46" y="101" type="curve" smooth="yes"/>
      <point x="46" y="38"/>
      <point x="129" y="-16"/>
      <point x="225" y="-16" type="curve" smooth="yes"/>
      <point x="358" y="-16"/>
      <point x="465" y="84"/>
      <point x="465" y="209" type="curve" smooth="yes"/>
      <point x="465" y="315"/>
      <point x="386" y="398"/>
      <point x="279" y="401" type="curve"/>
      <point x="279" y="405" type="line"/>
      <point x="360" y="450"/>
      <point x="407" y="515"/>
      <point x="407" y="581" type="curve" smooth="yes"/>
      <point x="407" y="655"/>
      <point x="348" y="707"/>
      <point x="265" y="707" type="curve" smooth="yes"/>
      <point x="176" y="707"/>
      <point x="101" y="647"/>
      <point x="68" y="550" type="curve"/>
      <point x="77" y="546" type="line"/>
      <point x="107" y="613"/>
      <point x="158" y="651"/>
      <point x="219" y="651" type="curve" smooth="yes"/>
      <point x="281" y="651"/>
      <point x="319" y="610"/>
      <point x="319" y="544" type="curve" smooth="yes"/>
      <point x="319" y="464"/>
      <point x="261" y="392"/>
      <point x="162" y="352" type="curve"/>
    </contour>
  </outline>
</glyph>
<glyph name="four" format="1">
  <advance width="509"/>
  <unicode hex="0034"/>
  <outline>
    <contour>
      <point x="300" y="17" type="line"/>
      <point x="198" y="9" type="line"/>
      <point x="198" y="0" type="line"/>
      <point x="463" y="0" type="line"/>
      <point x="463" y="9" type="line"/>
      <point x="377" y="17" type="line"/>
      <point x="377" y="195" type="line"/>
      <point x="462" y="195" type="line"/>
      <point x="462" y="247" type="line"/>
      <point x="377" y="247" type="line"/>
      <point x="377" y="712" type="line"/>
      <point x="372" y="714" type="line"/>
      <point x="20" y="201" type="line"/>
      <point x="23" y="195" type="line"/>
      <point x="300" y="195" type="line"/>
    </contour>
    <contour>
      <point x="300" y="247" type="line"/>
      <point x="69" y="247" type="line"/>
      <point x="68" y="250" type="line"/>
      <point x="296" y="578" type="line"/>
      <point x="300" y="578" type="line"/>
    </contour>
  </outline>
</glyph>
<glyph name="five" format="1">
  <advance width="499"/>
  <unicode hex="0035"/>
  <outline>
    <contour>
      <point x="153" y="615" type="line"/>
      <point x="404" y="615" type="line"/>
      <point x="436" y="721" type="line"/>
      <point x="429" y="723" type="line"/>
      <point x="423" y="711"/>
      <point x="417" y="700"/>
      <point x="410" y="690" type="curve"/>
      <point x="149" y="690" type="line"/>
      <point x="101" y="350" type="line"/>
      <point x="105" y="349" type="line"/>
      <point x="136" y="373"/>
      <point x="167" y="384"/>
      <point x="204" y="384" type="curve" smooth="yes"/>
      <point x="301" y="384"/>
      <point x="361" y="310"/>
      <point x="361" y="190" type="curve" smooth="yes"/>
      <point x="361" y="75"/>
      <point x="307" y="-2"/>
      <point x="227" y="-2" type="curve" smooth="yes"/>
      <point x="114" y="-2"/>
      <point x="161" y="149"/>
      <point x="81" y="149" type="curve" smooth="yes"/>
      <point x="53" y="149"/>
      <point x="35" y="130"/>
      <point x="35" y="101" type="curve" smooth="yes"/>
      <point x="35" y="39"/>
      <point x="119" y="-16"/>
      <point x="212" y="-16" type="curve" smooth="yes"/>
      <point x="345" y="-16"/>
      <point x="448" y="94"/>
      <point x="448" y="235" type="curve" smooth="yes"/>
      <point x="448" y="366"/>
      <point x="359" y="453"/>
      <point x="224" y="453" type="curve" smooth="yes"/>
      <point x="195" y="453"/>
      <point x="171" y="449"/>
      <point x="129" y="438" type="curve"/>
    </contour>
  </outline>
</glyph>
<glyph name="six" format="1">
  <advance width="512"/>
  <unicode hex="0036"/>
  <outline>
    <contour>
      <point x="261" y="-16" type="curve" smooth="yes"/>
      <point x="385" y="-16"/>
      <point x="472" y="80"/>
      <point x="472" y="217" type="curve" smooth="yes"/>
      <point x="472" y="341"/>
      <point x="400" y="423"/>
      <point x="290" y="423" type="curve" smooth="yes"/>
      <point x="237" y="423"/>
      <point x="190" y="404"/>
      <point x="159" y="370" type="curve"/>
      <point x="173" y="513"/>
      <point x="246" y="618"/>
      <point x="391" y="706" type="curve"/>
      <point x="387" y="714" type="line"/>
      <point x="185" y="633"/>
      <point x="54" y="455"/>
      <point x="54" y="243" type="curve" smooth="yes"/>
      <point x="54" y="85"/>
      <point x="134" y="-16"/>
    </contour>
    <contour>
      <point x="267" y="-4" type="curve" smooth="yes"/>
      <point x="194" y="-4"/>
      <point x="146" y="84"/>
      <point x="146" y="219" type="curve" smooth="yes"/>
      <point x="146" y="261"/>
      <point x="151" y="315"/>
      <point x="157" y="352" type="curve"/>
      <point x="180" y="382"/>
      <point x="216" y="399"/>
      <point x="255" y="399" type="curve" smooth="yes"/>
      <point x="334" y="399"/>
      <point x="379" y="327"/>
      <point x="379" y="199" type="curve" smooth="yes"/>
      <point x="379" y="74"/>
      <point x="336" y="-4"/>
    </contour>
  </outline>
</glyph>
<glyph name="seven" format="1">
  <advance width="432"/>
  <unicode hex="0037"/>
  <outline>
    <contour>
      <point x="92" y="690" type="line"/>
      <point x="91" y="700"/>
      <point x="90" y="710"/>
      <point x="90" y="720" type="curve"/>
      <point x="85" y="722" type="line"/>
      <point x="31" y="550" type="line"/>
      <point x="38" y="547" type="line"/>
      <point x="49" y="574"/>
      <point x="57" y="590"/>
      <point x="74" y="615" type="curve"/>
      <point x="378" y="615" type="line"/>
      <point x="103" y="51" type="line" smooth="yes"/>
      <point x="98" y="42"/>
      <point x="96" y="31"/>
      <point x="96" y="22" type="curve" smooth="yes"/>
      <point x="96" y="1"/>
      <point x="107" y="-16"/>
      <point x="132" y="-16" type="curve" smooth="yes"/>
      <point x="151" y="-16"/>
      <point x="172" y="-3"/>
      <point x="180" y="23" type="curve" smooth="yes"/>
      <point x="284" y="357"/>
      <point x="310" y="422"/>
      <point x="423" y="685" type="curve"/>
      <point x="417" y="690" type="line"/>
    </contour>
  </outline>
</glyph>
<glyph name="eight" format="1">
  <advance width="525"/>
  <unicode hex="0038"/>
  <outline>
    <contour>
      <point x="310" y="400" type="curve"/>
      <point x="388" y="434"/>
      <point x="436" y="495"/>
      <point x="436" y="563" type="curve" smooth="yes"/>
      <point x="436" y="646"/>
      <point x="365" y="706"/>
      <point x="267" y="706" type="curve" smooth="yes"/>
      <point x="159" y="706"/>
      <point x="79" y="632"/>
      <point x="79" y="533" type="curve" smooth="yes"/>
      <point x="79" y="460"/>
      <point x="121" y="403"/>
      <point x="211" y="355" type="curve"/>
      <point x="111" y="312"/>
      <point x="56" y="245"/>
      <point x="56" y="166" type="curve" smooth="yes"/>
      <point x="56" y="65"/>
      <point x="145" y="-16"/>
      <point x="257" y="-16" type="curve" smooth="yes"/>
      <point x="377" y="-16"/>
      <point x="472" y="75"/>
      <point x="472" y="190" type="curve" smooth="yes"/>
      <point x="472" y="272"/>
      <point x="422" y="337"/>
    </contour>
    <contour>
      <point x="301" y="405" type="curve"/>
      <point x="200" y="450"/>
      <point x="155" y="502"/>
      <point x="155" y="576" type="curve" smooth="yes"/>
      <point x="155" y="647"/>
      <point x="197" y="694"/>
      <point x="261" y="694" type="curve" smooth="yes"/>
      <point x="328" y="694"/>
      <point x="370" y="643"/>
      <point x="370" y="560" type="curve" smooth="yes"/>
      <point x="370" y="495"/>
      <point x="345" y="439"/>
    </contour>
    <contour>
      <point x="222" y="348" type="curve"/>
      <point x="345" y="287"/>
      <point x="398" y="225"/>
      <point x="398" y="140" type="curve" smooth="yes"/>
      <point x="398" y="55"/>
      <point x="344" y="-4"/>
      <point x="264" y="-4" type="curve" smooth="yes"/>
      <point x="181" y="-4"/>
      <point x="132" y="61"/>
      <point x="132" y="170" type="curve" smooth="yes"/>
      <point x="132" y="256"/>
      <point x="163" y="317"/>
    </contour>
  </outline>
</glyph>
<glyph name="nine" format="1">
  <advance width="511"/>
  <unicode hex="0039"/>
  <outline>
    <contour>
      <point x="252" y="714" type="curve" smooth="yes"/>
      <point x="127" y="714"/>
      <point x="39" y="620"/>
      <point x="39" y="488" type="curve" smooth="yes"/>
      <point x="39" y="366"/>
      <point x="112" y="285"/>
      <point x="222" y="285" type="curve" smooth="yes"/>
      <point x="275" y="285"/>
      <point x="322" y="304"/>
      <point x="352" y="338" type="curve"/>
      <point x="334" y="191"/>
      <point x="259" y="79"/>
      <point x="120" y="-8" type="curve"/>
      <point x="124" y="-16" type="line"/>
      <point x="329" y="66"/>
      <point x="457" y="247"/>
      <point x="457" y="453" type="curve" smooth="yes"/>
      <point x="457" y="615"/>
      <point x="379" y="714"/>
    </contour>
    <contour>
      <point x="250" y="702" type="curve" smooth="yes"/>
      <point x="324" y="702"/>
      <point x="365" y="625"/>
      <point x="365" y="486" type="curve" smooth="yes"/>
      <point x="365" y="443"/>
      <point x="361" y="395"/>
      <point x="354" y="356" type="curve"/>
      <point x="330" y="326"/>
      <point x="295" y="309"/>
      <point x="256" y="309" type="curve" smooth="yes"/>
      <point x="177" y="309"/>
      <point x="132" y="381"/>
      <point x="132" y="506" type="curve" smooth="yes"/>
      <point x="132" y="628"/>
      <point x="176" y="702"/>
    </contour>
  </outline>
</glyph>
<glyph name="colon" format="1">
  <advance width="233"/>
  <unicode hex="003A"/>
  <outline>
    <contour>
      <point x="65" y="48" type="curve" smooth="yes"/>
      <point x="65" y="19"/>
      <point x="86" y="-4"/>
      <point x="117" y="-4" type="curve" smooth="yes"/>
      <point x="148" y="-4"/>
      <point x="168" y="19"/>
      <point x="168" y="48" type="curve" smooth="yes"/>
      <point x="168" y="77"/>
      <point x="148" y="99"/>
      <point x="117" y="99" type="curve" smooth="yes"/>
      <point x="86" y="99"/>
      <point x="65" y="77"/>
    </contour>
    <contour>
      <point x="65" y="358" type="curve" smooth="yes"/>
      <point x="65" y="329"/>
      <point x="86" y="306"/>
      <point x="117" y="306" type="curve" smooth="yes"/>
      <point x="148" y="306"/>
      <point x="168" y="329"/>
      <point x="168" y="358" type="curve" smooth="yes"/>
      <point x="168" y="387"/>
      <point x="148" y="409"/>
      <point x="117" y="409" type="curve" smooth="yes"/>
      <point x="86" y="409"/>
      <point x="65" y="387"/>
    </contour>
  </outline>
</glyph>
<glyph name="semicolon" format="1">
  <advance width="246"/>
  <unicode hex="003B"/>
  <outline>
    <contour>
      <point x="67" y="358" type="curve" smooth="yes"/>
      <point x="67" y="329"/>
      <point x="88" y="306"/>
      <point x="119" y="306" type="curve" smooth="yes"/>
      <point x="150" y="306"/>
      <point x="170" y="329"/>
      <point x="170" y="358" type="curve" smooth="yes"/>
      <point x="170" y="387"/>
      <point x="150" y="409"/>
      <point x="119" y="409" type="curve" smooth="yes"/>
      <point x="88" y="409"/>
      <point x="67" y="387"/>
    </contour>
    <contour>
      <point x="84" y="-161" type="line"/>
      <point x="145" y="-113"/>
      <point x="178" y="-51"/>
      <point x="178" y="20" type="curve" smooth="yes"/>
      <point x="178" y="72"/>
      <point x="153" y="99"/>
      <point x="118" y="99" type="curve" smooth="yes"/>
      <point x="91" y="99"/>
      <point x="71" y="78"/>
      <point x="71" y="48" type="curve" smooth="yes"/>
      <point x="71" y="-1"/>
      <point x="130" y="5"/>
      <point x="130" y="-52" type="curve" smooth="yes"/>
      <point x="130" y="-85"/>
      <point x="109" y="-128"/>
      <point x="80" y="-156" type="curve"/>
    </contour>
  </outline>
</glyph>
<glyph name="less" format="1">
  <advance width="423"/>
  <unicode hex="003C"/>
  <outline>
    <contour>
      <point x="52" y="362" type="line"/>
      <point x="324" y="504" type="line"/>
      <point x="333" y="488" type="line"/>
      <point x="66" y="346" type="line"/>
      <point x="334" y="206" type="line"/>
      <point x="325" y="186" type="line"/>
      <point x="52" y="329" type="line"/>
    </contour>
  </outline>
</glyph>
<glyph name="equal" format="1">
  <advance width="481"/>
  <unicode hex="003D"/>
  <outline>
    <contour>
      <point x="80" y="250" type="line"/>
      <point x="410" y="250" type="line"/>
      <point x="403" y="228" type="line"/>
      <point x="73" y="228" type="line"/>
    </contour>
    <contour>
      <point x="80" y="435" type="line"/>
      <point x="410" y="435" type="line"/>
      <point x="403" y="413" type="line"/>
      <point x="73" y="413" type="line"/>
    </contour>
  </outline>
</glyph>
<glyph name="greater" format="1">
  <advance width="423"/>
  <unicode hex="003E"/>
  <outline>
    <contour>
      <point x="371" y="329" type="line"/>
      <point x="98" y="186" type="line"/>
      <point x="89" y="206" type="line"/>
      <point x="357" y="346" type="line"/>
      <point x="90" y="488" type="line"/>
      <point x="99" y="504" type="line"/>
      <point x="371" y="362" type="line"/>
    </contour>
  </outline>
</glyph>
<glyph name="question" format="1">
  <advance width="363"/>
  <unicode hex="003F"/>
  <outline>
    <contour>
      <point x="107" y="170" type="line"/>
      <point x="99" y="402" type="line"/>
      <point x="126" y="402" type="line" smooth="yes"/>
      <point x="248" y="402"/>
      <point x="302" y="427"/>
      <point x="302" y="485" type="curve" smooth="yes"/>
      <point x="302" y="601"/>
      <point x="73" y="599"/>
      <point x="73" y="677" type="curve" smooth="yes"/>
      <point x="73" y="701"/>
      <point x="86" y="712"/>
      <point x="117" y="712" type="curve" smooth="yes"/>
      <point x="214" y="712"/>
      <point x="316" y="591"/>
      <point x="316" y="476" type="curve" smooth="yes"/>
      <point x="316" y="384"/>
      <point x="254" y="327"/>
      <point x="151" y="323" type="curve" smooth="yes"/>
      <point x="125" y="322" type="line"/>
      <point x="117" y="170" type="line"/>
    </contour>
    <contour>
      <point x="60" y="38" type="curve" smooth="yes"/>
      <point x="60" y="10"/>
      <point x="80" y="-10"/>
      <point x="108" y="-10" type="curve" smooth="yes"/>
      <point x="136" y="-10"/>
      <point x="156" y="10"/>
      <point x="156" y="38" type="curve" smooth="yes"/>
      <point x="156" y="66"/>
      <point x="136" y="86"/>
      <point x="108" y="86" type="curve" smooth="yes"/>
      <point x="80" y="86"/>
      <point x="60" y="66"/>
    </contour>
  </outline>
</glyph>
<glyph name="at" format="1">
  <advance width="752"/>
  <unicode hex="0040"/>
  <outline>
    <contour>
      <point x="551" y="-127" type="line"/>
      <point x="500" y="-157"/>
      <point x="439" y="-173"/>
      <point x="370" y="-173" type="curve" smooth="yes"/>
      <point x="173" y="-173"/>
      <point x="43" y="-56"/>
      <point x="43" y="122" type="curve" smooth="yes"/>
      <point x="43" y="327"/>
      <point x="209" y="488"/>
      <point x="420" y="488" type="curve" smooth="yes"/>
      <point x="584" y="488"/>
      <point x="702" y="382"/>
      <point x="702" y="233" type="curve" smooth="yes"/>
      <point x="702" y="104"/>
      <point x="614" y="-6"/>
      <point x="510" y="-6" type="curve" smooth="yes"/>
      <point x="459" y="-6"/>
      <point x="429" y="20"/>
      <point x="429" y="65" type="curve" smooth="yes"/>
      <point x="429" y="73"/>
      <point x="430" y="79"/>
      <point x="433" y="83" type="curve"/>
      <point x="430" y="84" type="line"/>
      <point x="394" y="32"/>
      <point x="352" y="5"/>
      <point x="304" y="5" type="curve" smooth="yes"/>
      <point x="244" y="5"/>
      <point x="207" y="44"/>
      <point x="207" y="107" type="curve" smooth="yes"/>
      <point x="207" y="221"/>
      <point x="325" y="354"/>
      <point x="425" y="354" type="curve" smooth="yes"/>
      <point x="456" y="354"/>
      <point x="476" y="342"/>
      <point x="488" y="314" type="curve"/>
      <point x="492" y="314" type="line"/>
      <point x="504" y="354" type="line"/>
      <point x="580" y="354" type="line"/>
      <point x="502" y="90" type="line" smooth="yes"/>
      <point x="497" y="76"/>
      <point x="496" y="68"/>
      <point x="496" y="57" type="curve" smooth="yes"/>
      <point x="496" y="27"/>
      <point x="506" y="16"/>
      <point x="531" y="16" type="curve" smooth="yes"/>
      <point x="612" y="16"/>
      <point x="687" y="119"/>
      <point x="687" y="232" type="curve" smooth="yes"/>
      <point x="687" y="373"/>
      <point x="575" y="473"/>
      <point x="419" y="473" type="curve" smooth="yes"/>
      <point x="242" y="473"/>
      <point x="107" y="324"/>
      <point x="107" y="129" type="curve" smooth="yes"/>
      <point x="107" y="-46"/>
      <point x="217" y="-157"/>
      <point x="390" y="-157" type="curve" smooth="yes"/>
      <point x="451" y="-157"/>
      <point x="493" y="-145"/>
      <point x="546" y="-114" type="curve"/>
    </contour>
    <contour>
      <point x="325" y="19" type="curve" smooth="yes"/>
      <point x="397" y="19"/>
      <point x="476" y="154"/>
      <point x="476" y="275" type="curve" smooth="yes"/>
      <point x="476" y="322"/>
      <point x="464" y="342"/>
      <point x="436" y="342" type="curve" smooth="yes"/>
      <point x="364" y="342"/>
      <point x="280" y="209"/>
      <point x="280" y="94" type="curve" smooth="yes"/>
      <point x="280" y="45"/>
      <point x="296" y="19"/>
    </contour>
  </outline>
</glyph>
<glyph name="A" format="1">
  <advance width="658"/>
  <unicode hex="0041"/>
  <outline>
    <contour>
      <point x="178" y="8" type="line"/>
      <point x="178" y="0" type="line"/>
      <point x="-35" y="0" type="line"/>
      <point x="-35" y="8" type="line"/>
      <point x="21" y="13" type="line" smooth="yes"/>
      <point x="54" y="16"/>
      <point x="64" y="23"/>
      <point x="75" y="53" type="curve" smooth="yes"/>
      <point x="320" y="706" type="line"/>
      <point x="338" y="706" type="line"/>
      <point x="590" y="18" type="line"/>
      <point x="673" y="8" type="line"/>
      <point x="673" y="0" type="line"/>
      <point x="428" y="0" type="line"/>
      <point x="428" y="8" type="line"/>
      <point x="510" y="18" type="line"/>
      <point x="298" y="595" type="line"/>
      <point x="294" y="595" type="line"/>
      <point x="91" y="53" type="line" smooth="yes"/>
      <point x="88" y="45"/>
      <point x="87" y="40"/>
      <point x="87" y="35" type="curve" smooth="yes"/>
      <point x="87" y="20"/>
      <point x="95" y="15"/>
      <point x="117" y="13" type="curve" smooth="yes"/>
    </contour>
    <contour>
      <point x="168" y="290" type="line"/>
      <point x="435" y="290" type="line"/>
      <point x="435" y="274" type="line"/>
      <point x="168" y="274" type="line"/>
    </contour>
    <contour>
      <point x="559" y="0" type="move" name="bottom"/>
    </contour>
    <contour>
      <point x="319" y="800" type="move" name="top"/>
    </contour>
  </outline>
</glyph>
<glyph name="B" format="1">
  <advance width="615"/>
  <unicode hex="0042"/>
  <outline>
    <contour>
      <point x="150" y="0" type="line"/>
      <point x="150" y="12" type="line"/>
      <point x="311" y="12" type="line" smooth="yes"/>
      <point x="418" y="12"/>
      <point x="466" y="73"/>
      <point x="466" y="186" type="curve" smooth="yes"/>
      <point x="466" y="310"/>
      <point x="410" y="359"/>
      <point x="311" y="359" type="curve" smooth="yes"/>
      <point x="150" y="359" type="line"/>
      <point x="150" y="371" type="line"/>
      <point x="315" y="371" type="line" smooth="yes"/>
      <point x="407" y="371"/>
      <point x="441" y="427"/>
      <point x="441" y="526" type="curve" smooth="yes"/>
      <point x="441" y="626"/>
      <point x="392" y="678"/>
      <point x="286" y="678" type="curve" smooth="yes"/>
      <point x="165" y="678" type="line"/>
      <point x="165" y="690" type="line"/>
      <point x="289" y="690" type="line" smooth="yes"/>
      <point x="446" y="690"/>
      <point x="531" y="632"/>
      <point x="531" y="526" type="curve" smooth="yes"/>
      <point x="531" y="442"/>
      <point x="478" y="382"/>
      <point x="382" y="368" type="curve"/>
      <point x="382" y="364" type="line"/>
      <point x="498" y="348"/>
      <point x="561" y="287"/>
      <point x="561" y="189" type="curve" smooth="yes"/>
      <point x="561" y="93"/>
      <point x="500" y="0"/>
      <point x="335" y="0" type="curve" smooth="yes"/>
    </contour>
    <contour>
      <point x="40" y="682" type="line"/>
      <point x="40" y="690" type="line"/>
      <point x="199" y="690" type="line"/>
      <point x="199" y="0" type="line"/>
      <point x="40" y="0" type="line"/>
      <point x="40" y="8" type="line"/>
      <point x="122" y="16" type="line"/>
      <point x="122" y="674" type="line"/>
    </contour>
  </outline>
</glyph>
<glyph name="C" format="1">
  <advance width="676"/>
  <unicode hex="0043"/>
  <outline>
    <contour>
      <point x="526" y="68" type="curve" smooth="yes"/>
      <point x="566" y="113"/>
      <point x="587" y="176"/>
      <point x="600" y="232" type="curve"/>
      <point x="613" y="230" type="line"/>
      <point x="613" y="0" type="line"/>
      <point x="600" y="0" type="line"/>
      <point x="566" y="55" type="line"/>
      <point x="507" y="12"/>
      <point x="433" y="-16"/>
      <point x="367" y="-16" type="curve" smooth="yes"/>
      <point x="190" y="-16"/>
      <point x="52" y="142"/>
      <point x="52" y="345" type="curve" smooth="yes"/>
      <point x="52" y="547"/>
      <point x="190" y="706"/>
      <point x="365" y="706" type="curve" smooth="yes"/>
      <point x="425" y="706"/>
      <point x="485" y="688"/>
      <point x="563" y="646" type="curve"/>
      <point x="587" y="694" type="line"/>
      <point x="600" y="694" type="line"/>
      <point x="610" y="469" type="line"/>
      <point x="596" y="465" type="line"/>
      <point x="587" y="515"/>
      <point x="572" y="559"/>
      <point x="552" y="592" type="curve" smooth="yes"/>
      <point x="512" y="658"/>
      <point x="445" y="694"/>
      <point x="368" y="694" type="curve" smooth="yes"/>
      <point x="226" y="694"/>
      <point x="148" y="567"/>
      <point x="148" y="345" type="curve" smooth="yes"/>
      <point x="148" y="124"/>
      <point x="227" y="-2"/>
      <point x="367" y="-2" type="curve" smooth="yes"/>
      <point x="428" y="-2"/>
      <point x="488" y="27"/>
    </contour>
    <contour>
      <point x="375" y="0" type="move" name="bottom"/>
    </contour>
    <contour>
      <point x="365" y="800" type="move" name="top"/>
    </contour>
  </outline>
</glyph>
<glyph name="D" format="1">
  <advance width="704"/>
  <unicode hex="0044"/>
  <outline>
    <contour>
      <point x="40" y="682" type="line"/>
      <point x="40" y="690" type="line"/>
      <point x="199" y="690" type="line"/>
      <point x="199" y="0" type="line"/>
      <point x="40" y="0" type="line"/>
      <point x="40" y="8" type="line"/>
      <point x="122" y="16" type="line"/>
      <point x="122" y="674" type="line"/>
    </contour>
    <contour>
      <point x="148" y="690" type="line"/>
      <point x="306" y="690" type="line" smooth="yes"/>
      <point x="398" y="690"/>
      <point x="467" y="673"/>
      <point x="519" y="637" type="curve" smooth="yes"/>
      <point x="601" y="580"/>
      <point x="648" y="475"/>
      <point x="648" y="349" type="curve" smooth="yes"/>
      <point x="648" y="222"/>
      <point x="600" y="113"/>
      <point x="519" y="54" type="curve" smooth="yes"/>
      <point x="467" y="16"/>
      <point x="403" y="0"/>
      <point x="306" y="0" type="curve" smooth="yes"/>
      <point x="148" y="0" type="line"/>
      <point x="148" y="12" type="line"/>
      <point x="297" y="12" type="line" smooth="yes"/>
      <point x="404" y="12"/>
      <point x="448" y="27"/>
      <point x="483" y="71" type="curve" smooth="yes"/>
      <point x="526" y="126"/>
      <point x="552" y="232"/>
      <point x="552" y="354" type="curve" smooth="yes"/>
      <point x="552" y="472"/>
      <point x="528" y="566"/>
      <point x="483" y="619" type="curve" smooth="yes"/>
      <point x="446" y="662"/>
      <point x="399" y="678"/>
      <point x="297" y="678" type="curve" smooth="yes"/>
      <point x="148" y="678" type="line"/>
    </contour>
    <contour>
      <point x="318" y="0" type="move" name="bottom"/>
    </contour>
    <contour>
      <point x="318" y="800" type="move" name="top"/>
    </contour>
  </outline>
</glyph>
<glyph name="E" format="1">
  <advance width="614"/>
  <unicode hex="0045"/>
  <outline>
    <contour>
      <point x="199" y="678" type="line"/>
      <point x="199" y="12" type="line"/>
      <point x="423" y="12" type="line" smooth="yes"/>
      <point x="455" y="12"/>
      <point x="466" y="19"/>
      <point x="478" y="49" type="curve" smooth="yes"/>
      <point x="544" y="211" type="line"/>
      <point x="555" y="210" type="line"/>
      <point x="530" y="0" type="line"/>
      <point x="40" y="0" type="line"/>
      <point x="40" y="8" type="line"/>
      <point x="122" y="16" type="line"/>
      <point x="122" y="674" type="line"/>
      <point x="40" y="682" type="line"/>
      <point x="40" y="690" type="line"/>
      <point x="531" y="690" type="line"/>
      <point x="545" y="502" type="line"/>
      <point x="535" y="501" type="line"/>
      <point x="479" y="641" type="line" smooth="yes"/>
      <point x="467" y="671"/>
      <point x="457" y="678"/>
      <point x="425" y="678" type="curve" smooth="yes"/>
    </contour>
    <contour>
      <point x="347" y="371" type="line" smooth="yes"/>
      <point x="379" y="371"/>
      <point x="389" y="379"/>
      <point x="395" y="410" type="curve" smooth="yes"/>
      <point x="412" y="491" type="line"/>
      <point x="424" y="491" type="line"/>
      <point x="424" y="235" type="line"/>
      <point x="412" y="235" type="line"/>
      <point x="395" y="316" type="line" smooth="yes"/>
      <point x="389" y="347"/>
      <point x="379" y="355"/>
      <point x="347" y="355" type="curve" smooth="yes"/>
      <point x="190" y="355" type="line"/>
      <point x="190" y="371" type="line"/>
    </contour>
    <contour>
      <point x="313" y="0" type="move" name="bottom"/>
    </contour>
    <contour>
      <point x="314" y="800" type="move" name="top"/>
    </contour>
  </outline>
</glyph>
<glyph name="F" format="1">
  <advance width="554"/>
  <unicode hex="0046"/>
  <outline>
    <contour>
      <point x="199" y="678" type="line"/>
      <point x="199" y="16" type="line"/>
      <point x="297" y="8" type="line"/>
      <point x="297" y="0" type="line"/>
      <point x="40" y="0" type="line"/>
      <point x="40" y="8" type="line"/>
      <point x="122" y="16" type="line"/>
      <point x="122" y="674" type="line"/>
      <point x="40" y="682" type="line"/>
      <point x="40" y="690" type="line"/>
      <point x="508" y="690" type="line"/>
      <point x="524" y="491" type="line"/>
      <point x="516" y="490" type="line"/>
      <point x="456" y="641" type="line" smooth="yes"/>
      <point x="444" y="671"/>
      <point x="434" y="678"/>
      <point x="402" y="678" type="curve" smooth="yes"/>
    </contour>
    <contour>
      <point x="344" y="371" type="line" smooth="yes"/>
      <point x="376" y="371"/>
      <point x="386" y="379"/>
      <point x="392" y="410" type="curve" smooth="yes"/>
      <point x="409" y="491" type="line"/>
      <point x="421" y="491" type="line"/>
      <point x="421" y="235" type="line"/>
      <point x="409" y="235" type="line"/>
      <point x="392" y="316" type="line" smooth="yes"/>
      <point x="386" y="347"/>
      <point x="376" y="355"/>
      <point x="344" y="355" type="curve" smooth="yes"/>
      <point x="187" y="355" type="line"/>
      <point x="187" y="371" type="line"/>
    </contour>
  </outline>
</glyph>
<glyph name="G" format="1">
  <advance width="703"/>
  <unicode hex="0047"/>
  <outline>
    <contour>
      <point x="456" y="337" type="line"/>
      <point x="456" y="345" type="line"/>
      <point x="687" y="345" type="line"/>
      <point x="687" y="337" type="line"/>
      <point x="605" y="329" type="line"/>
      <point x="605" y="68" type="line"/>
      <point x="533" y="1"/>
      <point x="417" y="-16"/>
      <point x="367" y="-16" type="curve" smooth="yes"/>
      <point x="190" y="-16"/>
      <point x="52" y="142"/>
      <point x="52" y="345" type="curve" smooth="yes"/>
      <point x="52" y="547"/>
      <point x="190" y="706"/>
      <point x="365" y="706" type="curve" smooth="yes"/>
      <point x="423" y="706"/>
      <point x="483" y="688"/>
      <point x="559" y="646" type="curve"/>
      <point x="583" y="694" type="line"/>
      <point x="596" y="694" type="line"/>
      <point x="606" y="469" type="line"/>
      <point x="592" y="465" type="line"/>
      <point x="583" y="515"/>
      <point x="568" y="559"/>
      <point x="548" y="592" type="curve" smooth="yes"/>
      <point x="508" y="658"/>
      <point x="443" y="694"/>
      <point x="368" y="694" type="curve" smooth="yes"/>
      <point x="226" y="694"/>
      <point x="148" y="567"/>
      <point x="148" y="345" type="curve" smooth="yes"/>
      <point x="148" y="122"/>
      <point x="227" y="-4"/>
      <point x="367" y="-4" type="curve" smooth="yes"/>
      <point x="435" y="-4"/>
      <point x="496" y="30"/>
      <point x="528" y="77" type="curve"/>
      <point x="528" y="329" type="line"/>
    </contour>
    <contour>
      <point x="372" y="800" type="move" name="top"/>
    </contour>
  </outline>
</glyph>
<glyph name="H" format="1">
  <advance width="731"/>
  <unicode hex="0048"/>
  <outline>
    <contour>
      <point x="445" y="682" type="line"/>
      <point x="445" y="690" type="line"/>
      <point x="691" y="690" type="line"/>
      <point x="691" y="682" type="line"/>
      <point x="609" y="674" type="line"/>
      <point x="609" y="16" type="line"/>
      <point x="691" y="8" type="line"/>
      <point x="691" y="0" type="line"/>
      <point x="445" y="0" type="line"/>
      <point x="445" y="8" type="line"/>
      <point x="532" y="16" type="line"/>
      <point x="532" y="674" type="line"/>
    </contour>
    <contour>
      <point x="40" y="682" type="line"/>
      <point x="40" y="690" type="line"/>
      <point x="286" y="690" type="line"/>
      <point x="286" y="682" type="line"/>
      <point x="199" y="674" type="line"/>
      <point x="199" y="16" type="line"/>
      <point x="286" y="8" type="line"/>
      <point x="286" y="0" type="line"/>
      <point x="40" y="0" type="line"/>
      <point x="40" y="8" type="line"/>
      <point x="122" y="16" type="line"/>
      <point x="122" y="674" type="line"/>
    </contour>
    <contour>
      <point x="162" y="371" type="line"/>
      <point x="569" y="371" type="line"/>
      <point x="569" y="355" type="line"/>
      <point x="162" y="355" type="line"/>
    </contour>
    <contour>
      <point x="368" y="0" type="move" name="bottom"/>
    </contour>
    <contour>
      <point x="368" y="800" type="move" name="top"/>
    </contour>
  </outline>
</glyph>
<glyph name="I" format="1">
  <advance width="321"/>
  <unicode hex="0049"/>
  <outline>
    <contour>
      <point x="122" y="674" type="line"/>
      <point x="122" y="16" type="line"/>
      <point x="40" y="8" type="line"/>
      <point x="40" y="0" type="line"/>
      <point x="281" y="0" type="line"/>
      <point x="281" y="8" type="line"/>
      <point x="199" y="16" type="line"/>
      <point x="199" y="674" type="line"/>
      <point x="281" y="682" type="line"/>
      <point x="281" y="690" type="line"/>
      <point x="40" y="690" type="line"/>
      <point x="40" y="682" type="line"/>
    </contour>
    <contour>
      <point x="161" y="0" type="move" name="bottom"/>
    </contour>
    <contour>
      <point x="161" y="800" type="move" name="top"/>
    </contour>
  </outline>
</glyph>
<glyph name="J" format="1">
  <advance width="330"/>
  <unicode hex="004A"/>
  <outline>
    <contour>
      <point x="134" y="674" type="line"/>
      <point x="52" y="682" type="line"/>
      <point x="52" y="690" type="line"/>
      <point x="293" y="690" type="line"/>
      <point x="293" y="682" type="line"/>
      <point x="211" y="674" type="line"/>
      <point x="211" y="57" type="line" smooth="yes"/>
      <point x="211" y="-30"/>
      <point x="202" y="-74"/>
      <point x="178" y="-109" type="curve" smooth="yes"/>
      <point x="151" y="-147"/>
      <point x="105" y="-171"/>
      <point x="55" y="-171" type="curve" smooth="yes"/>
      <point x="-7" y="-171"/>
      <point x="-54" y="-138"/>
      <point x="-54" y="-94" type="curve" smooth="yes"/>
      <point x="-54" y="-67"/>
      <point x="-38" y="-50"/>
      <point x="-12" y="-50" type="curve" smooth="yes"/>
      <point x="14" y="-50"/>
      <point x="30" y="-67"/>
      <point x="30" y="-95" type="curve" smooth="yes"/>
      <point x="30" y="-102"/>
      <point x="29" y="-117"/>
      <point x="29" y="-124" type="curve" smooth="yes"/>
      <point x="29" y="-147"/>
      <point x="41" y="-159"/>
      <point x="63" y="-159" type="curve" smooth="yes"/>
      <point x="106" y="-159"/>
      <point x="134" y="-104"/>
      <point x="134" y="-20" type="curve" smooth="yes"/>
    </contour>
    <contour>
      <point x="173" y="800" type="move" name="top"/>
    </contour>
  </outline>
</glyph>
<glyph name="K" format="1">
  <advance width="656"/>
  <unicode hex="004B"/>
  <outline>
    <contour>
      <point x="304" y="423" type="line"/>
      <point x="597" y="40" type="line" smooth="yes"/>
      <point x="619" y="15"/>
      <point x="634" y="8"/>
      <point x="671" y="8" type="curve" smooth="yes"/>
      <point x="675" y="8" type="line"/>
      <point x="675" y="0" type="line"/>
      <point x="526" y="0" type="line"/>
      <point x="252" y="361" type="line"/>
    </contour>
    <contour>
      <point x="40" y="682" type="line"/>
      <point x="40" y="690" type="line"/>
      <point x="286" y="690" type="line"/>
      <point x="286" y="682" type="line"/>
      <point x="199" y="674" type="line"/>
      <point x="199" y="16" type="line"/>
      <point x="286" y="8" type="line"/>
      <point x="286" y="0" type="line"/>
      <point x="40" y="0" type="line"/>
      <point x="40" y="8" type="line"/>
      <point x="122" y="16" type="line"/>
      <point x="122" y="674" type="line"/>
    </contour>
    <contour>
      <point x="409" y="682" type="curve"/>
      <point x="409" y="690" type="line"/>
      <point x="613" y="690" type="line"/>
      <point x="613" y="682" type="line"/>
      <point x="535" y="669"/>
      <point x="521" y="662"/>
      <point x="491" y="628" type="curve" smooth="yes"/>
      <point x="172" y="263" type="line"/>
      <point x="172" y="281" type="line"/>
      <point x="471" y="626" type="line" smooth="yes"/>
      <point x="481" y="638"/>
      <point x="487" y="649"/>
      <point x="487" y="657" type="curve" smooth="yes"/>
      <point x="487" y="670"/>
      <point x="472" y="675"/>
    </contour>
    <contour>
      <point x="335" y="0" type="move" name="bottom"/>
    </contour>
  </outline>
</glyph>
<glyph name="L" format="1">
  <advance width="583"/>
  <unicode hex="004C"/>
  <outline>
    <contour>
      <point x="40" y="682" type="line"/>
      <point x="40" y="690" type="line"/>
      <point x="286" y="690" type="line"/>
      <point x="286" y="682" type="line"/>
      <point x="199" y="674" type="line"/>
      <point x="199" y="12" type="line"/>
      <point x="420" y="12" type="line" smooth="yes"/>
      <point x="452" y="12"/>
      <point x="463" y="19"/>
      <point x="475" y="49" type="curve" smooth="yes"/>
      <point x="543" y="220" type="line"/>
      <point x="555" y="218" type="line"/>
      <point x="530" y="0" type="line"/>
      <point x="40" y="0" type="line"/>
      <point x="40" y="8" type="line"/>
      <point x="122" y="16" type="line"/>
      <point x="122" y="674" type="line"/>
    </contour>
    <contour>
      <point x="300" y="0" type="move" name="bottom"/>
    </contour>
  </outline>
</glyph>
<glyph name="M" format="1">
  <advance width="871"/>
  <unicode hex="004D"/>
  <outline>
    <contour>
      <point x="34" y="682" type="line"/>
      <point x="34" y="690" type="line"/>
      <point x="205" y="690" type="line"/>
      <point x="451" y="103" type="line"/>
      <point x="455" y="103" type="line"/>
      <point x="675" y="690" type="line"/>
      <point x="697" y="690" type="line"/>
      <point x="672" y="625" type="line"/>
      <point x="668" y="625" type="line"/>
      <point x="427" y="-16" type="line"/>
      <point x="417" y="-16" type="line"/>
      <point x="148" y="626" type="line"/>
      <point x="144" y="626" type="line"/>
      <point x="136" y="634" type="line"/>
      <point x="136" y="645" type="line"/>
      <point x="123" y="675"/>
      <point x="112" y="682"/>
      <point x="80" y="682" type="curve" smooth="yes"/>
    </contour>
    <contour>
      <point x="144" y="678" type="line"/>
      <point x="144" y="61" type="line" smooth="yes"/>
      <point x="144" y="29"/>
      <point x="150" y="19"/>
      <point x="174" y="16" type="curve" smooth="yes"/>
      <point x="245" y="8" type="line"/>
      <point x="245" y="0" type="line"/>
      <point x="26" y="0" type="line"/>
      <point x="26" y="8" type="line"/>
      <point x="98" y="16" type="line" smooth="yes"/>
      <point x="122" y="19"/>
      <point x="128" y="29"/>
      <point x="128" y="61" type="curve" smooth="yes"/>
      <point x="128" y="678" type="line"/>
    </contour>
    <contour>
      <point x="836" y="690" type="line"/>
      <point x="836" y="682" type="line"/>
      <point x="749" y="674" type="line"/>
      <point x="749" y="16" type="line"/>
      <point x="836" y="8" type="line"/>
      <point x="836" y="0" type="line"/>
      <point x="590" y="0" type="line"/>
      <point x="590" y="8" type="line"/>
      <point x="672" y="16" type="line"/>
      <point x="672" y="652" type="line"/>
      <point x="679" y="690" type="line"/>
    </contour>
  </outline>
</glyph>
<glyph name="N" format="1">
  <advance width="734"/>
  <unicode hex="004E"/>
  <outline>
    <contour>
      <point x="43" y="682" type="line"/>
      <point x="43" y="690" type="line"/>
      <point x="192" y="690" type="line"/>
      <point x="586" y="138" type="line"/>
      <point x="606" y="138" type="line"/>
      <point x="606" y="-16" type="line"/>
      <point x="596" y="-16" type="line"/>
      <point x="147" y="621" type="line"/>
      <point x="138" y="621" type="line"/>
      <point x="133" y="635" type="line"/>
      <point x="123" y="649" type="line" smooth="yes"/>
      <point x="105" y="675"/>
      <point x="92" y="682"/>
      <point x="60" y="682" type="curve" smooth="yes"/>
    </contour>
    <contour>
      <point x="590" y="68" type="line"/>
      <point x="590" y="629" type="line" smooth="yes"/>
      <point x="590" y="661"/>
      <point x="584" y="672"/>
      <point x="560" y="674" type="curve" smooth="yes"/>
      <point x="479" y="682" type="line"/>
      <point x="479" y="690" type="line"/>
      <point x="718" y="690" type="line"/>
      <point x="718" y="682" type="line"/>
      <point x="646" y="674" type="line" smooth="yes"/>
      <point x="614" y="670"/>
      <point x="606" y="661"/>
      <point x="606" y="629" type="curve" smooth="yes"/>
      <point x="606" y="68" type="line"/>
    </contour>
    <contour>
      <point x="143" y="664" type="line"/>
      <point x="143" y="61" type="line" smooth="yes"/>
      <point x="143" y="29"/>
      <point x="149" y="19"/>
      <point x="173" y="16" type="curve" smooth="yes"/>
      <point x="244" y="8" type="line"/>
      <point x="244" y="0" type="line"/>
      <point x="25" y="0" type="line"/>
      <point x="25" y="8" type="line"/>
      <point x="97" y="16" type="line" smooth="yes"/>
      <point x="121" y="19"/>
      <point x="127" y="29"/>
      <point x="127" y="61" type="curve" smooth="yes"/>
      <point x="127" y="662" type="line"/>
    </contour>
    <contour>
      <point x="376" y="0" type="move" name="bottom"/>
    </contour>
    <contour>
      <point x="376" y="800" type="move" name="top"/>
    </contour>
  </outline>
</glyph>
<glyph name="O" format="1">
  <advance width="734"/>
  <unicode hex="004F"/>
  <outline>
    <contour>
      <point x="367" y="706" type="curve" smooth="yes"/>
      <point x="190" y="706"/>
      <point x="52" y="548"/>
      <point x="52" y="345" type="curve" smooth="yes"/>
      <point x="52" y="142"/>
      <point x="190" y="-16"/>
      <point x="367" y="-16" type="curve" smooth="yes"/>
      <point x="544" y="-16"/>
      <point x="682" y="142"/>
      <point x="682" y="345" type="curve" smooth="yes"/>
      <point x="682" y="548"/>
      <point x="544" y="706"/>
    </contour>
    <contour>
      <point x="148" y="345" type="curve" smooth="yes"/>
      <point x="148" y="568"/>
      <point x="227" y="694"/>
      <point x="367" y="694" type="curve" smooth="yes"/>
      <point x="507" y="694"/>
      <point x="586" y="568"/>
      <point x="586" y="345" type="curve" smooth="yes"/>
      <point x="586" y="123"/>
      <point x="507" y="-3"/>
      <point x="367" y="-3" type="curve" smooth="yes"/>
      <point x="227" y="-3"/>
      <point x="148" y="123"/>
    </contour>
    <contour>
      <point x="368" y="0" type="move" name="bottom"/>
    </contour>
    <contour>
      <point x="369" y="800" type="move" name="top"/>
    </contour>
  </outline>
</glyph>
<glyph name="P" format="1">
  <advance width="568"/>
  <unicode hex="0050"/>
  <outline>
    <contour>
      <point x="122" y="16" type="line"/>
      <point x="122" y="674" type="line"/>
      <point x="40" y="682" type="line"/>
      <point x="40" y="690" type="line"/>
      <point x="199" y="690" type="line"/>
      <point x="199" y="16" type="line"/>
      <point x="297" y="8" type="line"/>
      <point x="297" y="0" type="line"/>
      <point x="40" y="0" type="line"/>
      <point x="40" y="8" type="line"/>
    </contour>
    <contour>
      <point x="165" y="690" type="line"/>
      <point x="293" y="690" type="line" smooth="yes"/>
      <point x="450" y="690"/>
      <point x="535" y="620"/>
      <point x="535" y="499" type="curve" smooth="yes"/>
      <point x="535" y="369"/>
      <point x="450" y="300"/>
      <point x="293" y="300" type="curve" smooth="yes"/>
      <point x="165" y="300" type="line"/>
      <point x="165" y="312" type="line"/>
      <point x="290" y="312" type="line" smooth="yes"/>
      <point x="398" y="312"/>
      <point x="445" y="371"/>
      <point x="445" y="504" type="curve" smooth="yes"/>
      <point x="445" y="602"/>
      <point x="416" y="678"/>
      <point x="290" y="678" type="curve" smooth="yes"/>
      <point x="165" y="678" type="line"/>
    </contour>
  </outline>
</glyph>
<glyph name="Q" format="1">
  <advance width="734"/>
  <unicode hex="0051"/>
  <outline>
    <contour>
      <point x="367" y="706" type="curve" smooth="yes"/>
      <point x="544" y="706"/>
      <point x="682" y="548"/>
      <point x="682" y="345" type="curve" smooth="yes"/>
      <point x="682" y="142"/>
      <point x="544" y="-16"/>
      <point x="367" y="-16" type="curve" smooth="yes"/>
      <point x="190" y="-16"/>
      <point x="52" y="142"/>
      <point x="52" y="345" type="curve" smooth="yes"/>
      <point x="52" y="548"/>
      <point x="190" y="706"/>
    </contour>
    <contour>
      <point x="148" y="345" type="curve" smooth="yes"/>
      <point x="148" y="122"/>
      <point x="227" y="-4"/>
      <point x="367" y="-4" type="curve" smooth="yes"/>
      <point x="507" y="-4"/>
      <point x="586" y="122"/>
      <point x="586" y="345" type="curve" smooth="yes"/>
      <point x="586" y="568"/>
      <point x="507" y="694"/>
      <point x="367" y="694" type="curve" smooth="yes"/>
      <point x="227" y="694"/>
      <point x="148" y="568"/>
    </contour>
    <contour>
      <point x="403" y="-8" type="line"/>
      <point x="475" y="-33"/>
      <point x="545" y="-88"/>
      <point x="613" y="-88" type="curve" smooth="yes"/>
      <point x="659" y="-88"/>
      <point x="678" y="-62"/>
      <point x="692" y="-30" type="curve" smooth="yes"/>
      <point x="702" y="-36" type="line" smooth="yes"/>
      <point x="675" y="-98"/>
      <point x="614" y="-149"/>
      <point x="547" y="-149" type="curve" smooth="yes"/>
      <point x="495" y="-149"/>
      <point x="455" y="-119"/>
      <point x="429" y="-85" type="curve" smooth="yes"/>
      <point x="402" y="-50"/>
      <point x="368" y="-16"/>
      <point x="327" y="-16" type="curve" smooth="yes"/>
      <point x="301" y="-16"/>
      <point x="265" y="-30"/>
      <point x="265" y="-55" type="curve" smooth="yes"/>
      <point x="265" y="-70"/>
      <point x="278" y="-88"/>
      <point x="278" y="-108" type="curve" smooth="yes"/>
      <point x="278" y="-131"/>
      <point x="260" y="-150"/>
      <point x="236" y="-150" type="curve" smooth="yes"/>
      <point x="213" y="-150"/>
      <point x="197" y="-132"/>
      <point x="197" y="-106" type="curve" smooth="yes"/>
      <point x="197" y="-62"/>
      <point x="243" y="-29"/>
      <point x="299" y="-8" type="curve"/>
    </contour>
  </outline>
</glyph>
<glyph name="R" format="1">
  <advance width="614"/>
  <unicode hex="0052"/>
  <outline>
    <contour>
      <point x="178" y="328" type="line"/>
      <point x="388" y="328" type="line"/>
      <point x="571" y="42" type="line" smooth="yes"/>
      <point x="588" y="15"/>
      <point x="601" y="8"/>
      <point x="633" y="8" type="curve" smooth="yes"/>
      <point x="647" y="8" type="line"/>
      <point x="647" y="0" type="line"/>
      <point x="544" y="0" type="line" smooth="yes"/>
      <point x="512" y="0"/>
      <point x="500" y="7"/>
      <point x="483" y="34" type="curve" smooth="yes"/>
      <point x="330" y="281" type="line" smooth="yes"/>
      <point x="311" y="311"/>
      <point x="306" y="315"/>
      <point x="273" y="315" type="curve" smooth="yes"/>
      <point x="178" y="315" type="line"/>
    </contour>
    <contour>
      <point x="122" y="16" type="line"/>
      <point x="122" y="674" type="line"/>
      <point x="40" y="682" type="line"/>
      <point x="40" y="690" type="line"/>
      <point x="199" y="690" type="line"/>
      <point x="199" y="16" type="line"/>
      <point x="286" y="8" type="line"/>
      <point x="286" y="0" type="line"/>
      <point x="40" y="0" type="line"/>
      <point x="40" y="8" type="line"/>
    </contour>
    <contour>
      <point x="165" y="690" type="line"/>
      <point x="293" y="690" type="line" smooth="yes"/>
      <point x="450" y="690"/>
      <point x="535" y="625"/>
      <point x="535" y="505" type="curve" smooth="yes"/>
      <point x="535" y="385"/>
      <point x="449" y="318"/>
      <point x="293" y="318" type="curve" smooth="yes"/>
      <point x="165" y="318" type="line"/>
      <point x="165" y="330" type="line"/>
      <point x="290" y="330" type="line" smooth="yes"/>
      <point x="397" y="330"/>
      <point x="447" y="386"/>
      <point x="447" y="503" type="curve" smooth="yes"/>
      <point x="447" y="621"/>
      <point x="396" y="678"/>
      <point x="290" y="678" type="curve" smooth="yes"/>
      <point x="165" y="678" type="line"/>
    </contour>
    <contour>
      <point x="326" y="0" type="move" name="bottom"/>
    </contour>
    <contour>
      <point x="323" y="800" type="move" name="top"/>
    </contour>
  </outline>
</glyph>
<glyph name="S" format="1">
  <advance width="551"/>
  <unicode hex="0053"/>
  <outline>
    <contour>
      <point x="276" y="-16" type="curve" smooth="yes"/>
      <point x="214" y="-16"/>
      <point x="152" y="4"/>
      <point x="110" y="39" type="curve"/>
      <point x="89" y="-16" type="line"/>
      <point x="76" y="-16" type="line"/>
      <point x="63" y="223" type="line"/>
      <point x="72" y="225" type="line"/>
      <point x="92" y="135"/>
      <point x="110" y="90"/>
      <point x="143" y="53" type="curve" smooth="yes"/>
      <point x="177" y="15"/>
      <point x="221" y="-4"/>
      <point x="278" y="-4" type="curve" smooth="yes"/>
      <point x="375" y="-4"/>
      <point x="431" y="50"/>
      <point x="431" y="135" type="curve" smooth="yes"/>
      <point x="431" y="230"/>
      <point x="359" y="266"/>
      <point x="247" y="315" type="curve" smooth="yes"/>
      <point x="159" y="353"/>
      <point x="69" y="400"/>
      <point x="69" y="515" type="curve" smooth="yes"/>
      <point x="69" y="626"/>
      <point x="155" y="706"/>
      <point x="274" y="706" type="curve" smooth="yes"/>
      <point x="328" y="706"/>
      <point x="372" y="689"/>
      <point x="427" y="646" type="curve"/>
      <point x="451" y="694" type="line"/>
      <point x="464" y="694" type="line"/>
      <point x="474" y="476" type="line"/>
      <point x="464" y="473" type="line"/>
      <point x="452" y="522"/>
      <point x="437" y="562"/>
      <point x="423" y="591" type="curve" smooth="yes"/>
      <point x="392" y="655"/>
      <point x="342" y="694"/>
      <point x="270" y="694" type="curve" smooth="yes"/>
      <point x="187" y="694"/>
      <point x="134" y="643"/>
      <point x="134" y="562" type="curve" smooth="yes"/>
      <point x="134" y="471"/>
      <point x="201" y="435"/>
      <point x="315" y="383" type="curve" smooth="yes"/>
      <point x="414" y="338"/>
      <point x="493" y="295"/>
      <point x="493" y="185" type="curve" smooth="yes"/>
      <point x="493" y="68"/>
      <point x="402" y="-16"/>
    </contour>
    <contour>
      <point x="276" y="0" type="move" name="bottom"/>
    </contour>
    <contour>
      <point x="278" y="800" type="move" name="top"/>
    </contour>
  </outline>
</glyph>
<glyph name="T" format="1">
  <advance width="665"/>
  <unicode hex="0054"/>
  <outline>
    <contour>
      <point x="157" y="679" type="line" smooth="yes"/>
      <point x="125" y="679"/>
      <point x="114" y="671"/>
      <point x="101" y="641" type="curve" smooth="yes"/>
      <point x="32" y="487" type="line"/>
      <point x="24" y="489" type="line"/>
      <point x="63" y="706" type="line"/>
      <point x="69" y="706" type="line"/>
      <point x="99" y="693"/>
      <point x="114" y="690"/>
      <point x="146" y="690" type="curve" smooth="yes"/>
      <point x="531" y="690" type="line" smooth="yes"/>
      <point x="563" y="690"/>
      <point x="578" y="693"/>
      <point x="608" y="706" type="curve"/>
      <point x="614" y="706" type="line"/>
      <point x="636" y="489" type="line"/>
      <point x="628" y="487" type="line"/>
      <point x="566" y="641" type="line" smooth="yes"/>
      <point x="554" y="671"/>
      <point x="544" y="679"/>
      <point x="512" y="679" type="curve" smooth="yes"/>
      <point x="366" y="679" type="line"/>
      <point x="366" y="16" type="line"/>
      <point x="474" y="8" type="line"/>
      <point x="474" y="0" type="line"/>
      <point x="181" y="0" type="line"/>
      <point x="181" y="8" type="line"/>
      <point x="289" y="16" type="line"/>
      <point x="289" y="679" type="line"/>
    </contour>
    <contour>
      <point x="328" y="0" type="move" name="bottom"/>
    </contour>
    <contour>
      <point x="326" y="800" type="move" name="top"/>
    </contour>
  </outline>
</glyph>
<glyph name="U" format="1">
  <advance width="665"/>
  <unicode hex="0055"/>
  <outline>
    <contour>
      <point x="536" y="240" type="line"/>
      <point x="536" y="159"/>
      <point x="526" y="114"/>
      <point x="501" y="77" type="curve" smooth="yes"/>
      <point x="467" y="28"/>
      <point x="409" y="0"/>
      <point x="342" y="0" type="curve" smooth="yes"/>
      <point x="306" y="0"/>
      <point x="271" y="8"/>
      <point x="248" y="22" type="curve" smooth="yes"/>
      <point x="206" y="47"/>
      <point x="189" y="95"/>
      <point x="189" y="192" type="curve" smooth="yes"/>
      <point x="189" y="674" type="line"/>
      <point x="276" y="682" type="line"/>
      <point x="276" y="690" type="line"/>
      <point x="30" y="690" type="line"/>
      <point x="30" y="682" type="line"/>
      <point x="112" y="674" type="line"/>
      <point x="112" y="225" type="line" smooth="yes"/>
      <point x="112" y="126"/>
      <point x="128" y="76"/>
      <point x="169" y="40" type="curve" smooth="yes"/>
      <point x="209" y="5"/>
      <point x="274" y="-16"/>
      <point x="335" y="-16" type="curve" smooth="yes"/>
      <point x="411" y="-16"/>
      <point x="477" y="16"/>
      <point x="513" y="68" type="curve" smooth="yes"/>
      <point x="540" y="108"/>
      <point x="552" y="161"/>
      <point x="552" y="245" type="curve" smooth="yes"/>
      <point x="552" y="629" type="line" smooth="yes"/>
      <point x="552" y="661"/>
      <point x="558" y="670"/>
      <point x="582" y="674" type="curve" smooth="yes"/>
      <point x="654" y="682" type="line"/>
      <point x="654" y="690" type="line"/>
      <point x="435" y="690" type="line"/>
      <point x="435" y="682" type="line"/>
      <point x="506" y="674" type="line" smooth="yes"/>
      <point x="530" y="670"/>
      <point x="536" y="661"/>
      <point x="536" y="629" type="curve" smooth="yes"/>
    </contour>
    <contour>
      <point x="342" y="800" type="move" name="top"/>
    </contour>
  </outline>
</glyph>
<glyph name="V" format="1">
  <advance width="658"/>
  <unicode hex="0056"/>
  <outline>
    <contour>
      <point x="480" y="682" type="line"/>
      <point x="480" y="690" type="line"/>
      <point x="693" y="690" type="line"/>
      <point x="693" y="682" type="line"/>
      <point x="637" y="677" type="line" smooth="yes"/>
      <point x="603" y="674"/>
      <point x="594" y="667"/>
      <point x="583" y="637" type="curve" smooth="yes"/>
      <point x="338" y="-16" type="line"/>
      <point x="320" y="-16" type="line"/>
      <point x="67" y="674" type="line"/>
      <point x="-15" y="682" type="line"/>
      <point x="-15" y="690" type="line"/>
      <point x="235" y="690" type="line"/>
      <point x="235" y="682" type="line"/>
      <point x="148" y="674" type="line"/>
      <point x="360" y="95" type="line"/>
      <point x="364" y="95" type="line"/>
      <point x="567" y="637" type="line" smooth="yes"/>
      <point x="571" y="647"/>
      <point x="571" y="651"/>
      <point x="571" y="656" type="curve" smooth="yes"/>
      <point x="571" y="669"/>
      <point x="563" y="675"/>
      <point x="541" y="677" type="curve" smooth="yes"/>
    </contour>
  </outline>
</glyph>
<glyph name="W" format="1">
  <advance width="945"/>
  <unicode hex="0057"/>
  <outline>
    <contour>
      <point x="496" y="565" type="line"/>
      <point x="319" y="-16" type="line"/>
      <point x="303" y="-16" type="line"/>
      <point x="60" y="674" type="line"/>
      <point x="-22" y="682" type="line"/>
      <point x="-22" y="690" type="line"/>
      <point x="228" y="690" type="line"/>
      <point x="228" y="682" type="line"/>
      <point x="141" y="674" type="line"/>
      <point x="338" y="112" type="line"/>
      <point x="342" y="112" type="line"/>
      <point x="480" y="565" type="line"/>
    </contour>
    <contour>
      <point x="758" y="682" type="line"/>
      <point x="758" y="690" type="line"/>
      <point x="971" y="690" type="line"/>
      <point x="971" y="682" type="line"/>
      <point x="915" y="677" type="line" smooth="yes"/>
      <point x="879" y="674"/>
      <point x="870" y="667"/>
      <point x="861" y="637" type="curve" smooth="yes"/>
      <point x="662" y="-16" type="line"/>
      <point x="646" y="-16" type="line"/>
      <point x="403" y="674" type="line"/>
      <point x="321" y="682" type="line"/>
      <point x="321" y="690" type="line"/>
      <point x="571" y="690" type="line"/>
      <point x="571" y="682" type="line"/>
      <point x="484" y="674" type="line"/>
      <point x="681" y="112" type="line"/>
      <point x="685" y="112" type="line"/>
      <point x="845" y="637" type="line" smooth="yes"/>
      <point x="847" y="644"/>
      <point x="848" y="650"/>
      <point x="848" y="656" type="curve" smooth="yes"/>
      <point x="848" y="670"/>
      <point x="842" y="675"/>
      <point x="819" y="677" type="curve" smooth="yes"/>
    </contour>
    <contour>
      <point x="457" y="800" type="move" name="top"/>
    </contour>
  </outline>
</glyph>
<glyph name="X" format="1">
  <advance width="715"/>
  <unicode hex="0058"/>
  <outline>
    <contour>
      <point x="93" y="674" type="line"/>
      <point x="11" y="682" type="line"/>
      <point x="11" y="690" type="line"/>
      <point x="266" y="690" type="line"/>
      <point x="266" y="682" type="line"/>
      <point x="179" y="674" type="line"/>
      <point x="632" y="16" type="line"/>
      <point x="714" y="8" type="line"/>
      <point x="714" y="0" type="line"/>
      <point x="459" y="0" type="line"/>
      <point x="459" y="8" type="line"/>
      <point x="546" y="16" type="line"/>
    </contour>
    <contour>
      <point x="205" y="8" type="line"/>
      <point x="205" y="0" type="line"/>
      <point x="1" y="0" type="line"/>
      <point x="1" y="8" type="line"/>
      <point x="52" y="12" type="line" smooth="yes"/>
      <point x="84" y="15"/>
      <point x="97" y="22"/>
      <point x="116" y="48" type="curve" smooth="yes"/>
      <point x="332" y="340" type="line"/>
      <point x="348" y="340" type="line"/>
      <point x="132" y="48" type="line" smooth="yes"/>
      <point x="124" y="37"/>
      <point x="120" y="30"/>
      <point x="120" y="25" type="curve" smooth="yes"/>
      <point x="120" y="18"/>
      <point x="129" y="15"/>
      <point x="148" y="13" type="curve"/>
    </contour>
    <contour>
      <point x="500" y="682" type="line"/>
      <point x="500" y="690" type="line"/>
      <point x="704" y="690" type="line"/>
      <point x="704" y="682" type="line"/>
      <point x="653" y="678" type="line" smooth="yes"/>
      <point x="621" y="675"/>
      <point x="608" y="668"/>
      <point x="589" y="642" type="curve" smooth="yes"/>
      <point x="373" y="350" type="line"/>
      <point x="357" y="350" type="line"/>
      <point x="573" y="642" type="line" smooth="yes"/>
      <point x="581" y="653"/>
      <point x="585" y="660"/>
      <point x="585" y="665" type="curve" smooth="yes"/>
      <point x="585" y="672"/>
      <point x="576" y="675"/>
      <point x="557" y="677" type="curve"/>
    </contour>
  </outline>
</glyph>
<glyph name="Y" format="1">
  <advance width="612"/>
  <unicode hex="0059"/>
  <outline>
    <contour>
      <point x="421" y="682" type="line"/>
      <point x="421" y="690" type="line"/>
      <point x="634" y="690" type="line"/>
      <point x="634" y="682" type="line"/>
      <point x="578" y="677" type="line" smooth="yes"/>
      <point x="544" y="674"/>
      <point x="538" y="666"/>
      <point x="524" y="637" type="curve" smooth="yes"/>
      <point x="321" y="213" type="line"/>
      <point x="303" y="213" type="line"/>
      <point x="56" y="674" type="line"/>
      <point x="-26" y="682" type="line"/>
      <point x="-26" y="690" type="line"/>
      <point x="223" y="690" type="line"/>
      <point x="223" y="682" type="line"/>
      <point x="136" y="674" type="line"/>
      <point x="339" y="295" type="line"/>
      <point x="344" y="295" type="line"/>
      <point x="508" y="637" type="line" smooth="yes"/>
      <point x="512" y="646"/>
      <point x="512" y="651"/>
      <point x="512" y="656" type="curve" smooth="yes"/>
      <point x="512" y="669"/>
      <point x="504" y="675"/>
      <point x="482" y="677" type="curve" smooth="yes"/>
    </contour>
    <contour>
      <point x="350" y="280" type="line"/>
      <point x="350" y="16" type="line"/>
      <point x="437" y="8" type="line"/>
      <point x="437" y="0" type="line"/>
      <point x="186" y="0" type="line"/>
      <point x="186" y="8" type="line"/>
      <point x="273" y="16" type="line"/>
      <point x="273" y="280" type="line"/>
    </contour>
    <contour>
      <point x="313" y="800" type="move" name="top"/>
    </contour>
  </outline>
</glyph>
<glyph name="Z" format="1">
  <advance width="587"/>
  <unicode hex="005A"/>
  <outline>
    <contour>
      <point x="444" y="678" type="line"/>
      <point x="203" y="678" type="line" smooth="yes"/>
      <point x="171" y="678"/>
      <point x="159" y="671"/>
      <point x="145" y="642" type="curve" smooth="yes"/>
      <point x="69" y="491" type="line"/>
      <point x="55" y="493" type="line"/>
      <point x="96" y="690" type="line"/>
      <point x="534" y="690" type="line"/>
      <point x="534" y="682" type="line"/>
      <point x="125" y="16" type="line"/>
      <point x="125" y="12" type="line"/>
      <point x="399" y="12" type="line" smooth="yes"/>
      <point x="431" y="12"/>
      <point x="442" y="19"/>
      <point x="455" y="49" type="curve" smooth="yes"/>
      <point x="527" y="217" type="line"/>
      <point x="541" y="215" type="line"/>
      <point x="504" y="0" type="line"/>
      <point x="35" y="0" type="line"/>
      <point x="35" y="8" type="line"/>
      <point x="444" y="674" type="line"/>
    </contour>
    <contour>
      <point x="291" y="0" type="move" name="bottom"/>
    </contour>
    <contour>
      <point x="307" y="800" type="move" name="top"/>
    </contour>
  </outline>
</glyph>
<glyph name="bracketleft" format="1">
  <advance width="306"/>
  <unicode hex="005B"/>
  <outline>
    <contour>
      <point x="92" y="-167" type="line"/>
      <point x="92" y="734" type="line"/>
      <point x="281" y="734" type="line"/>
      <point x="281" y="718" type="line"/>
      <point x="158" y="718" type="line"/>
      <point x="158" y="-151" type="line"/>
      <point x="281" y="-151" type="line"/>
      <point x="281" y="-167" type="line"/>
    </contour>
  </outline>
</glyph>
<glyph name="backslash" format="1">
  <advance width="325"/>
  <unicode hex="005C"/>
  <outline>
    <contour>
      <point x="69" y="690" type="line"/>
      <point x="279" y="0" type="line"/>
      <point x="256" y="0" type="line"/>
      <point x="46" y="690" type="line"/>
    </contour>
  </outline>
</glyph>
<glyph name="bracketright" format="1">
  <advance width="306"/>
  <unicode hex="005D"/>
  <outline>
    <contour>
      <point x="25" y="-167" type="line"/>
      <point x="25" y="-151" type="line"/>
      <point x="148" y="-151" type="line"/>
      <point x="148" y="718" type="line"/>
      <point x="25" y="718" type="line"/>
      <point x="25" y="734" type="line"/>
      <point x="214" y="734" type="line"/>
      <point x="214" y="-167" type="line"/>
    </contour>
  </outline>
</glyph>
<glyph name="asciicircum" format="1">
  <advance width="364"/>
  <unicode hex="005E"/>
  <outline>
    <contour>
      <point x="213" y="375" type="line" smooth="yes"/>
      <point x="207" y="387"/>
      <point x="199" y="396"/>
      <point x="182" y="396" type="curve" smooth="yes"/>
      <point x="167" y="396"/>
      <point x="157" y="389"/>
      <point x="151" y="375" type="curve" smooth="yes"/>
      <point x="66" y="189" type="line"/>
      <point x="69" y="188" type="line"/>
      <point x="182" y="334" type="line"/>
      <point x="295" y="188" type="line"/>
      <point x="298" y="189" type="line"/>
    </contour>
  </outline>
</glyph>
<glyph name="underscore" format="1">
  <advance width="396"/>
  <unicode hex="005F"/>
  <outline>
    <contour>
      <point x="59" y="-15" type="line"/>
      <point x="339" y="-15" type="line"/>
      <point x="332" y="-37" type="line"/>
      <point x="52" y="-37" type="line"/>
    </contour>
  </outline>
</glyph>
<glyph name="grave" format="1">
  <advance width="194"/>
  <unicode hex="0060"/>
  <outline>
    <contour>
      <point x="104" y="670" type="line"/>
      <point x="99" y="685"/>
      <point x="88" y="691"/>
      <point x="73" y="691" type="curve" smooth="yes"/>
      <point x="55" y="691"/>
      <point x="45" y="677"/>
      <point x="45" y="660" type="curve" smooth="yes"/>
      <point x="45" y="647"/>
      <point x="55" y="638"/>
      <point x="81" y="605" type="curve" smooth="yes"/>
      <point x="146" y="523" type="line"/>
      <point x="149" y="524" type="line"/>
    </contour>
    <contour>
      <point x="97" y="530" type="move" name="_top"/>
    </contour>
  </outline>
</glyph>
<glyph name="a" format="1">
  <advance width="391"/>
  <unicode hex="0061"/>
  <outline>
    <contour>
      <point x="130" y="-7" type="curve" smooth="yes"/>
      <point x="171" y="-7"/>
      <point x="214" y="17"/>
      <point x="244" y="55" type="curve"/>
      <point x="247" y="54" type="line"/>
      <point x="249" y="20"/>
      <point x="274" y="-3"/>
      <point x="309" y="-3" type="curve" name="hr01" smooth="yes"/>
      <point x="340" y="-3"/>
      <point x="368" y="16"/>
      <point x="384" y="49" type="curve"/>
      <point x="380" y="51" type="line"/>
      <point x="372" y="39"/>
      <point x="357" y="32"/>
      <point x="340" y="32" type="curve" smooth="yes"/>
      <point x="316" y="32"/>
      <point x="308" y="47"/>
      <point x="308" y="95" type="curve" smooth="yes"/>
      <point x="308" y="286" type="line" smooth="yes"/>
      <point x="308" y="358"/>
      <point x="307" y="373"/>
      <point x="300" y="391" type="curve" smooth="yes"/>
      <point x="288" y="418"/>
      <point x="261" y="433"/>
      <point x="224" y="433" type="curve" smooth="yes"/>
      <point x="194" y="433"/>
      <point x="160" y="424"/>
      <point x="131" y="408" type="curve" smooth="yes"/>
      <point x="82" y="382"/>
      <point x="47" y="340"/>
      <point x="47" y="308" type="curve" smooth="yes"/>
      <point x="47" y="287"/>
      <point x="61" y="272"/>
      <point x="81" y="272" type="curve" smooth="yes"/>
      <point x="103" y="272"/>
      <point x="117" y="292"/>
      <point x="117" y="326" type="curve" smooth="yes"/>
      <point x="117" y="335"/>
      <point x="116" y="346"/>
      <point x="116" y="353" type="curve" smooth="yes"/>
      <point x="116" y="390"/>
      <point x="144" y="414"/>
      <point x="185" y="414" type="curve" smooth="yes"/>
      <point x="228" y="414"/>
      <point x="243" y="388"/>
      <point x="243" y="311" type="curve" smooth="yes"/>
      <point x="243" y="220" type="line"/>
      <point x="97" y="191"/>
      <point x="43" y="155"/>
      <point x="43" y="88" type="curve" smooth="yes"/>
      <point x="43" y="32"/>
      <point x="79" y="-7"/>
    </contour>
    <contour>
      <point x="173" y="31" type="curve" smooth="yes"/>
      <point x="134" y="31"/>
      <point x="110" y="60"/>
      <point x="110" y="107" type="curve" smooth="yes"/>
      <point x="110" y="161"/>
      <point x="141" y="184"/>
      <point x="243" y="209" type="curve"/>
      <point x="243" y="68" type="line"/>
      <point x="227" y="44"/>
      <point x="200" y="31"/>
    </contour>
    <contour>
      <point x="309" y="0" type="move" name="bottom"/>
    </contour>
    <contour>
      <point x="190" y="530" type="move" name="top"/>
    </contour>
  </outline>
</glyph>
<glyph name="b" format="1">
  <advance width="467"/>
  <unicode hex="0062"/>
  <outline>
    <contour>
      <point x="226" y="-10" type="curve" name="hr00" smooth="yes"/>
      <point x="185" y="-10"/>
      <point x="146" y="3"/>
      <point x="114" y="27" type="curve"/>
      <point x="110" y="27" type="line"/>
      <point x="80" y="0" type="line"/>
      <point x="72" y="0" type="line"/>
      <point x="72" y="653" type="line"/>
      <point x="13" y="675" type="line"/>
      <point x="13" y="682" type="line"/>
      <point x="129" y="721" type="line"/>
      <point x="137" y="721" type="line"/>
      <point x="137" y="377" type="line"/>
      <point x="172" y="415"/>
      <point x="213" y="434"/>
      <point x="260" y="434" type="curve" smooth="yes"/>
      <point x="360" y="434"/>
      <point x="427" y="351"/>
      <point x="427" y="228" type="curve" smooth="yes"/>
      <point x="427" y="91"/>
      <point x="342" y="-10"/>
    </contour>
    <contour>
      <point x="225" y="0" type="curve" smooth="yes"/>
      <point x="302" y="0"/>
      <point x="352" y="82"/>
      <point x="352" y="207" type="curve" smooth="yes"/>
      <point x="352" y="329"/>
      <point x="304" y="404"/>
      <point x="226" y="404" type="curve" smooth="yes"/>
      <point x="190" y="404"/>
      <point x="157" y="388"/>
      <point x="137" y="362" type="curve"/>
      <point x="137" y="101" type="line" smooth="yes"/>
      <point x="137" y="40"/>
      <point x="172" y="0"/>
    </contour>
  </outline>
</glyph>
<glyph name="c" format="1">
  <advance width="406"/>
  <unicode hex="0063"/>
  <outline>
    <contour>
      <point x="238" y="434" type="curve" name="hr00" smooth="yes"/>
      <point x="312" y="434"/>
      <point x="371" y="396"/>
      <point x="371" y="347" type="curve" smooth="yes"/>
      <point x="371" y="324"/>
      <point x="357" y="309"/>
      <point x="334" y="309" type="curve" smooth="yes"/>
      <point x="270" y="309"/>
      <point x="318" y="424"/>
      <point x="234" y="424" type="curve" smooth="yes"/>
      <point x="161" y="424"/>
      <point x="107" y="339"/>
      <point x="107" y="222" type="curve" smooth="yes"/>
      <point x="107" y="106"/>
      <point x="159" y="39"/>
      <point x="249" y="39" type="curve" smooth="yes"/>
      <point x="299" y="39"/>
      <point x="337" y="59"/>
      <point x="370" y="102" type="curve" smooth="yes"/>
      <point x="379" y="114" type="line"/>
      <point x="383" y="112" type="line"/>
      <point x="379" y="101" type="line" smooth="yes"/>
      <point x="353" y="31"/>
      <point x="296" y="-10"/>
      <point x="223" y="-10" type="curve" smooth="yes"/>
      <point x="116" y="-10"/>
      <point x="40" y="80"/>
      <point x="40" y="207" type="curve" smooth="yes"/>
      <point x="40" y="339"/>
      <point x="122" y="434"/>
    </contour>
    <contour>
      <point x="224" y="0" type="move" name="bottom"/>
    </contour>
    <contour>
      <point x="231" y="530" type="move" name="top"/>
    </contour>
  </outline>
</glyph>
<glyph name="d" format="1">
  <advance width="472"/>
  <unicode hex="0064"/>
  <outline>
    <contour>
      <point x="206" y="-10" type="curve" name="hr00" smooth="yes"/>
      <point x="111" y="-10"/>
      <point x="40" y="81"/>
      <point x="40" y="204" type="curve" smooth="yes"/>
      <point x="40" y="340"/>
      <point x="126" y="434"/>
      <point x="252" y="434" type="curve" smooth="yes"/>
      <point x="278" y="434"/>
      <point x="304" y="430"/>
      <point x="330" y="422" type="curve"/>
      <point x="330" y="653" type="line"/>
      <point x="271" y="675" type="line"/>
      <point x="271" y="682" type="line"/>
      <point x="387" y="721" type="line"/>
      <point x="395" y="721" type="line"/>
      <point x="395" y="62" type="line"/>
      <point x="450" y="50" type="line"/>
      <point x="450" y="45" type="line"/>
      <point x="341" y="-5" type="line"/>
      <point x="335" y="-5" type="line"/>
      <point x="335" y="63" type="line"/>
      <point x="332" y="64" type="line"/>
      <point x="301" y="16"/>
      <point x="257" y="-10"/>
    </contour>
    <contour>
      <point x="241" y="30" type="curve" smooth="yes"/>
      <point x="279" y="30"/>
      <point x="313" y="47"/>
      <point x="330" y="77" type="curve"/>
      <point x="330" y="333" type="line" smooth="yes"/>
      <point x="330" y="392"/>
      <point x="302" y="424"/>
      <point x="251" y="424" type="curve" smooth="yes"/>
      <point x="166" y="424"/>
      <point x="111" y="341"/>
      <point x="111" y="218" type="curve" smooth="yes"/>
      <point x="111" y="102"/>
      <point x="159" y="30"/>
    </contour>
    <contour>
      <point x="206" y="0" type="move" name="bottom"/>
    </contour>
  </outline>
</glyph>
<glyph name="e" format="1">
  <advance width="423"/>
  <unicode hex="0065"/>
  <outline>
    <contour>
      <point x="387" y="272" type="line" name="hr00"/>
      <point x="385" y="378"/>
      <point x="334" y="434"/>
      <point x="241" y="434" type="curve" smooth="yes"/>
      <point x="121" y="434"/>
      <point x="40" y="343"/>
      <point x="40" y="211" type="curve" smooth="yes"/>
      <point x="40" y="80"/>
      <point x="115" y="-10"/>
      <point x="225" y="-10" type="curve" smooth="yes"/>
      <point x="298" y="-10"/>
      <point x="353" y="30"/>
      <point x="379" y="101" type="curve" smooth="yes"/>
      <point x="383" y="112" type="line"/>
      <point x="379" y="114" type="line"/>
      <point x="370" y="102" type="line" smooth="yes"/>
      <point x="337" y="60"/>
      <point x="293" y="40"/>
      <point x="249" y="40" type="curve" smooth="yes"/>
      <point x="162" y="40"/>
      <point x="109" y="102"/>
      <point x="109" y="226" type="curve" smooth="yes"/>
      <point x="109" y="342"/>
      <point x="155" y="423"/>
      <point x="230" y="423" type="curve" smooth="yes"/>
      <point x="276" y="423"/>
      <point x="309" y="401"/>
      <point x="309" y="325" type="curve" smooth="yes"/>
      <point x="309" y="310"/>
      <point x="308" y="293"/>
      <point x="306" y="285" type="curve"/>
      <point x="103" y="278" type="line"/>
      <point x="103" y="267" type="line"/>
      <point x="381" y="267" type="line"/>
    </contour>
    <contour>
      <point x="226" y="0" type="move" name="bottom"/>
    </contour>
    <contour>
      <point x="232" y="530" type="move" name="top"/>
    </contour>
  </outline>
</glyph>
<glyph name="f" format="1">
  <advance width="263"/>
  <unicode hex="0066"/>
  <outline>
    <contour>
      <point x="150" y="18" type="line" name="hr00"/>
      <point x="237" y="8" type="line"/>
      <point x="237" y="0" type="line"/>
      <point x="24" y="0" type="line"/>
      <point x="24" y="8" type="line"/>
      <point x="85" y="16" type="line"/>
      <point x="85" y="482" type="line" smooth="yes"/>
      <point x="85" y="578"/>
      <point x="87" y="606"/>
      <point x="97" y="632" type="curve" smooth="yes"/>
      <point x="120" y="691"/>
      <point x="182" y="733"/>
      <point x="247" y="733" type="curve" smooth="yes"/>
      <point x="299" y="733"/>
      <point x="344" y="706"/>
      <point x="344" y="674" type="curve" smooth="yes"/>
      <point x="344" y="654"/>
      <point x="327" y="638"/>
      <point x="307" y="638" type="curve" smooth="yes"/>
      <point x="285" y="638"/>
      <point x="273" y="651"/>
      <point x="268" y="679" type="curve" smooth="yes"/>
      <point x="260" y="712"/>
      <point x="252" y="720"/>
      <point x="230" y="720" type="curve" smooth="yes"/>
      <point x="201" y="720"/>
      <point x="178" y="702"/>
      <point x="164" y="668" type="curve" smooth="yes"/>
      <point x="153" y="640"/>
      <point x="150" y="610"/>
      <point x="150" y="537" type="curve" smooth="yes"/>
    </contour>
    <contour>
      <point x="23" y="424" type="line"/>
      <point x="243" y="424" type="line"/>
      <point x="238" y="408" type="line"/>
      <point x="18" y="408" type="line"/>
    </contour>
  </outline>
</glyph>
<glyph name="g" format="1">
  <advance width="403"/>
  <unicode hex="0067"/>
  <outline>
    <contour>
      <point x="204" y="142" type="curve" smooth="yes"/>
      <point x="297" y="142"/>
      <point x="363" y="203"/>
      <point x="363" y="288" type="curve" smooth="yes"/>
      <point x="363" y="373"/>
      <point x="297" y="434"/>
      <point x="204" y="434" type="curve" smooth="yes"/>
      <point x="111" y="434"/>
      <point x="45" y="374"/>
      <point x="45" y="289" type="curve" smooth="yes"/>
      <point x="45" y="203"/>
      <point x="111" y="142"/>
    </contour>
    <contour>
      <point x="204" y="152" type="curve" smooth="yes"/>
      <point x="154" y="152"/>
      <point x="119" y="208"/>
      <point x="119" y="288" type="curve" smooth="yes"/>
      <point x="119" y="368"/>
      <point x="154" y="424"/>
      <point x="204" y="424" type="curve" smooth="yes"/>
      <point x="254" y="424"/>
      <point x="289" y="368"/>
      <point x="289" y="288" type="curve" smooth="yes"/>
      <point x="289" y="208"/>
      <point x="254" y="152"/>
    </contour>
    <contour>
      <point x="308" y="393" type="line"/>
      <point x="314" y="426"/>
      <point x="323" y="441"/>
      <point x="338" y="441" type="curve" name="hr01" smooth="yes"/>
      <point x="355" y="441"/>
      <point x="365" y="421"/>
      <point x="385" y="421" type="curve" smooth="yes"/>
      <point x="404" y="421"/>
      <point x="419" y="436"/>
      <point x="419" y="455" type="curve" smooth="yes"/>
      <point x="419" y="478"/>
      <point x="403" y="493"/>
      <point x="378" y="493" type="curve" smooth="yes"/>
      <point x="342" y="493"/>
      <point x="315" y="461"/>
      <point x="299" y="400" type="curve"/>
    </contour>
    <contour>
      <point x="185" y="-246" type="curve" smooth="yes"/>
      <point x="300" y="-246"/>
      <point x="386" y="-185"/>
      <point x="386" y="-104" type="curve" name="hr02" smooth="yes"/>
      <point x="386" y="-34"/>
      <point x="343" y="2"/>
      <point x="229" y="23" type="curve" smooth="yes"/>
      <point x="128" y="42"/>
      <point x="111" y="55"/>
      <point x="111" y="82" type="curve" smooth="yes"/>
      <point x="111" y="112"/>
      <point x="159" y="136"/>
      <point x="244" y="146" type="curve"/>
      <point x="199" y="146" type="line"/>
      <point x="104" y="128"/>
      <point x="54" y="94"/>
      <point x="54" y="55" type="curve" smooth="yes"/>
      <point x="54" y="13"/>
      <point x="87" y="-18"/>
      <point x="199" y="-40" type="curve" smooth="yes"/>
      <point x="301" y="-60"/>
      <point x="328" y="-84"/>
      <point x="328" y="-134" type="curve" smooth="yes"/>
      <point x="328" y="-196"/>
      <point x="275" y="-236"/>
      <point x="191" y="-236" type="curve" smooth="yes"/>
      <point x="107" y="-236"/>
      <point x="59" y="-196"/>
      <point x="59" y="-125" type="curve" smooth="yes"/>
      <point x="59" y="-70"/>
      <point x="85" y="-35"/>
      <point x="139" y="-19" type="curve"/>
      <point x="139" y="-13" type="line"/>
      <point x="61" y="-32"/>
      <point x="11" y="-80"/>
      <point x="11" y="-134" type="curve" smooth="yes"/>
      <point x="11" y="-205"/>
      <point x="75" y="-246"/>
    </contour>
    <contour>
      <point x="204" y="530" type="move" name="top"/>
    </contour>
  </outline>
</glyph>
<glyph name="h" format="1">
  <advance width="453"/>
  <unicode hex="0068"/>
  <outline>
    <contour>
      <point x="205" y="8" type="line" name="hr00"/>
      <point x="205" y="0" type="line"/>
      <point x="18" y="0" type="line"/>
      <point x="18" y="8" type="line"/>
      <point x="79" y="16" type="line"/>
      <point x="79" y="653" type="line"/>
      <point x="20" y="675" type="line"/>
      <point x="20" y="682" type="line"/>
      <point x="136" y="721" type="line"/>
      <point x="144" y="721" type="line"/>
      <point x="144" y="16" type="line"/>
    </contour>
    <contour>
      <point x="136" y="361" type="line"/>
      <point x="179" y="408"/>
      <point x="228" y="434"/>
      <point x="275" y="434" type="curve" smooth="yes"/>
      <point x="315" y="434"/>
      <point x="350" y="415"/>
      <point x="366" y="385" type="curve" smooth="yes"/>
      <point x="375" y="367"/>
      <point x="377" y="346"/>
      <point x="377" y="271" type="curve" smooth="yes"/>
      <point x="377" y="16" type="line"/>
      <point x="438" y="8" type="line"/>
      <point x="438" y="0" type="line"/>
      <point x="251" y="0" type="line"/>
      <point x="251" y="8" type="line"/>
      <point x="312" y="16" type="line"/>
      <point x="312" y="271" type="line" smooth="yes"/>
      <point x="312" y="326"/>
      <point x="310" y="345"/>
      <point x="302" y="361" type="curve" smooth="yes"/>
      <point x="291" y="384"/>
      <point x="266" y="397"/>
      <point x="234" y="397" type="curve" smooth="yes"/>
      <point x="196" y="397"/>
      <point x="163" y="379"/>
      <point x="136" y="345" type="curve"/>
    </contour>
    <contour>
      <point x="229" y="0" type="move" name="bottom"/>
    </contour>
  </outline>
</glyph>
<glyph name="i" format="1">
  <advance width="229"/>
  <unicode hex="0069"/>
  <outline>
    <contour>
      <point x="65" y="578" type="curve" name="hr00" smooth="yes"/>
      <point x="65" y="551"/>
      <point x="84" y="530"/>
      <point x="113" y="530" type="curve" smooth="yes"/>
      <point x="142" y="530"/>
      <point x="161" y="551"/>
      <point x="161" y="578" type="curve" smooth="yes"/>
      <point x="161" y="605"/>
      <point x="142" y="626"/>
      <point x="113" y="626" type="curve" smooth="yes"/>
      <point x="84" y="626"/>
      <point x="65" y="605"/>
    </contour>
    <contour>
      <point x="212" y="8" type="line"/>
      <point x="212" y="0" type="line"/>
      <point x="25" y="0" type="line"/>
      <point x="25" y="8" type="line"/>
      <point x="86" y="16" type="line"/>
      <point x="86" y="366" type="line"/>
      <point x="27" y="388" type="line"/>
      <point x="27" y="395" type="line"/>
      <point x="143" y="434" type="line"/>
      <point x="151" y="434" type="line"/>
      <point x="151" y="16" type="line"/>
    </contour>
  </outline>
</glyph>
<glyph name="j" format="1">
  <advance width="218"/>
  <unicode hex="006A"/>
  <outline>
    <contour>
      <point x="60" y="578" type="curve" name="hr00" smooth="yes"/>
      <point x="60" y="550"/>
      <point x="80" y="530"/>
      <point x="108" y="530" type="curve" smooth="yes"/>
      <point x="136" y="530"/>
      <point x="156" y="550"/>
      <point x="156" y="578" type="curve" smooth="yes"/>
      <point x="156" y="606"/>
      <point x="136" y="626"/>
      <point x="108" y="626" type="curve" smooth="yes"/>
      <point x="80" y="626"/>
      <point x="60" y="606"/>
    </contour>
    <contour>
      <point x="81" y="366" type="line"/>
      <point x="22" y="388" type="line"/>
      <point x="22" y="395" type="line"/>
      <point x="138" y="434" type="line"/>
      <point x="146" y="434" type="line"/>
      <point x="146" y="40" type="line" smooth="yes"/>
      <point x="146" y="-91"/>
      <point x="142" y="-123"/>
      <point x="123" y="-158" type="curve" smooth="yes"/>
      <point x="93" y="-214"/>
      <point x="43" y="-247"/>
      <point x="-13" y="-247" type="curve" smooth="yes"/>
      <point x="-59" y="-247"/>
      <point x="-90" y="-223"/>
      <point x="-90" y="-189" type="curve" smooth="yes"/>
      <point x="-90" y="-165"/>
      <point x="-74" y="-149"/>
      <point x="-52" y="-149" type="curve" smooth="yes"/>
      <point x="-32" y="-149"/>
      <point x="-20" y="-161"/>
      <point x="-13" y="-188" type="curve" smooth="yes"/>
      <point x="-6" y="-218"/>
      <point x="3" y="-228"/>
      <point x="24" y="-228" type="curve" smooth="yes"/>
      <point x="63" y="-228"/>
      <point x="81" y="-188"/>
      <point x="81" y="-102" type="curve" smooth="yes"/>
    </contour>
  </outline>
</glyph>
<glyph name="k" format="1">
  <advance width="457"/>
  <unicode hex="006B"/>
  <outline>
    <contour>
      <point x="211" y="262" type="line" name="hr00"/>
      <point x="414" y="16" type="line"/>
      <point x="469" y="8" type="line"/>
      <point x="469" y="0" type="line"/>
      <point x="341" y="0" type="line"/>
      <point x="168" y="210" type="line"/>
    </contour>
    <contour>
      <point x="204" y="8" type="line"/>
      <point x="204" y="0" type="line"/>
      <point x="18" y="0" type="line"/>
      <point x="18" y="8" type="line"/>
      <point x="79" y="16" type="line"/>
      <point x="79" y="653" type="line"/>
      <point x="20" y="675" type="line"/>
      <point x="20" y="682" type="line"/>
      <point x="136" y="721" type="line"/>
      <point x="144" y="721" type="line"/>
      <point x="144" y="16" type="line"/>
    </contour>
    <contour>
      <point x="242" y="416" type="curve"/>
      <point x="242" y="424" type="line"/>
      <point x="411" y="424" type="line"/>
      <point x="411" y="416" type="line"/>
      <point x="357" y="407"/>
      <point x="333" y="394"/>
      <point x="306" y="362" type="curve" smooth="yes"/>
      <point x="122" y="145" type="line"/>
      <point x="122" y="163" type="line"/>
      <point x="286" y="360" type="line" smooth="yes"/>
      <point x="298" y="375"/>
      <point x="304" y="385"/>
      <point x="304" y="392" type="curve" smooth="yes"/>
      <point x="304" y="404"/>
      <point x="290" y="409"/>
    </contour>
    <contour>
      <point x="227" y="0" type="move" name="bottom"/>
    </contour>
  </outline>
</glyph>
<glyph name="l" format="1">
  <advance width="223"/>
  <unicode hex="006C"/>
  <outline>
    <contour>
      <point x="205" y="8" type="line" name="hr00"/>
      <point x="205" y="0" type="line"/>
      <point x="18" y="0" type="line"/>
      <point x="18" y="8" type="line"/>
      <point x="79" y="16" type="line"/>
      <point x="79" y="653" type="line"/>
      <point x="20" y="675" type="line"/>
      <point x="20" y="682" type="line"/>
      <point x="136" y="721" type="line"/>
      <point x="144" y="721" type="line"/>
      <point x="144" y="16" type="line"/>
    </contour>
    <contour>
      <point x="111" y="0" type="move" name="bottom"/>
    </contour>
  </outline>
</glyph>
<glyph name="m" format="1">
  <advance width="652"/>
  <unicode hex="006D"/>
  <outline>
    <contour>
      <point x="212" y="8" type="line" name="hr00"/>
      <point x="212" y="0" type="line"/>
      <point x="26" y="0" type="line"/>
      <point x="26" y="8" type="line"/>
      <point x="86" y="16" type="line"/>
      <point x="86" y="366" type="line"/>
      <point x="27" y="388" type="line"/>
      <point x="27" y="395" type="line"/>
      <point x="140" y="434" type="line"/>
      <point x="148" y="434" type="line"/>
      <point x="148" y="362" type="line"/>
      <point x="151" y="358" type="line"/>
      <point x="151" y="16" type="line"/>
    </contour>
    <contour>
      <point x="143" y="361" type="line"/>
      <point x="184" y="409"/>
      <point x="227" y="434"/>
      <point x="271" y="434" type="curve" smooth="yes"/>
      <point x="309" y="434"/>
      <point x="337" y="417"/>
      <point x="353" y="385" type="curve" smooth="yes"/>
      <point x="362" y="367"/>
      <point x="364" y="346"/>
      <point x="364" y="271" type="curve" smooth="yes"/>
      <point x="364" y="16" type="line"/>
      <point x="426" y="8" type="line"/>
      <point x="426" y="0" type="line"/>
      <point x="237" y="0" type="line"/>
      <point x="237" y="8" type="line"/>
      <point x="299" y="16" type="line"/>
      <point x="299" y="271" type="line" smooth="yes"/>
      <point x="299" y="323"/>
      <point x="297" y="344"/>
      <point x="290" y="361" type="curve" smooth="yes"/>
      <point x="280" y="385"/>
      <point x="259" y="397"/>
      <point x="230" y="397" type="curve" smooth="yes"/>
      <point x="195" y="397"/>
      <point x="167" y="380"/>
      <point x="143" y="345" type="curve"/>
    </contour>
    <contour>
      <point x="356" y="361" type="line"/>
      <point x="397" y="409"/>
      <point x="440" y="434"/>
      <point x="484" y="434" type="curve" smooth="yes"/>
      <point x="522" y="434"/>
      <point x="550" y="417"/>
      <point x="566" y="385" type="curve" smooth="yes"/>
      <point x="575" y="367"/>
      <point x="577" y="342"/>
      <point x="577" y="271" type="curve" smooth="yes"/>
      <point x="577" y="16" type="line"/>
      <point x="639" y="8" type="line"/>
      <point x="639" y="0" type="line"/>
      <point x="451" y="0" type="line"/>
      <point x="451" y="8" type="line"/>
      <point x="512" y="16" type="line"/>
      <point x="512" y="271" type="line" smooth="yes"/>
      <point x="512" y="323"/>
      <point x="510" y="344"/>
      <point x="503" y="361" type="curve" smooth="yes"/>
      <point x="493" y="385"/>
      <point x="472" y="397"/>
      <point x="443" y="397" type="curve" smooth="yes"/>
      <point x="408" y="397"/>
      <point x="380" y="380"/>
      <point x="356" y="345" type="curve"/>
    </contour>
  </outline>
</glyph>
<glyph name="n" format="1">
  <advance width="462"/>
  <unicode hex="006E"/>
  <outline>
    <contour>
      <point x="212" y="8" type="line" name="hr00"/>
      <point x="212" y="0" type="line"/>
      <point x="25" y="0" type="line"/>
      <point x="25" y="8" type="line"/>
      <point x="86" y="16" type="line"/>
      <point x="86" y="361" type="line"/>
      <point x="27" y="383" type="line"/>
      <point x="27" y="390" type="line"/>
      <point x="140" y="429" type="line"/>
      <point x="148" y="429" type="line"/>
      <point x="148" y="362" type="line"/>
      <point x="151" y="358" type="line"/>
      <point x="151" y="16" type="line"/>
    </contour>
    <contour>
      <point x="143" y="361" type="line"/>
      <point x="188" y="410"/>
      <point x="235" y="434"/>
      <point x="282" y="434" type="curve" smooth="yes"/>
      <point x="323" y="434"/>
      <point x="360" y="415"/>
      <point x="375" y="385" type="curve" smooth="yes"/>
      <point x="384" y="367"/>
      <point x="386" y="346"/>
      <point x="386" y="271" type="curve" smooth="yes"/>
      <point x="386" y="16" type="line"/>
      <point x="446" y="8" type="line"/>
      <point x="446" y="0" type="line"/>
      <point x="260" y="0" type="line"/>
      <point x="260" y="8" type="line"/>
      <point x="321" y="16" type="line"/>
      <point x="321" y="271" type="line" smooth="yes"/>
      <point x="321" y="322"/>
      <point x="319" y="344"/>
      <point x="311" y="361" type="curve" smooth="yes"/>
      <point x="300" y="384"/>
      <point x="274" y="397"/>
      <point x="242" y="397" type="curve" smooth="yes"/>
      <point x="205" y="397"/>
      <point x="172" y="380"/>
      <point x="143" y="345" type="curve"/>
    </contour>
    <contour>
      <point x="237" y="0" type="move" name="bottom"/>
    </contour>
    <contour>
      <point x="234" y="530" type="move" name="top"/>
    </contour>
  </outline>
</glyph>
<glyph name="o" format="1">
  <advance width="476"/>
  <unicode hex="006F"/>
  <outline>
    <contour>
      <point x="238" y="434" type="curve" name="hr00" smooth="yes"/>
      <point x="121" y="434"/>
      <point x="40" y="344"/>
      <point x="40" y="212" type="curve" smooth="yes"/>
      <point x="40" y="80"/>
      <point x="121" y="-10"/>
      <point x="238" y="-10" type="curve" smooth="yes"/>
      <point x="355" y="-10"/>
      <point x="436" y="80"/>
      <point x="436" y="212" type="curve" smooth="yes"/>
      <point x="436" y="344"/>
      <point x="355" y="434"/>
    </contour>
    <contour>
      <point x="114" y="212" type="curve" smooth="yes"/>
      <point x="114" y="345"/>
      <point x="160" y="424"/>
      <point x="238" y="424" type="curve" smooth="yes"/>
      <point x="315" y="424"/>
      <point x="362" y="345"/>
      <point x="362" y="212" type="curve" smooth="yes"/>
      <point x="362" y="79"/>
      <point x="315" y="0"/>
      <point x="238" y="0" type="curve" smooth="yes"/>
      <point x="160" y="0"/>
      <point x="114" y="79"/>
    </contour>
    <contour>
      <point x="238" y="0" type="move" name="bottom"/>
    </contour>
    <contour>
      <point x="238" y="530" type="move" name="top"/>
    </contour>
  </outline>
</glyph>
<glyph name="p" format="1">
  <advance width="472"/>
  <unicode hex="0070"/>
  <outline>
    <contour>
      <point x="144" y="8" type="curve" name="hr00"/>
      <point x="144" y="-216" type="line"/>
      <point x="234" y="-227" type="line"/>
      <point x="234" y="-234" type="line"/>
      <point x="18" y="-234" type="line"/>
      <point x="18" y="-226" type="line"/>
      <point x="79" y="-218" type="line"/>
      <point x="79" y="366" type="line"/>
      <point x="20" y="388" type="line"/>
      <point x="20" y="395" type="line"/>
      <point x="133" y="434" type="line"/>
      <point x="141" y="434" type="line"/>
      <point x="141" y="363" type="line"/>
      <point x="145" y="363" type="line"/>
      <point x="174" y="407"/>
      <point x="223" y="434"/>
      <point x="275" y="434" type="curve" smooth="yes"/>
      <point x="365" y="434"/>
      <point x="431" y="346"/>
      <point x="431" y="224" type="curve" smooth="yes"/>
      <point x="431" y="87"/>
      <point x="346" y="-10"/>
      <point x="226" y="-10" type="curve" smooth="yes"/>
      <point x="197" y="-10"/>
      <point x="171" y="-4"/>
    </contour>
    <contour>
      <point x="233" y="0" type="curve" smooth="yes"/>
      <point x="305" y="0"/>
      <point x="358" y="88"/>
      <point x="358" y="210" type="curve" smooth="yes"/>
      <point x="358" y="328"/>
      <point x="310" y="404"/>
      <point x="237" y="404" type="curve" smooth="yes"/>
      <point x="196" y="404"/>
      <point x="160" y="381"/>
      <point x="144" y="344" type="curve"/>
      <point x="144" y="71" type="line" smooth="yes"/>
      <point x="144" y="33"/>
      <point x="185" y="0"/>
    </contour>
  </outline>
</glyph>
<glyph name="q" format="1">
  <advance width="467"/>
  <unicode hex="0071"/>
  <outline>
    <contour>
      <point x="330" y="-216" type="line" name="hr00"/>
      <point x="330" y="49" type="line"/>
      <point x="297" y="10"/>
      <point x="254" y="-10"/>
      <point x="207" y="-10" type="curve" smooth="yes"/>
      <point x="109" y="-10"/>
      <point x="40" y="76"/>
      <point x="40" y="198" type="curve" smooth="yes"/>
      <point x="40" y="333"/>
      <point x="127" y="434"/>
      <point x="243" y="434" type="curve" smooth="yes"/>
      <point x="283" y="434"/>
      <point x="319" y="422"/>
      <point x="353" y="397" type="curve"/>
      <point x="357" y="397" type="line"/>
      <point x="384" y="424" type="line"/>
      <point x="395" y="424" type="line"/>
      <point x="395" y="-218" type="line"/>
      <point x="456" y="-226" type="line"/>
      <point x="456" y="-234" type="line"/>
      <point x="240" y="-234" type="line"/>
      <point x="240" y="-227" type="line"/>
    </contour>
    <contour>
      <point x="246" y="424" type="curve" smooth="yes"/>
      <point x="166" y="424"/>
      <point x="114" y="342"/>
      <point x="114" y="216" type="curve" smooth="yes"/>
      <point x="114" y="95"/>
      <point x="162" y="20"/>
      <point x="240" y="20" type="curve" smooth="yes"/>
      <point x="275" y="20"/>
      <point x="309" y="36"/>
      <point x="330" y="62" type="curve"/>
      <point x="330" y="323" type="line" smooth="yes"/>
      <point x="330" y="387"/>
      <point x="299" y="424"/>
    </contour>
  </outline>
</glyph>
<glyph name="r" format="1">
  <advance width="315"/>
  <unicode hex="0072"/>
  <outline>
    <contour>
      <point x="144" y="340" type="line"/>
      <point x="182" y="402"/>
      <point x="219" y="434"/>
      <point x="253" y="434" type="curve" smooth="yes"/>
      <point x="280" y="434"/>
      <point x="301" y="413"/>
      <point x="301" y="388" type="curve" smooth="yes"/>
      <point x="301" y="366"/>
      <point x="284" y="350"/>
      <point x="263" y="350" type="curve" smooth="yes"/>
      <point x="234" y="350"/>
      <point x="232" y="384"/>
      <point x="207" y="384" type="curve" smooth="yes"/>
      <point x="186" y="384"/>
      <point x="160" y="355"/>
      <point x="151" y="321" type="curve"/>
    </contour>
    <contour>
      <point x="231" y="8" type="line"/>
      <point x="231" y="0" type="line"/>
      <point x="25" y="0" type="line"/>
      <point x="25" y="8" type="line"/>
      <point x="86" y="16" type="line"/>
      <point x="86" y="366" type="line"/>
      <point x="27" y="388" type="line"/>
      <point x="27" y="395" type="line"/>
      <point x="140" y="434" type="line" name="hr01"/>
      <point x="148" y="434" type="line" name="hr02"/>
      <point x="148" y="344" type="line"/>
      <point x="151" y="340" type="line" name="hr03"/>
      <point x="151" y="16" type="line"/>
    </contour>
    <contour>
      <point x="117" y="0" type="move" name="bottom"/>
    </contour>
    <contour>
      <point x="169" y="530" type="move" name="top"/>
    </contour>
  </outline>
</glyph>
<glyph name="s" format="1">
  <advance width="344"/>
  <unicode hex="0073"/>
  <outline>
    <contour>
      <point x="195" y="434" type="curve" smooth="yes"/>
      <point x="228" y="434"/>
      <point x="264" y="428"/>
      <point x="285" y="420" type="curve"/>
      <point x="285" y="309" type="line"/>
      <point x="274" y="309" type="line"/>
      <point x="256" y="389"/>
      <point x="229" y="423"/>
      <point x="181" y="423" type="curve" smooth="yes"/>
      <point x="137" y="423"/>
      <point x="108" y="394"/>
      <point x="108" y="348" type="curve" smooth="yes"/>
      <point x="108" y="228"/>
      <point x="302" y="272"/>
      <point x="302" y="122" type="curve" smooth="yes"/>
      <point x="302" y="41"/>
      <point x="246" y="-10"/>
      <point x="158" y="-10" type="curve" smooth="yes"/>
      <point x="125" y="-10"/>
      <point x="81" y="-2"/>
      <point x="53" y="8" type="curve"/>
      <point x="48" y="138" type="line"/>
      <point x="60" y="138" type="line"/>
      <point x="74" y="45"/>
      <point x="107" y="1"/>
      <point x="162" y="1" type="curve" smooth="yes"/>
      <point x="211" y="1"/>
      <point x="243" y="35"/>
      <point x="243" y="86" type="curve" name="hr01" smooth="yes"/>
      <point x="243" y="212"/>
      <point x="48" y="171"/>
      <point x="48" y="316" type="curve" smooth="yes"/>
      <point x="48" y="391"/>
      <point x="101" y="434"/>
    </contour>
    <contour>
      <point x="165" y="0" type="move" name="bottom"/>
    </contour>
    <contour>
      <point x="170" y="530" type="move" name="top"/>
    </contour>
  </outline>
</glyph>
<glyph name="t" format="1">
  <advance width="268"/>
  <unicode hex="0074"/>
  <outline>
    <contour>
      <point x="138" y="519" type="line" name="hr00"/>
      <point x="138" y="424" type="line"/>
      <point x="252" y="424" type="line"/>
      <point x="246" y="408" type="line"/>
      <point x="138" y="408" type="line"/>
      <point x="138" y="102" type="line" smooth="yes"/>
      <point x="138" y="79"/>
      <point x="142" y="61"/>
      <point x="149" y="50" type="curve" smooth="yes"/>
      <point x="157" y="34"/>
      <point x="173" y="26"/>
      <point x="194" y="26" type="curve" smooth="yes"/>
      <point x="216" y="26"/>
      <point x="234" y="36"/>
      <point x="258" y="60" type="curve"/>
      <point x="262" y="57" type="line"/>
      <point x="242" y="16"/>
      <point x="203" y="-10"/>
      <point x="161" y="-10" type="curve" smooth="yes"/>
      <point x="140" y="-10"/>
      <point x="119" y="-3"/>
      <point x="104" y="8" type="curve" smooth="yes"/>
      <point x="82" y="24"/>
      <point x="73" y="47"/>
      <point x="73" y="89" type="curve" smooth="yes"/>
      <point x="73" y="409" type="line"/>
      <point x="26" y="409" type="line"/>
      <point x="24" y="414" type="line"/>
      <point x="134" y="520" type="line"/>
    </contour>
    <contour>
      <point x="156" y="0" type="move" name="bottom"/>
    </contour>
  </outline>
</glyph>
<glyph name="u" format="1">
  <advance width="443"/>
  <unicode hex="0075"/>
  <outline>
    <contour>
      <point x="303" y="80" type="line" name="hr00"/>
      <point x="278" y="46"/>
      <point x="245" y="28"/>
      <point x="211" y="28" type="curve" smooth="yes"/>
      <point x="183" y="28"/>
      <point x="160" y="41"/>
      <point x="150" y="63" type="curve" smooth="yes"/>
      <point x="142" y="80"/>
      <point x="140" y="101"/>
      <point x="140" y="153" type="curve" smooth="yes"/>
      <point x="140" y="424" type="line"/>
      <point x="15" y="424" type="line"/>
      <point x="15" y="416" type="line"/>
      <point x="75" y="408" type="line"/>
      <point x="75" y="153" type="line" smooth="yes"/>
      <point x="75" y="78"/>
      <point x="77" y="57"/>
      <point x="86" y="39" type="curve" smooth="yes"/>
      <point x="101" y="9"/>
      <point x="135" y="-10"/>
      <point x="176" y="-10" type="curve" smooth="yes"/>
      <point x="222" y="-10"/>
      <point x="263" y="14"/>
      <point x="303" y="64" type="curve"/>
    </contour>
    <contour>
      <point x="301" y="408" type="line"/>
      <point x="301" y="70" type="line"/>
      <point x="303" y="64" type="line"/>
      <point x="306" y="63" type="line"/>
      <point x="306" y="-5" type="line"/>
      <point x="312" y="-5" type="line"/>
      <point x="421" y="45" type="line"/>
      <point x="421" y="50" type="line"/>
      <point x="366" y="62" type="line"/>
      <point x="366" y="424" type="line"/>
      <point x="241" y="424" type="line"/>
      <point x="241" y="416" type="line"/>
    </contour>
    <contour>
      <point x="210" y="0" type="move" name="bottom"/>
    </contour>
    <contour>
      <point x="220" y="530" type="move" name="top"/>
    </contour>
  </outline>
</glyph>
<glyph name="v" format="1">
  <advance width="446"/>
  <unicode hex="0076"/>
  <outline>
    <contour>
      <point x="219" y="-3" type="line" name="hr00"/>
      <point x="72" y="374" type="line" smooth="yes"/>
      <point x="60" y="405"/>
      <point x="48" y="413"/>
      <point x="2" y="416" type="curve"/>
      <point x="2" y="424" type="line"/>
      <point x="195" y="424" type="line"/>
      <point x="195" y="416" type="line"/>
      <point x="147" y="413"/>
      <point x="138" y="410"/>
      <point x="138" y="399" type="curve" smooth="yes"/>
      <point x="138" y="394"/>
      <point x="140" y="387"/>
      <point x="145" y="373" type="curve" smooth="yes"/>
      <point x="249" y="78" type="line"/>
      <point x="253" y="78" type="line"/>
      <point x="343" y="348" type="line" smooth="yes"/>
      <point x="347" y="361"/>
      <point x="349" y="371"/>
      <point x="349" y="379" type="curve" smooth="yes"/>
      <point x="349" y="400"/>
      <point x="332" y="408"/>
      <point x="279" y="416" type="curve"/>
      <point x="279" y="424" type="line"/>
      <point x="458" y="424" type="line"/>
      <point x="458" y="416" type="line"/>
      <point x="397" y="409"/>
      <point x="375" y="397"/>
      <point x="364" y="363" type="curve" smooth="yes"/>
      <point x="239" y="-3" type="line"/>
    </contour>
  </outline>
</glyph>
<glyph name="w" format="1">
  <advance width="619"/>
  <unicode hex="0077"/>
  <outline>
    <contour>
      <point x="321" y="333" type="line" name="hr00"/>
      <point x="211" y="-3" type="line"/>
      <point x="200" y="-3" type="line"/>
      <point x="65" y="382" type="line" smooth="yes"/>
      <point x="57" y="406"/>
      <point x="53" y="410"/>
      <point x="5" y="416" type="curve"/>
      <point x="5" y="424" type="line"/>
      <point x="184" y="424" type="line"/>
      <point x="184" y="416" type="line"/>
      <point x="141" y="413"/>
      <point x="135" y="407"/>
      <point x="135" y="396" type="curve" smooth="yes"/>
      <point x="135" y="390"/>
      <point x="137" y="383"/>
      <point x="141" y="372" type="curve" smooth="yes"/>
      <point x="228" y="106" type="line"/>
      <point x="232" y="106" type="line"/>
      <point x="308" y="339" type="line"/>
    </contour>
    <contour>
      <point x="415" y="-3" type="line"/>
      <point x="285" y="377" type="line" smooth="yes"/>
      <point x="277" y="400"/>
      <point x="268" y="412"/>
      <point x="230" y="416" type="curve"/>
      <point x="230" y="424" type="line"/>
      <point x="399" y="424" type="line"/>
      <point x="399" y="416" type="line"/>
      <point x="356" y="413"/>
      <point x="350" y="407"/>
      <point x="350" y="396" type="curve" smooth="yes"/>
      <point x="350" y="390"/>
      <point x="352" y="383"/>
      <point x="356" y="372" type="curve" smooth="yes"/>
      <point x="444" y="106" type="line"/>
      <point x="448" y="106" type="line"/>
      <point x="525" y="348" type="line" smooth="yes"/>
      <point x="529" y="361"/>
      <point x="531" y="371"/>
      <point x="531" y="379" type="curve" smooth="yes"/>
      <point x="531" y="400"/>
      <point x="517" y="408"/>
      <point x="470" y="416" type="curve"/>
      <point x="470" y="424" type="line"/>
      <point x="631" y="424" type="line"/>
      <point x="631" y="416" type="line"/>
      <point x="572" y="406"/>
      <point x="555" y="393"/>
      <point x="540" y="347" type="curve" smooth="yes"/>
      <point x="426" y="-3" type="line"/>
    </contour>
    <contour>
      <point x="325" y="530" type="move" name="top"/>
    </contour>
  </outline>
</glyph>
<glyph name="x" format="1">
  <advance width="460"/>
  <unicode hex="0078"/>
  <outline>
    <contour>
      <point x="389" y="42" type="line" name="hr00" smooth="yes"/>
      <point x="404" y="20"/>
      <point x="416" y="13"/>
      <point x="458" y="8" type="curve"/>
      <point x="458" y="0" type="line"/>
      <point x="273" y="0" type="line"/>
      <point x="273" y="8" type="line"/>
      <point x="309" y="12"/>
      <point x="320" y="14"/>
      <point x="320" y="24" type="curve" smooth="yes"/>
      <point x="320" y="31"/>
      <point x="315" y="40"/>
      <point x="308" y="51" type="curve" smooth="yes"/>
      <point x="89" y="382" type="line" smooth="yes"/>
      <point x="74" y="404"/>
      <point x="61" y="411"/>
      <point x="19" y="416" type="curve"/>
      <point x="19" y="424" type="line"/>
      <point x="204" y="424" type="line"/>
      <point x="204" y="416" type="line"/>
      <point x="168" y="412"/>
      <point x="157" y="410"/>
      <point x="157" y="400" type="curve" smooth="yes"/>
      <point x="157" y="393"/>
      <point x="162" y="384"/>
      <point x="169" y="373" type="curve" smooth="yes"/>
    </contour>
    <contour>
      <point x="228" y="207" type="line"/>
      <point x="122" y="65" type="line" smooth="yes"/>
      <point x="113" y="53"/>
      <point x="108" y="44"/>
      <point x="108" y="36" type="curve" smooth="yes"/>
      <point x="108" y="23"/>
      <point x="121" y="16"/>
      <point x="166" y="8" type="curve"/>
      <point x="166" y="0" type="line"/>
      <point x="1" y="0" type="line"/>
      <point x="1" y="8" type="line"/>
      <point x="55" y="17"/>
      <point x="77" y="29"/>
      <point x="102" y="62" type="curve" smooth="yes"/>
      <point x="219" y="217" type="line"/>
    </contour>
    <contour>
      <point x="224" y="230" type="line"/>
      <point x="322" y="359" type="line" smooth="yes"/>
      <point x="331" y="371"/>
      <point x="336" y="380"/>
      <point x="336" y="388" type="curve" smooth="yes"/>
      <point x="336" y="401"/>
      <point x="323" y="408"/>
      <point x="278" y="416" type="curve"/>
      <point x="278" y="424" type="line"/>
      <point x="443" y="424" type="line"/>
      <point x="443" y="416" type="line"/>
      <point x="389" y="407"/>
      <point x="367" y="395"/>
      <point x="342" y="362" type="curve" smooth="yes"/>
      <point x="233" y="220" type="line"/>
    </contour>
  </outline>
</glyph>
<glyph name="y" format="1">
  <advance width="452"/>
  <unicode hex="0079"/>
  <outline>
    <contour>
      <point x="251" y="73" type="line"/>
      <point x="342" y="348" type="line" smooth="yes"/>
      <point x="346" y="361"/>
      <point x="348" y="371"/>
      <point x="348" y="379" type="curve" smooth="yes"/>
      <point x="348" y="400"/>
      <point x="331" y="408"/>
      <point x="278" y="416" type="curve"/>
      <point x="278" y="424" type="line"/>
      <point x="457" y="424" type="line"/>
      <point x="457" y="416" type="line"/>
      <point x="393" y="406"/>
      <point x="373" y="392"/>
      <point x="358" y="347" type="curve" smooth="yes"/>
      <point x="191" y="-144" type="line" smooth="yes"/>
      <point x="179" y="-180"/>
      <point x="168" y="-202"/>
      <point x="153" y="-217" type="curve" smooth="yes"/>
      <point x="136" y="-236"/>
      <point x="116" y="-246"/>
      <point x="93" y="-246" type="curve" smooth="yes"/>
      <point x="55" y="-246"/>
      <point x="27" y="-221"/>
      <point x="27" y="-188" type="curve" name="hr01" smooth="yes"/>
      <point x="27" y="-161"/>
      <point x="44" y="-144"/>
      <point x="70" y="-144" type="curve" smooth="yes"/>
      <point x="122" y="-144"/>
      <point x="100" y="-209"/>
      <point x="132" y="-209" type="curve" smooth="yes"/>
      <point x="150" y="-209"/>
      <point x="163" y="-187"/>
      <point x="180" y="-137" type="curve" smooth="yes"/>
      <point x="219" y="-18" type="line"/>
      <point x="65" y="382" type="line" smooth="yes"/>
      <point x="55" y="407"/>
      <point x="44" y="413"/>
      <point x="-2" y="416" type="curve"/>
      <point x="-2" y="424" type="line"/>
      <point x="191" y="424" type="line"/>
      <point x="191" y="416" type="line"/>
      <point x="143" y="413"/>
      <point x="134" y="410"/>
      <point x="134" y="399" type="curve" smooth="yes"/>
      <point x="134" y="394"/>
      <point x="136" y="387"/>
      <point x="141" y="373" type="curve" smooth="yes"/>
      <point x="247" y="73" type="line"/>
    </contour>
    <contour>
      <point x="238" y="530" type="move" name="top"/>
    </contour>
  </outline>
</glyph>
<glyph name="z" format="1">
  <advance width="388"/>
  <unicode hex="007A"/>
  <outline>
    <contour>
      <point x="349" y="424" type="line"/>
      <point x="349" y="402" type="line"/>
      <point x="99" y="15" type="line"/>
      <point x="285" y="15" type="line"/>
      <point x="292" y="33" type="line" smooth="yes"/>
      <point x="306" y="71"/>
      <point x="319" y="113"/>
      <point x="330" y="155" type="curve"/>
      <point x="344" y="154" type="line"/>
      <point x="338" y="0" type="line"/>
      <point x="31" y="0" type="line"/>
      <point x="31" y="22" type="line"/>
      <point x="279" y="410" type="line"/>
      <point x="103" y="410" type="line"/>
      <point x="97" y="394" type="line" smooth="yes"/>
      <point x="84" y="359"/>
      <point x="69" y="309"/>
      <point x="63" y="277" type="curve"/>
      <point x="48" y="278" type="line"/>
      <point x="57" y="424" type="line"/>
    </contour>
    <contour>
      <point x="196" y="0" type="move" name="bottom"/>
    </contour>
    <contour>
      <point x="195" y="530" type="move" name="top"/>
    </contour>
  </outline>
</glyph>
<glyph name="braceleft" format="1">
  <advance width="305"/>
  <unicode hex="007B"/>
  <outline>
    <contour>
      <point x="93" y="298" type="line"/>
      <point x="160" y="281"/>
      <point x="190" y="243"/>
      <point x="190" y="175" type="curve" smooth="yes"/>
      <point x="190" y="101"/>
      <point x="155" y="25"/>
      <point x="155" y="-58" type="curve" smooth="yes"/>
      <point x="155" y="-126"/>
      <point x="179" y="-160"/>
      <point x="226" y="-160" type="curve" smooth="yes"/>
      <point x="239" y="-160"/>
      <point x="253" y="-158"/>
      <point x="275" y="-152" type="curve"/>
      <point x="278" y="-163" type="line"/>
      <point x="254" y="-170"/>
      <point x="230" y="-174"/>
      <point x="208" y="-174" type="curve" smooth="yes"/>
      <point x="130" y="-174"/>
      <point x="84" y="-130"/>
      <point x="84" y="-54" type="curve" smooth="yes"/>
      <point x="84" y="13"/>
      <point x="120" y="105"/>
      <point x="120" y="196" type="curve" smooth="yes"/>
      <point x="120" y="270"/>
      <point x="96" y="295"/>
      <point x="24" y="295" type="curve"/>
      <point x="24" y="305" type="line"/>
      <point x="96" y="305"/>
      <point x="120" y="327"/>
      <point x="120" y="395" type="curve" smooth="yes"/>
      <point x="120" y="478"/>
      <point x="84" y="559"/>
      <point x="84" y="625" type="curve" smooth="yes"/>
      <point x="84" y="699"/>
      <point x="130" y="744"/>
      <point x="208" y="744" type="curve" smooth="yes"/>
      <point x="230" y="744"/>
      <point x="254" y="740"/>
      <point x="278" y="733" type="curve"/>
      <point x="275" y="722" type="line"/>
      <point x="253" y="728"/>
      <point x="239" y="730"/>
      <point x="226" y="730" type="curve" smooth="yes"/>
      <point x="179" y="730"/>
      <point x="155" y="695"/>
      <point x="155" y="629" type="curve" smooth="yes"/>
      <point x="155" y="549"/>
      <point x="190" y="484"/>
      <point x="190" y="415" type="curve" smooth="yes"/>
      <point x="190" y="352"/>
      <point x="161" y="318"/>
      <point x="93" y="302" type="curve"/>
    </contour>
  </outline>
</glyph>
<glyph name="bar" format="1">
  <advance width="208"/>
  <unicode hex="007C"/>
  <outline>
    <contour>
      <point x="115" y="690" type="line"/>
      <point x="115" y="-135" type="line"/>
      <point x="93" y="-135" type="line"/>
      <point x="93" y="690" type="line"/>
    </contour>
  </outline>
</glyph>
<glyph name="braceright" format="1">
  <advance width="305"/>
  <unicode hex="007D"/>
  <outline>
    <contour>
      <point x="212" y="302" type="line"/>
      <point x="144" y="318"/>
      <point x="115" y="352"/>
      <point x="115" y="415" type="curve" smooth="yes"/>
      <point x="115" y="484"/>
      <point x="150" y="549"/>
      <point x="150" y="629" type="curve" smooth="yes"/>
      <point x="150" y="695"/>
      <point x="126" y="730"/>
      <point x="79" y="730" type="curve" smooth="yes"/>
      <point x="66" y="730"/>
      <point x="51" y="727"/>
      <point x="30" y="722" type="curve"/>
      <point x="27" y="733" type="line"/>
      <point x="51" y="740"/>
      <point x="75" y="744"/>
      <point x="97" y="744" type="curve" smooth="yes"/>
      <point x="175" y="744"/>
      <point x="221" y="699"/>
      <point x="221" y="625" type="curve" smooth="yes"/>
      <point x="221" y="559"/>
      <point x="185" y="478"/>
      <point x="185" y="395" type="curve" smooth="yes"/>
      <point x="185" y="327"/>
      <point x="209" y="305"/>
      <point x="281" y="305" type="curve"/>
      <point x="281" y="295" type="line"/>
      <point x="209" y="295"/>
      <point x="185" y="270"/>
      <point x="185" y="196" type="curve" smooth="yes"/>
      <point x="185" y="105"/>
      <point x="221" y="13"/>
      <point x="221" y="-54" type="curve" smooth="yes"/>
      <point x="221" y="-130"/>
      <point x="175" y="-174"/>
      <point x="97" y="-174" type="curve" smooth="yes"/>
      <point x="75" y="-174"/>
      <point x="51" y="-170"/>
      <point x="27" y="-163" type="curve"/>
      <point x="30" y="-152" type="line"/>
      <point x="51" y="-157"/>
      <point x="66" y="-160"/>
      <point x="79" y="-160" type="curve" smooth="yes"/>
      <point x="126" y="-160"/>
      <point x="150" y="-126"/>
      <point x="150" y="-58" type="curve" smooth="yes"/>
      <point x="150" y="25"/>
      <point x="115" y="101"/>
      <point x="115" y="175" type="curve" smooth="yes"/>
      <point x="115" y="243"/>
      <point x="145" y="281"/>
      <point x="212" y="298" type="curve"/>
    </contour>
  </outline>
</glyph>
<glyph name="asciitilde" format="1">
  <advance width="444"/>
  <unicode hex="007E"/>
  <outline>
    <contour>
      <point x="76" y="227" type="line"/>
      <point x="76" y="279"/>
      <point x="104" y="313"/>
      <point x="146" y="313" type="curve" smooth="yes"/>
      <point x="198" y="313"/>
      <point x="272" y="280"/>
      <point x="325" y="280" type="curve" smooth="yes"/>
      <point x="349" y="280"/>
      <point x="362" y="293"/>
      <point x="367" y="316" type="curve"/>
      <point x="372" y="316" type="line"/>
      <point x="372" y="261"/>
      <point x="345" y="226"/>
      <point x="302" y="226" type="curve" smooth="yes"/>
      <point x="247" y="226"/>
      <point x="177" y="262"/>
      <point x="122" y="262" type="curve" smooth="yes"/>
      <point x="98" y="262"/>
      <point x="83" y="249"/>
      <point x="80" y="227" type="curve"/>
    </contour>
  </outline>
</glyph>
<glyph name="exclamdown" format="1">
  <advance width="212"/>
  <unicode hex="00A1"/>
  <outline>
    <contour>
      <point x="101" y="296" type="line"/>
      <point x="96" y="186"/>
      <point x="91" y="85"/>
      <point x="84" y="1" type="curve" smooth="yes"/>
      <point x="76" y="-98"/>
      <point x="67" y="-173"/>
      <point x="67" y="-200" type="curve" smooth="yes"/>
      <point x="67" y="-229"/>
      <point x="80" y="-246"/>
      <point x="106" y="-246" type="curve" smooth="yes"/>
      <point x="130" y="-246"/>
      <point x="145" y="-228"/>
      <point x="145" y="-197" type="curve" smooth="yes"/>
      <point x="145" y="-171"/>
      <point x="138" y="-95"/>
      <point x="128" y="5" type="curve" smooth="yes"/>
      <point x="119" y="88"/>
      <point x="117" y="187"/>
      <point x="111" y="296" type="curve"/>
    </contour>
    <contour>
      <point x="154" y="428" type="curve" smooth="yes"/>
      <point x="154" y="455"/>
      <point x="135" y="476"/>
      <point x="106" y="476" type="curve" smooth="yes"/>
      <point x="77" y="476"/>
      <point x="58" y="455"/>
      <point x="58" y="428" type="curve" smooth="yes"/>
      <point x="58" y="401"/>
      <point x="77" y="380"/>
      <point x="106" y="380" type="curve" smooth="yes"/>
      <point x="135" y="380"/>
      <point x="154" y="401"/>
    </contour>
  </outline>
</glyph>
<glyph name="cent" format="1">
  <advance width="437"/>
  <unicode hex="00A2"/>
  <outline>
    <contour>
      <point x="250" y="434" type="curve" name="hr00" smooth="yes"/>
      <point x="324" y="434"/>
      <point x="383" y="396"/>
      <point x="383" y="347" type="curve" smooth="yes"/>
      <point x="383" y="324"/>
      <point x="369" y="309"/>
      <point x="346" y="309" type="curve" smooth="yes"/>
      <point x="282" y="309"/>
      <point x="330" y="424"/>
      <point x="246" y="424" type="curve" smooth="yes"/>
      <point x="173" y="424"/>
      <point x="119" y="339"/>
      <point x="119" y="222" type="curve" smooth="yes"/>
      <point x="119" y="106"/>
      <point x="171" y="39"/>
      <point x="261" y="39" type="curve" smooth="yes"/>
      <point x="311" y="39"/>
      <point x="349" y="59"/>
      <point x="382" y="102" type="curve" smooth="yes"/>
      <point x="391" y="114" type="line"/>
      <point x="395" y="112" type="line"/>
      <point x="391" y="101" type="line" smooth="yes"/>
      <point x="365" y="31"/>
      <point x="308" y="-10"/>
      <point x="235" y="-10" type="curve" smooth="yes"/>
      <point x="128" y="-10"/>
      <point x="52" y="80"/>
      <point x="52" y="207" type="curve" smooth="yes"/>
      <point x="52" y="339"/>
      <point x="134" y="434"/>
    </contour>
    <contour>
      <point x="251" y="570" type="line"/>
      <point x="251" y="-135" type="line"/>
      <point x="229" y="-135" type="line"/>
      <point x="229" y="570" type="line"/>
    </contour>
  </outline>
</glyph>
<glyph name="sterling" format="1">
  <advance width="627"/>
  <unicode hex="00A3"/>
  <outline>
    <contour>
      <point x="435" y="693" type="curve" smooth="yes"/>
      <point x="394" y="693"/>
      <point x="382" y="658"/>
      <point x="329" y="392" type="curve" smooth="yes"/>
      <point x="290" y="199"/>
      <point x="288" y="193"/>
      <point x="242" y="95" type="curve"/>
      <point x="299" y="68"/>
      <point x="357" y="53"/>
      <point x="408" y="53" type="curve" smooth="yes"/>
      <point x="486" y="53"/>
      <point x="536" y="87"/>
      <point x="548" y="148" type="curve"/>
      <point x="553" y="148" type="line"/>
      <point x="553" y="54"/>
      <point x="499" y="-8"/>
      <point x="415" y="-8" type="curve" smooth="yes"/>
      <point x="354" y="-8"/>
      <point x="287" y="24"/>
      <point x="233" y="80" type="curve"/>
      <point x="188" y="14"/>
      <point x="155" y="-9"/>
      <point x="109" y="-9" type="curve" smooth="yes"/>
      <point x="62" y="-9"/>
      <point x="32" y="16"/>
      <point x="32" y="55" type="curve" smooth="yes"/>
      <point x="32" y="101"/>
      <point x="73" y="134"/>
      <point x="130" y="134" type="curve" smooth="yes"/>
      <point x="146" y="134"/>
      <point x="164" y="132"/>
      <point x="188" y="126" type="curve"/>
      <point x="206" y="202"/>
      <point x="207" y="209"/>
      <point x="252" y="440" type="curve" smooth="yes"/>
      <point x="286" y="616"/>
      <point x="350" y="706"/>
      <point x="441" y="706" type="curve" smooth="yes"/>
      <point x="506" y="706"/>
      <point x="568" y="661"/>
      <point x="568" y="615" type="curve" smooth="yes"/>
      <point x="568" y="592"/>
      <point x="553" y="577"/>
      <point x="532" y="577" type="curve" smooth="yes"/>
      <point x="473" y="577"/>
      <point x="503" y="693"/>
    </contour>
    <contour>
      <point x="186" y="113" type="curve"/>
      <point x="167" y="119"/>
      <point x="148" y="122"/>
      <point x="132" y="122" type="curve" smooth="yes"/>
      <point x="82" y="122"/>
      <point x="46" y="94"/>
      <point x="46" y="55" type="curve" smooth="yes"/>
      <point x="46" y="23"/>
      <point x="68" y="3"/>
      <point x="103" y="3" type="curve" smooth="yes"/>
      <point x="143" y="3"/>
      <point x="165" y="32"/>
    </contour>
    <contour>
      <point x="141" y="332" type="line"/>
      <point x="146" y="354" type="line"/>
      <point x="507" y="354" type="line"/>
      <point x="502" y="332" type="line"/>
    </contour>
  </outline>
</glyph>
<glyph name="currency" format="1">
  <advance width="588"/>
  <unicode hex="00A4"/>
  <outline>
    <contour>
      <point x="96" y="347" type="curve" smooth="yes"/>
      <point x="96" y="238"/>
      <point x="185" y="149"/>
      <point x="294" y="149" type="curve" smooth="yes"/>
      <point x="403" y="149"/>
      <point x="492" y="238"/>
      <point x="492" y="347" type="curve" smooth="yes"/>
      <point x="492" y="456"/>
      <point x="403" y="545"/>
      <point x="294" y="545" type="curve" smooth="yes"/>
      <point x="185" y="545"/>
      <point x="96" y="456"/>
    </contour>
    <contour>
      <point x="115" y="347" type="curve" smooth="yes"/>
      <point x="115" y="445"/>
      <point x="195" y="525"/>
      <point x="294" y="525" type="curve" smooth="yes"/>
      <point x="393" y="525"/>
      <point x="473" y="445"/>
      <point x="473" y="347" type="curve" smooth="yes"/>
      <point x="473" y="248"/>
      <point x="393" y="168"/>
      <point x="294" y="168" type="curve" smooth="yes"/>
      <point x="195" y="168"/>
      <point x="115" y="248"/>
    </contour>
    <contour>
      <point x="513" y="551" type="line"/>
      <point x="498" y="566" type="line"/>
      <point x="419" y="487" type="line"/>
      <point x="435" y="473" type="line"/>
    </contour>
    <contour>
      <point x="76" y="144" type="line"/>
      <point x="91" y="129" type="line"/>
      <point x="165" y="203" type="line"/>
      <point x="153" y="221" type="line"/>
    </contour>
    <contour>
      <point x="90" y="566" type="line"/>
      <point x="75" y="551" type="line"/>
      <point x="154" y="472" type="line"/>
      <point x="168" y="488" type="line"/>
    </contour>
    <contour>
      <point x="497" y="129" type="line"/>
      <point x="512" y="144" type="line"/>
      <point x="438" y="218" type="line"/>
      <point x="420" y="206" type="line"/>
    </contour>
  </outline>
</glyph>
<glyph name="yen" format="1">
  <advance width="721"/>
  <unicode hex="00A5"/>
  <outline>
    <contour>
      <point x="477" y="682" type="line"/>
      <point x="477" y="690" type="line"/>
      <point x="690" y="690" type="line"/>
      <point x="690" y="682" type="line"/>
      <point x="634" y="677" type="line" smooth="yes"/>
      <point x="600" y="674"/>
      <point x="594" y="666"/>
      <point x="580" y="637" type="curve" smooth="yes"/>
      <point x="377" y="213" type="line"/>
      <point x="359" y="213" type="line"/>
      <point x="112" y="674" type="line"/>
      <point x="30" y="682" type="line"/>
      <point x="30" y="690" type="line"/>
      <point x="279" y="690" type="line"/>
      <point x="279" y="682" type="line"/>
      <point x="192" y="674" type="line"/>
      <point x="395" y="295" type="line"/>
      <point x="400" y="295" type="line"/>
      <point x="564" y="637" type="line" smooth="yes"/>
      <point x="568" y="646"/>
      <point x="568" y="651"/>
      <point x="568" y="656" type="curve" smooth="yes"/>
      <point x="568" y="669"/>
      <point x="560" y="675"/>
      <point x="538" y="677" type="curve" smooth="yes"/>
    </contour>
    <contour>
      <point x="406" y="280" type="line"/>
      <point x="406" y="16" type="line"/>
      <point x="493" y="8" type="line"/>
      <point x="493" y="0" type="line"/>
      <point x="242" y="0" type="line"/>
      <point x="242" y="8" type="line"/>
      <point x="329" y="16" type="line"/>
      <point x="329" y="280" type="line"/>
    </contour>
    <contour>
      <point x="183" y="273" type="line"/>
      <point x="188" y="295" type="line"/>
      <point x="549" y="295" type="line"/>
      <point x="544" y="273" type="line"/>
    </contour>
    <contour>
      <point x="183" y="156" type="line"/>
      <point x="188" y="178" type="line"/>
      <point x="549" y="178" type="line"/>
      <point x="544" y="156" type="line"/>
    </contour>
  </outline>
</glyph>
<glyph name="brokenbar" format="1">
  <advance width="210"/>
  <unicode hex="00A6"/>
  <outline>
    <contour>
      <point x="116" y="690" type="line"/>
      <point x="116" y="329" type="line"/>
      <point x="94" y="329" type="line"/>
      <point x="94" y="690" type="line"/>
    </contour>
    <contour>
      <point x="116" y="226" type="line"/>
      <point x="116" y="-135" type="line"/>
      <point x="94" y="-135" type="line"/>
      <point x="94" y="226" type="line"/>
    </contour>
  </outline>
</glyph>
<glyph name="section" format="1">
  <advance width="491"/>
  <unicode hex="00A7"/>
  <outline>
    <contour>
      <point x="252" y="734" type="curve" smooth="yes"/>
      <point x="337" y="734"/>
      <point x="420" y="687"/>
      <point x="420" y="639" type="curve" smooth="yes"/>
      <point x="420" y="619"/>
      <point x="404" y="604"/>
      <point x="385" y="604" type="curve" smooth="yes"/>
      <point x="330" y="604"/>
      <point x="340" y="722"/>
      <point x="241" y="722" type="curve" smooth="yes"/>
      <point x="183" y="722"/>
      <point x="146" y="681"/>
      <point x="146" y="621" type="curve" smooth="yes"/>
      <point x="146" y="462"/>
      <point x="440" y="487"/>
      <point x="440" y="302" type="curve" smooth="yes"/>
      <point x="440" y="202"/>
      <point x="351" y="122"/>
      <point x="242" y="122" type="curve"/>
      <point x="245" y="126" type="line"/>
      <point x="323" y="126"/>
      <point x="377" y="179"/>
      <point x="377" y="254" type="curve" smooth="yes"/>
      <point x="377" y="426"/>
      <point x="80" y="386"/>
      <point x="80" y="576" type="curve" smooth="yes"/>
      <point x="80" y="668"/>
      <point x="154" y="734"/>
    </contour>
    <contour>
      <point x="230" y="-153" type="curve" smooth="yes"/>
      <point x="142" y="-153"/>
      <point x="58" y="-106"/>
      <point x="58" y="-58" type="curve" smooth="yes"/>
      <point x="58" y="-38"/>
      <point x="74" y="-23"/>
      <point x="93" y="-23" type="curve" smooth="yes"/>
      <point x="149" y="-23"/>
      <point x="135" y="-141"/>
      <point x="240" y="-141" type="curve" smooth="yes"/>
      <point x="306" y="-141"/>
      <point x="353" y="-93"/>
      <point x="353" y="-23" type="curve" smooth="yes"/>
      <point x="353" y="150"/>
      <point x="56" y="107"/>
      <point x="56" y="290" type="curve" smooth="yes"/>
      <point x="56" y="383"/>
      <point x="137" y="449"/>
      <point x="247" y="449" type="curve"/>
      <point x="235" y="437" type="line"/>
      <point x="168" y="437"/>
      <point x="121" y="395"/>
      <point x="121" y="334" type="curve" smooth="yes"/>
      <point x="121" y="184"/>
      <point x="416" y="207"/>
      <point x="416" y="24" type="curve" smooth="yes"/>
      <point x="416" y="-76"/>
      <point x="334" y="-153"/>
    </contour>
  </outline>
</glyph>
<glyph name="dieresis" format="1">
  <advance width="343"/>
  <unicode hex="00A8"/>
  <outline>
    <contour>
      <point x="45" y="573" type="curve" smooth="yes"/>
      <point x="45" y="549"/>
      <point x="62" y="530"/>
      <point x="88" y="530" type="curve" smooth="yes"/>
      <point x="114" y="530"/>
      <point x="131" y="549"/>
      <point x="131" y="573" type="curve" smooth="yes"/>
      <point x="131" y="597"/>
      <point x="114" y="616"/>
      <point x="88" y="616" type="curve" smooth="yes"/>
      <point x="62" y="616"/>
      <point x="45" y="597"/>
    </contour>
    <contour>
      <point x="212" y="573" type="curve" smooth="yes"/>
      <point x="212" y="549"/>
      <point x="229" y="530"/>
      <point x="255" y="530" type="curve" smooth="yes"/>
      <point x="281" y="530"/>
      <point x="298" y="549"/>
      <point x="298" y="573" type="curve" smooth="yes"/>
      <point x="298" y="597"/>
      <point x="281" y="616"/>
      <point x="255" y="616" type="curve" smooth="yes"/>
      <point x="229" y="616"/>
      <point x="212" y="597"/>
    </contour>
    <contour>
      <point x="171" y="530" type="move" name="_top"/>
    </contour>
  </outline>
</glyph>
<glyph name="copyright" format="1">
  <advance width="808"/>
  <unicode hex="00A9"/>
  <outline>
    <contour>
      <point x="507" y="157" type="curve" smooth="yes"/>
      <point x="534" y="187"/>
      <point x="548" y="230"/>
      <point x="557" y="268" type="curve"/>
      <point x="568" y="267" type="line"/>
      <point x="568" y="111" type="line"/>
      <point x="557" y="111" type="line"/>
      <point x="534" y="148" type="line"/>
      <point x="494" y="119"/>
      <point x="444" y="100"/>
      <point x="399" y="100" type="curve" smooth="yes"/>
      <point x="277" y="100"/>
      <point x="181" y="207"/>
      <point x="181" y="345" type="curve" smooth="yes"/>
      <point x="181" y="482"/>
      <point x="277" y="590"/>
      <point x="397" y="590" type="curve" smooth="yes"/>
      <point x="438" y="590"/>
      <point x="479" y="578"/>
      <point x="532" y="549" type="curve"/>
      <point x="548" y="582" type="line"/>
      <point x="559" y="582" type="line"/>
      <point x="566" y="429" type="line"/>
      <point x="554" y="426" type="line"/>
      <point x="548" y="460"/>
      <point x="538" y="490"/>
      <point x="524" y="513" type="curve" smooth="yes"/>
      <point x="497" y="555"/>
      <point x="452" y="578"/>
      <point x="399" y="578" type="curve" smooth="yes"/>
      <point x="306" y="578"/>
      <point x="254" y="493"/>
      <point x="254" y="345" type="curve" smooth="yes"/>
      <point x="254" y="198"/>
      <point x="307" y="113"/>
      <point x="399" y="113" type="curve" smooth="yes"/>
      <point x="440" y="113"/>
      <point x="481" y="131"/>
    </contour>
    <contour>
      <point x="53" y="344" type="curve" smooth="yes"/>
      <point x="53" y="151"/>
      <point x="211" y="-10"/>
      <point x="404" y="-10" type="curve" smooth="yes"/>
      <point x="597" y="-10"/>
      <point x="755" y="151"/>
      <point x="755" y="344" type="curve" smooth="yes"/>
      <point x="755" y="537"/>
      <point x="597" y="700"/>
      <point x="404" y="700" type="curve" smooth="yes"/>
      <point x="211" y="700"/>
      <point x="53" y="537"/>
    </contour>
    <contour>
      <point x="69" y="344" type="curve" smooth="yes"/>
      <point x="69" y="529"/>
      <point x="217" y="684"/>
      <point x="404" y="684" type="curve" smooth="yes"/>
      <point x="588" y="684"/>
      <point x="739" y="529"/>
      <point x="739" y="344" type="curve" smooth="yes"/>
      <point x="739" y="157"/>
      <point x="588" y="6"/>
      <point x="404" y="6" type="curve" smooth="yes"/>
      <point x="217" y="6"/>
      <point x="69" y="157"/>
    </contour>
  </outline>
</glyph>
<glyph name="ordfeminine" format="1">
  <advance width="334"/>
  <unicode hex="00AA"/>
  <outline>
    <contour>
      <point x="116" y="530" type="curve" smooth="yes"/>
      <point x="145" y="530"/>
      <point x="173" y="548"/>
      <point x="192" y="573" type="curve"/>
      <point x="195" y="572" type="line"/>
      <point x="197" y="549"/>
      <point x="216" y="533"/>
      <point x="241" y="533" type="curve" name="hr01" smooth="yes"/>
      <point x="264" y="533"/>
      <point x="283" y="546"/>
      <point x="294" y="567" type="curve"/>
      <point x="289" y="572" type="line"/>
      <point x="285" y="566"/>
      <point x="281" y="561"/>
      <point x="272" y="561" type="curve" smooth="yes"/>
      <point x="256" y="561"/>
      <point x="251" y="575"/>
      <point x="251" y="601" type="curve" smooth="yes"/>
      <point x="251" y="732" type="line" smooth="yes"/>
      <point x="251" y="782"/>
      <point x="251" y="792"/>
      <point x="246" y="804" type="curve" smooth="yes"/>
      <point x="239" y="819"/>
      <point x="215" y="834"/>
      <point x="186" y="834" type="curve" smooth="yes"/>
      <point x="162" y="834"/>
      <point x="133" y="824"/>
      <point x="118" y="816" type="curve" smooth="yes"/>
      <point x="86" y="799"/>
      <point x="61" y="770"/>
      <point x="61" y="747" type="curve" smooth="yes"/>
      <point x="61" y="734"/>
      <point x="70" y="723"/>
      <point x="84" y="723" type="curve" smooth="yes"/>
      <point x="100" y="723"/>
      <point x="110" y="738"/>
      <point x="110" y="759" type="curve" smooth="yes"/>
      <point x="110" y="768"/>
      <point x="108" y="772"/>
      <point x="108" y="779" type="curve" smooth="yes"/>
      <point x="108" y="802"/>
      <point x="130" y="816"/>
      <point x="155" y="816" type="curve" smooth="yes"/>
      <point x="182" y="816"/>
      <point x="191" y="800"/>
      <point x="191" y="749" type="curve" smooth="yes"/>
      <point x="191" y="689" type="line"/>
      <point x="87" y="667"/>
      <point x="48" y="642"/>
      <point x="48" y="597" type="curve" smooth="yes"/>
      <point x="48" y="555"/>
      <point x="81" y="530"/>
    </contour>
    <contour>
      <point x="148" y="560" type="curve" smooth="yes"/>
      <point x="123" y="560"/>
      <point x="110" y="581"/>
      <point x="110" y="610" type="curve" smooth="yes"/>
      <point x="110" y="645"/>
      <point x="129" y="661"/>
      <point x="191" y="679" type="curve"/>
      <point x="191" y="589" type="line"/>
      <point x="182" y="568"/>
      <point x="164" y="560"/>
    </contour>
  </outline>
</glyph>
<glyph name="guillemotleft" format="1">
  <advance width="373"/>
  <unicode hex="00AB"/>
  <outline>
    <contour>
      <point x="198" y="27" type="line"/>
      <point x="49" y="207" type="line"/>
      <point x="49" y="212" type="line"/>
      <point x="196" y="390" type="line"/>
      <point x="199" y="388" type="line"/>
      <point x="112" y="210" type="line"/>
      <point x="202" y="30" type="line"/>
    </contour>
    <contour>
      <point x="316" y="27" type="line"/>
      <point x="167" y="207" type="line"/>
      <point x="167" y="212" type="line"/>
      <point x="314" y="390" type="line"/>
      <point x="317" y="388" type="line"/>
      <point x="230" y="210" type="line"/>
      <point x="320" y="30" type="line"/>
    </contour>
  </outline>
</glyph>
<glyph name="logicalnot" format="1">
  <advance width="459"/>
  <unicode hex="00AC"/>
  <outline>
    <contour>
      <point x="77" y="370" type="line"/>
      <point x="387" y="370" type="line"/>
      <point x="387" y="348" type="line"/>
      <point x="77" y="348" type="line"/>
    </contour>
    <contour>
      <point x="387" y="352" type="line"/>
      <point x="387" y="217" type="line"/>
      <point x="365" y="217" type="line"/>
      <point x="365" y="352" type="line"/>
    </contour>
  </outline>
</glyph>
<glyph name="uni00AD" format="1">
  <advance width="356"/>
  <unicode hex="00AD"/>
  <outline>
    <contour>
      <point x="72" y="238" type="line"/>
      <point x="292" y="238" type="line"/>
      <point x="285" y="216" type="line"/>
      <point x="65" y="216" type="line"/>
    </contour>
  </outline>
</glyph>
<glyph name="registered" format="1">
  <advance width="808"/>
  <unicode hex="00AE"/>
  <outline>
    <contour>
      <point x="53" y="344" type="curve" smooth="yes"/>
      <point x="53" y="151"/>
      <point x="211" y="-10"/>
      <point x="404" y="-10" type="curve" smooth="yes"/>
      <point x="597" y="-10"/>
      <point x="755" y="151"/>
      <point x="755" y="344" type="curve" smooth="yes"/>
      <point x="755" y="537"/>
      <point x="597" y="700"/>
      <point x="404" y="700" type="curve" smooth="yes"/>
      <point x="211" y="700"/>
      <point x="53" y="537"/>
    </contour>
    <contour>
      <point x="69" y="344" type="curve" smooth="yes"/>
      <point x="69" y="529"/>
      <point x="217" y="684"/>
      <point x="404" y="684" type="curve" smooth="yes"/>
      <point x="588" y="684"/>
      <point x="739" y="529"/>
      <point x="739" y="344" type="curve" smooth="yes"/>
      <point x="739" y="157"/>
      <point x="588" y="6"/>
      <point x="404" y="6" type="curve" smooth="yes"/>
      <point x="217" y="6"/>
      <point x="69" y="157"/>
    </contour>
    <contour>
      <point x="298" y="336" type="line"/>
      <point x="443" y="336" type="line"/>
      <point x="569" y="138" type="line" smooth="yes"/>
      <point x="581" y="119"/>
      <point x="590" y="115"/>
      <point x="612" y="115" type="curve" smooth="yes"/>
      <point x="622" y="115" type="line"/>
      <point x="622" y="107" type="line"/>
      <point x="542" y="107" type="line" smooth="yes"/>
      <point x="520" y="107"/>
      <point x="511" y="112"/>
      <point x="500" y="131" type="curve" smooth="yes"/>
      <point x="394" y="301" type="line" smooth="yes"/>
      <point x="381" y="322"/>
      <point x="377" y="325"/>
      <point x="354" y="325" type="curve" smooth="yes"/>
      <point x="298" y="325" type="line"/>
    </contour>
    <contour>
      <point x="272" y="120" type="line"/>
      <point x="272" y="571" type="line"/>
      <point x="222" y="576" type="line"/>
      <point x="222" y="584" type="line"/>
      <point x="332" y="584" type="line"/>
      <point x="332" y="120" type="line"/>
      <point x="392" y="115" type="line"/>
      <point x="392" y="107" type="line"/>
      <point x="222" y="107" type="line"/>
      <point x="222" y="115" type="line"/>
    </contour>
    <contour>
      <point x="309" y="584" type="line"/>
      <point x="397" y="584" type="line" smooth="yes"/>
      <point x="506" y="584"/>
      <point x="565" y="539"/>
      <point x="565" y="456" type="curve" smooth="yes"/>
      <point x="565" y="373"/>
      <point x="505" y="327"/>
      <point x="397" y="327" type="curve" smooth="yes"/>
      <point x="309" y="327" type="line"/>
      <point x="309" y="337" type="line"/>
      <point x="395" y="337" type="line" smooth="yes"/>
      <point x="469" y="337"/>
      <point x="504" y="374"/>
      <point x="504" y="455" type="curve" smooth="yes"/>
      <point x="504" y="536"/>
      <point x="468" y="574"/>
      <point x="395" y="574" type="curve" smooth="yes"/>
      <point x="309" y="574" type="line"/>
    </contour>
  </outline>
</glyph>
<glyph name="degree" format="1">
  <advance width="341"/>
  <unicode hex="00B0"/>
  <outline>
    <contour>
      <point x="45" y="708" type="curve" smooth="yes"/>
      <point x="45" y="782"/>
      <point x="98" y="837"/>
      <point x="171" y="837" type="curve" smooth="yes"/>
      <point x="244" y="837"/>
      <point x="295" y="784"/>
      <point x="295" y="709" type="curve" smooth="yes"/>
      <point x="295" y="635"/>
      <point x="245" y="581"/>
      <point x="170" y="581" type="curve" smooth="yes"/>
      <point x="95" y="581"/>
      <point x="45" y="636"/>
    </contour>
    <contour>
      <point x="63" y="709" type="curve" smooth="yes"/>
      <point x="63" y="647"/>
      <point x="108" y="599"/>
      <point x="170" y="599" type="curve" smooth="yes"/>
      <point x="231" y="599"/>
      <point x="276" y="647"/>
      <point x="276" y="709" type="curve" smooth="yes"/>
      <point x="276" y="771"/>
      <point x="231" y="818"/>
      <point x="170" y="818" type="curve" smooth="yes"/>
      <point x="108" y="818"/>
      <point x="63" y="771"/>
    </contour>
  </outline>
</glyph>
<glyph name="twosuperior" format="1">
  <advance width="267"/>
  <unicode hex="00B2"/>
  <outline>
    <contour>
      <point x="221" y="536" type="line"/>
      <point x="233" y="633" type="line"/>
      <point x="226" y="634" type="line"/>
      <point x="219" y="606" type="line" smooth="yes"/>
      <point x="215" y="590"/>
      <point x="209" y="586"/>
      <point x="190" y="586" type="curve" smooth="yes"/>
      <point x="86" y="586" type="line"/>
      <point x="125" y="625" type="line" smooth="yes"/>
      <point x="209" y="709"/>
      <point x="225" y="732"/>
      <point x="225" y="767" type="curve" smooth="yes"/>
      <point x="225" y="818"/>
      <point x="183" y="854"/>
      <point x="124" y="854" type="curve" smooth="yes"/>
      <point x="85" y="854"/>
      <point x="49" y="828"/>
      <point x="33" y="789" type="curve"/>
      <point x="41" y="785" type="line"/>
      <point x="55" y="814"/>
      <point x="78" y="829"/>
      <point x="105" y="829" type="curve" smooth="yes"/>
      <point x="142" y="829"/>
      <point x="163" y="803"/>
      <point x="163" y="757" type="curve" smooth="yes"/>
      <point x="163" y="702"/>
      <point x="133" y="647"/>
      <point x="71" y="586" type="curve" smooth="yes"/>
      <point x="24" y="540" type="line"/>
      <point x="25" y="536" type="line"/>
    </contour>
  </outline>
</glyph>
<glyph name="threesuperior" format="1">
  <advance width="256"/>
  <unicode hex="00B3"/>
  <outline>
    <contour>
      <point x="84" y="691" type="line"/>
      <point x="91" y="693"/>
      <point x="102" y="695"/>
      <point x="110" y="695" type="curve" smooth="yes"/>
      <point x="144" y="695"/>
      <point x="168" y="662"/>
      <point x="168" y="613" type="curve" smooth="yes"/>
      <point x="168" y="566"/>
      <point x="147" y="540"/>
      <point x="108" y="540" type="curve" smooth="yes"/>
      <point x="91" y="540"/>
      <point x="86" y="546"/>
      <point x="77" y="572" type="curve" smooth="yes"/>
      <point x="64" y="602"/>
      <point x="60" y="608"/>
      <point x="48" y="608" type="curve" smooth="yes"/>
      <point x="36" y="608"/>
      <point x="28" y="600"/>
      <point x="28" y="586" type="curve" smooth="yes"/>
      <point x="28" y="555"/>
      <point x="65" y="530"/>
      <point x="111" y="530" type="curve" smooth="yes"/>
      <point x="174" y="530"/>
      <point x="224" y="575"/>
      <point x="224" y="630" type="curve" smooth="yes"/>
      <point x="224" y="677"/>
      <point x="188" y="714"/>
      <point x="140" y="715" type="curve"/>
      <point x="140" y="719" type="line"/>
      <point x="178" y="733"/>
      <point x="203" y="765"/>
      <point x="203" y="797" type="curve" smooth="yes"/>
      <point x="203" y="831"/>
      <point x="177" y="855"/>
      <point x="142" y="855" type="curve" smooth="yes"/>
      <point x="93" y="855"/>
      <point x="58" y="831"/>
      <point x="40" y="785" type="curve"/>
      <point x="48" y="781" type="line"/>
      <point x="62" y="813"/>
      <point x="82" y="830"/>
      <point x="107" y="830" type="curve" smooth="yes"/>
      <point x="133" y="830"/>
      <point x="148" y="812"/>
      <point x="148" y="783" type="curve" smooth="yes"/>
      <point x="148" y="746"/>
      <point x="125" y="717"/>
      <point x="80" y="699" type="curve"/>
    </contour>
  </outline>
</glyph>
<glyph name="acute" format="1">
  <advance width="194"/>
  <unicode hex="00B4"/>
  <outline>
    <contour>
      <point x="90" y="670" type="line"/>
      <point x="95" y="685"/>
      <point x="106" y="691"/>
      <point x="121" y="691" type="curve" smooth="yes"/>
      <point x="139" y="691"/>
      <point x="149" y="677"/>
      <point x="149" y="660" type="curve" smooth="yes"/>
      <point x="149" y="647"/>
      <point x="139" y="638"/>
      <point x="113" y="605" type="curve" smooth="yes"/>
      <point x="48" y="523" type="line"/>
      <point x="45" y="524" type="line"/>
    </contour>
    <contour>
      <point x="97" y="530" type="move" name="_top"/>
    </contour>
  </outline>
</glyph>
<glyph name="mu" format="1">
  <advance width="491"/>
  <unicode hex="00B5"/>
  <outline>
    <contour>
      <point x="328" y="408" type="line" name="hr00"/>
      <point x="328" y="70" type="line"/>
      <point x="330" y="64" type="line"/>
      <point x="333" y="63" type="line"/>
      <point x="333" y="-5" type="line"/>
      <point x="339" y="-5" type="line"/>
      <point x="448" y="45" type="line"/>
      <point x="448" y="50" type="line"/>
      <point x="393" y="62" type="line"/>
      <point x="393" y="424" type="line"/>
      <point x="268" y="424" type="line"/>
      <point x="268" y="416" type="line"/>
    </contour>
    <contour>
      <point x="118" y="51" type="line"/>
      <point x="133" y="12"/>
      <point x="162" y="-10"/>
      <point x="204" y="-10" type="curve" smooth="yes"/>
      <point x="249" y="-10"/>
      <point x="291" y="15"/>
      <point x="330" y="64" type="curve"/>
      <point x="330" y="80" type="line"/>
      <point x="305" y="46"/>
      <point x="272" y="28"/>
      <point x="238" y="28" type="curve" smooth="yes"/>
      <point x="209" y="28"/>
      <point x="188" y="40"/>
      <point x="177" y="63" type="curve" smooth="yes"/>
      <point x="169" y="79"/>
      <point x="167" y="98"/>
      <point x="167" y="153" type="curve" smooth="yes"/>
      <point x="167" y="424" type="line"/>
      <point x="42" y="424" type="line"/>
      <point x="42" y="416" type="line"/>
      <point x="102" y="408" type="line"/>
      <point x="102" y="153" type="line" smooth="yes"/>
      <point x="102" y="37"/>
      <point x="87" y="-115"/>
      <point x="87" y="-162" type="curve" smooth="yes"/>
      <point x="87" y="-200"/>
      <point x="95" y="-216"/>
      <point x="115" y="-216" type="curve" smooth="yes"/>
      <point x="134" y="-216"/>
      <point x="145" y="-202"/>
      <point x="145" y="-180" type="curve" smooth="yes"/>
      <point x="145" y="-146"/>
      <point x="113" y="-100"/>
      <point x="113" y="49" type="curve"/>
    </contour>
  </outline>
</glyph>
<glyph name="paragraph" format="1">
  <advance width="473"/>
  <unicode hex="00B6"/>
  <outline>
    <contour>
      <point x="295" y="-108" type="line"/>
      <point x="295" y="676" type="line"/>
      <point x="335" y="676" type="line"/>
      <point x="335" y="-108" type="line"/>
      <point x="357" y="-108" type="line"/>
      <point x="357" y="674" type="line"/>
      <point x="433" y="681" type="line"/>
      <point x="433" y="690" type="line"/>
      <point x="245" y="690" type="line" smooth="yes"/>
      <point x="114" y="690"/>
      <point x="34" y="613"/>
      <point x="34" y="493" type="curve" smooth="yes"/>
      <point x="34" y="388"/>
      <point x="107" y="299"/>
      <point x="222" y="299" type="curve" smooth="yes"/>
      <point x="273" y="299" type="line"/>
      <point x="273" y="-108" type="line"/>
    </contour>
  </outline>
</glyph>
<glyph name="periodcentered" format="1">
  <advance width="233"/>
  <unicode hex="00B7"/>
  <outline>
    <contour>
      <point x="65" y="238" type="curve" smooth="yes"/>
      <point x="65" y="209"/>
      <point x="86" y="186"/>
      <point x="117" y="186" type="curve" smooth="yes"/>
      <point x="148" y="186"/>
      <point x="168" y="209"/>
      <point x="168" y="238" type="curve" smooth="yes"/>
      <point x="168" y="267"/>
      <point x="148" y="289"/>
      <point x="117" y="289" type="curve" smooth="yes"/>
      <point x="86" y="289"/>
      <point x="65" y="267"/>
    </contour>
  </outline>
</glyph>
<glyph name="cedilla" format="1">
  <advance width="271"/>
  <unicode hex="00B8"/>
  <outline>
    <contour>
      <point x="47" y="-202" type="line"/>
      <point x="60" y="-208"/>
      <point x="79" y="-212"/>
      <point x="97" y="-212" type="curve" smooth="yes"/>
      <point x="139" y="-212"/>
      <point x="167" y="-194"/>
      <point x="167" y="-166" type="curve" smooth="yes"/>
      <point x="167" y="-140"/>
      <point x="145" y="-124"/>
      <point x="110" y="-124" type="curve" smooth="yes"/>
      <point x="96" y="-124"/>
      <point x="82" y="-126"/>
      <point x="72" y="-130" type="curve"/>
      <point x="69" y="-127" type="line"/>
      <point x="124" y="1" type="line"/>
      <point x="136" y="1" type="line"/>
      <point x="104" y="-74" type="line"/>
      <point x="113" y="-72"/>
      <point x="118" y="-72"/>
      <point x="131" y="-72" type="curve" smooth="yes"/>
      <point x="187" y="-72"/>
      <point x="226" y="-102"/>
      <point x="226" y="-144" type="curve" smooth="yes"/>
      <point x="226" y="-191"/>
      <point x="180" y="-226"/>
      <point x="118" y="-226" type="curve" smooth="yes"/>
      <point x="87" y="-226"/>
      <point x="60" y="-218"/>
      <point x="45" y="-205" type="curve"/>
    </contour>
    <contour>
      <point x="135" y="0" type="move" name="_bottom"/>
    </contour>
  </outline>
</glyph>
<glyph name="onesuperior" format="1">
  <advance width="191"/>
  <unicode hex="00B9"/>
  <outline>
    <contour>
      <point x="75" y="806" type="line"/>
      <point x="29" y="806" type="line"/>
      <point x="29" y="811" type="line"/>
      <point x="77" y="816"/>
      <point x="99" y="829"/>
      <point x="122" y="858" type="curve"/>
      <point x="127" y="857" type="line"/>
      <point x="127" y="548" type="line"/>
      <point x="168" y="544" type="line"/>
      <point x="168" y="536" type="line"/>
      <point x="29" y="536" type="line"/>
      <point x="29" y="544" type="line"/>
      <point x="75" y="548" type="line"/>
    </contour>
  </outline>
</glyph>
<glyph name="ordmasculine" format="1">
  <advance width="362"/>
  <unicode hex="00BA"/>
  <outline>
    <contour>
      <point x="181" y="834" type="curve" name="hr00" smooth="yes"/>
      <point x="101" y="834"/>
      <point x="45" y="772"/>
      <point x="45" y="682" type="curve" smooth="yes"/>
      <point x="45" y="591"/>
      <point x="101" y="529"/>
      <point x="181" y="529" type="curve" smooth="yes"/>
      <point x="261" y="529"/>
      <point x="317" y="591"/>
      <point x="317" y="682" type="curve" smooth="yes"/>
      <point x="317" y="772"/>
      <point x="261" y="834"/>
    </contour>
    <contour>
      <point x="106" y="682" type="curve" smooth="yes"/>
      <point x="106" y="772"/>
      <point x="133" y="824"/>
      <point x="181" y="824" type="curve" smooth="yes"/>
      <point x="228" y="824"/>
      <point x="256" y="772"/>
      <point x="256" y="682" type="curve" smooth="yes"/>
      <point x="256" y="592"/>
      <point x="228" y="539"/>
      <point x="181" y="539" type="curve" smooth="yes"/>
      <point x="133" y="539"/>
      <point x="106" y="592"/>
    </contour>
  </outline>
</glyph>
<glyph name="guillemotright" format="1">
  <advance width="373"/>
  <unicode hex="00BB"/>
  <outline>
    <contour>
      <point x="171" y="30" type="line"/>
      <point x="261" y="210" type="line"/>
      <point x="174" y="388" type="line"/>
      <point x="177" y="390" type="line"/>
      <point x="324" y="212" type="line"/>
      <point x="324" y="207" type="line"/>
      <point x="175" y="27" type="line"/>
    </contour>
    <contour>
      <point x="53" y="30" type="line"/>
      <point x="143" y="210" type="line"/>
      <point x="56" y="388" type="line"/>
      <point x="59" y="390" type="line"/>
      <point x="206" y="212" type="line"/>
      <point x="206" y="207" type="line"/>
      <point x="57" y="27" type="line"/>
    </contour>
  </outline>
</glyph>
<glyph name="questiondown" format="1">
  <advance width="352"/>
  <unicode hex="00BF"/>
  <outline>
    <contour>
      <point x="251" y="296" type="line"/>
      <point x="259" y="64" type="line"/>
      <point x="232" y="64" type="line" smooth="yes"/>
      <point x="110" y="64"/>
      <point x="56" y="39"/>
      <point x="56" y="-19" type="curve" smooth="yes"/>
      <point x="56" y="-137"/>
      <point x="285" y="-130"/>
      <point x="285" y="-214" type="curve" smooth="yes"/>
      <point x="285" y="-235"/>
      <point x="270" y="-246"/>
      <point x="241" y="-246" type="curve" smooth="yes"/>
      <point x="144" y="-246"/>
      <point x="42" y="-125"/>
      <point x="42" y="-9" type="curve" smooth="yes"/>
      <point x="42" y="82"/>
      <point x="104" y="139"/>
      <point x="207" y="143" type="curve" smooth="yes"/>
      <point x="233" y="144" type="line"/>
      <point x="241" y="296" type="line"/>
    </contour>
    <contour>
      <point x="298" y="428" type="curve"/>
      <point x="298" y="456"/>
      <point x="278" y="476"/>
      <point x="250" y="476" type="curve" smooth="yes"/>
      <point x="222" y="476"/>
      <point x="202" y="456"/>
      <point x="202" y="428" type="curve" smooth="yes"/>
      <point x="202" y="400"/>
      <point x="222" y="380"/>
      <point x="250" y="380" type="curve" smooth="yes"/>
      <point x="278" y="380"/>
      <point x="298" y="400"/>
    </contour>
  </outline>
</glyph>
<glyph name="AE" format="1">
  <advance width="851"/>
  <unicode hex="00C6"/>
  <outline>
    <contour>
      <point x="174" y="8" type="line"/>
      <point x="172" y="0" type="line"/>
      <point x="-40" y="0" type="line"/>
      <point x="-38" y="8" type="line"/>
      <point x="19" y="13" type="line" smooth="yes"/>
      <point x="53" y="16"/>
      <point x="64" y="23"/>
      <point x="82" y="53" type="curve" smooth="yes"/>
      <point x="451" y="682" type="line"/>
      <point x="469" y="682" type="line"/>
      <point x="419" y="595" type="line"/>
      <point x="415" y="595" type="line"/>
      <point x="98" y="53" type="line" smooth="yes"/>
      <point x="91" y="42"/>
      <point x="89" y="35"/>
      <point x="89" y="29" type="curve" smooth="yes"/>
      <point x="89" y="18"/>
      <point x="97" y="15"/>
      <point x="114" y="13" type="curve" smooth="yes"/>
    </contour>
    <contour>
      <point x="224" y="290" type="line"/>
      <point x="491" y="290" type="line"/>
      <point x="488" y="274" type="line"/>
      <point x="221" y="274" type="line"/>
    </contour>
    <contour>
      <point x="496" y="678" type="line"/>
      <point x="496" y="12" type="line"/>
      <point x="660" y="12" type="line" smooth="yes"/>
      <point x="692" y="12"/>
      <point x="703" y="19"/>
      <point x="715" y="49" type="curve" smooth="yes"/>
      <point x="781" y="211" type="line"/>
      <point x="792" y="210" type="line"/>
      <point x="767" y="0" type="line"/>
      <point x="337" y="0" type="line"/>
      <point x="337" y="8" type="line"/>
      <point x="419" y="16" type="line"/>
      <point x="419" y="674" type="line"/>
      <point x="337" y="682" type="line"/>
      <point x="337" y="690" type="line"/>
      <point x="768" y="690" type="line"/>
      <point x="782" y="502" type="line"/>
      <point x="772" y="501" type="line"/>
      <point x="716" y="641" type="line" smooth="yes"/>
      <point x="704" y="671"/>
      <point x="694" y="678"/>
      <point x="662" y="678" type="curve" smooth="yes"/>
    </contour>
    <contour>
      <point x="585" y="371" type="line" smooth="yes"/>
      <point x="617" y="371"/>
      <point x="627" y="379"/>
      <point x="633" y="410" type="curve" smooth="yes"/>
      <point x="650" y="491" type="line"/>
      <point x="662" y="491" type="line"/>
      <point x="662" y="235" type="line"/>
      <point x="650" y="235" type="line"/>
      <point x="633" y="316" type="line" smooth="yes"/>
      <point x="627" y="347"/>
      <point x="617" y="355"/>
      <point x="585" y="355" type="curve" smooth="yes"/>
      <point x="488" y="355" type="line"/>
      <point x="488" y="371" type="line"/>
    </contour>
  </outline>
</glyph>
<glyph name="Eth" format="1">
  <advance width="715"/>
  <unicode hex="00D0"/>
  <outline>
    <contour>
      <point x="51" y="363" type="line"/>
      <point x="335" y="363" type="line"/>
      <point x="335" y="341" type="line"/>
      <point x="51" y="341" type="line"/>
    </contour>
    <component base="D" xOffset="11"/>
  </outline>
</glyph>
<glyph name="multiply" format="1">
  <advance width="466"/>
  <unicode hex="00D7"/>
  <outline>
    <contour>
      <point x="101" y="492" type="line"/>
      <point x="381" y="212" type="line"/>
      <point x="366" y="198" type="line"/>
      <point x="86" y="478" type="line"/>
    </contour>
    <contour>
      <point x="380" y="478" type="line"/>
      <point x="100" y="198" type="line"/>
      <point x="85" y="212" type="line"/>
      <point x="365" y="492" type="line"/>
    </contour>
  </outline>
</glyph>
<glyph name="Oslash" format="1">
  <advance width="734"/>
  <unicode hex="00D8"/>
  <outline>
    <contour>
      <point x="584" y="750" type="line"/>
      <point x="164" y="-75" type="line"/>
      <point x="141" y="-75" type="line"/>
      <point x="561" y="750" type="line"/>
    </contour>
    <contour>
      <point x="367" y="706" type="curve" smooth="yes"/>
      <point x="544" y="706"/>
      <point x="682" y="548"/>
      <point x="682" y="345" type="curve" smooth="yes"/>
      <point x="682" y="142"/>
      <point x="544" y="-16"/>
      <point x="367" y="-16" type="curve" smooth="yes"/>
      <point x="190" y="-16"/>
      <point x="52" y="142"/>
      <point x="52" y="345" type="curve" smooth="yes"/>
      <point x="52" y="548"/>
      <point x="190" y="706"/>
    </contour>
    <contour>
      <point x="148" y="345" type="curve" smooth="yes"/>
      <point x="148" y="123"/>
      <point x="227" y="-3"/>
      <point x="367" y="-3" type="curve" smooth="yes"/>
      <point x="507" y="-3"/>
      <point x="586" y="123"/>
      <point x="586" y="345" type="curve" smooth="yes"/>
      <point x="586" y="568"/>
      <point x="507" y="694"/>
      <point x="367" y="694" type="curve" smooth="yes"/>
      <point x="227" y="694"/>
      <point x="148" y="568"/>
    </contour>
  </outline>
</glyph>
<glyph name="Thorn" format="1">
  <advance width="571"/>
  <unicode hex="00DE"/>
  <outline>
    <contour>
      <point x="165" y="549" type="line"/>
      <point x="293" y="549" type="line" smooth="yes"/>
      <point x="450" y="549"/>
      <point x="535" y="479"/>
      <point x="535" y="358" type="curve" smooth="yes"/>
      <point x="535" y="228"/>
      <point x="450" y="159"/>
      <point x="293" y="159" type="curve" smooth="yes"/>
      <point x="165" y="159" type="line"/>
      <point x="165" y="171" type="line"/>
      <point x="290" y="171" type="line" smooth="yes"/>
      <point x="398" y="171"/>
      <point x="445" y="230"/>
      <point x="445" y="363" type="curve" smooth="yes"/>
      <point x="445" y="461"/>
      <point x="416" y="537"/>
      <point x="290" y="537" type="curve" smooth="yes"/>
      <point x="165" y="537" type="line"/>
    </contour>
    <contour>
      <point x="122" y="16" type="line"/>
      <point x="122" y="674" type="line"/>
      <point x="40" y="682" type="line"/>
      <point x="40" y="690" type="line"/>
      <point x="297" y="690" type="line"/>
      <point x="297" y="682" type="line"/>
      <point x="199" y="674" type="line"/>
      <point x="199" y="16" type="line"/>
      <point x="297" y="8" type="line"/>
      <point x="297" y="0" type="line"/>
      <point x="40" y="0" type="line"/>
      <point x="40" y="8" type="line"/>
    </contour>
  </outline>
</glyph>
<glyph name="germandbls" format="1">
  <advance width="504"/>
  <unicode hex="00DF"/>
  <outline>
    <contour>
      <point x="246" y="733" type="curve" name="hr00" smooth="yes"/>
      <point x="182" y="733"/>
      <point x="130" y="705"/>
      <point x="101" y="656" type="curve" smooth="yes"/>
      <point x="81" y="621"/>
      <point x="77" y="590"/>
      <point x="77" y="455" type="curve" smooth="yes"/>
      <point x="77" y="16" type="line"/>
      <point x="16" y="8" type="line"/>
      <point x="16" y="0" type="line"/>
      <point x="142" y="0" type="line"/>
      <point x="142" y="560" type="line" smooth="yes"/>
      <point x="142" y="668"/>
      <point x="172" y="721"/>
      <point x="234" y="721" type="curve" smooth="yes"/>
      <point x="286" y="721"/>
      <point x="317" y="684"/>
      <point x="317" y="620" type="curve" smooth="yes"/>
      <point x="317" y="502"/>
      <point x="221" y="502"/>
      <point x="221" y="392" type="curve" smooth="yes"/>
      <point x="221" y="235"/>
      <point x="417" y="246"/>
      <point x="417" y="96" type="curve" smooth="yes"/>
      <point x="417" y="37"/>
      <point x="383" y="1"/>
      <point x="327" y="1" type="curve" smooth="yes"/>
      <point x="265" y="1"/>
      <point x="226" y="47"/>
      <point x="213" y="138" type="curve"/>
      <point x="201" y="138" type="line"/>
      <point x="206" y="9" type="line"/>
      <point x="241" y="-2"/>
      <point x="292" y="-10"/>
      <point x="327" y="-10" type="curve" smooth="yes"/>
      <point x="418" y="-10"/>
      <point x="475" y="46"/>
      <point x="475" y="134" type="curve" smooth="yes"/>
      <point x="475" y="320"/>
      <point x="239" y="292"/>
      <point x="239" y="416" type="curve" smooth="yes"/>
      <point x="239" y="511"/>
      <point x="381" y="518"/>
      <point x="381" y="625" type="curve" smooth="yes"/>
      <point x="381" y="690"/>
      <point x="327" y="733"/>
    </contour>
  </outline>
</glyph>
<glyph name="ae" format="1">
  <advance width="613"/>
  <unicode hex="00E6"/>
  <outline>
    <contour>
      <point x="130" y="-7" type="curve" smooth="yes"/>
      <point x="178" y="-7"/>
      <point x="228" y="24"/>
      <point x="264" y="79" type="curve"/>
      <point x="290" y="26"/>
      <point x="348" y="-10"/>
      <point x="417" y="-10" type="curve" smooth="yes"/>
      <point x="487" y="-10"/>
      <point x="543" y="31"/>
      <point x="569" y="101" type="curve" smooth="yes"/>
      <point x="573" y="112" type="line"/>
      <point x="569" y="114" type="line"/>
      <point x="560" y="102" type="line" smooth="yes"/>
      <point x="530" y="63"/>
      <point x="485" y="40"/>
      <point x="437" y="40" type="curve" smooth="yes"/>
      <point x="355" y="40"/>
      <point x="309" y="107"/>
      <point x="309" y="228" type="curve" smooth="yes"/>
      <point x="309" y="241"/>
      <point x="309" y="254"/>
      <point x="310" y="267" type="curve"/>
      <point x="571" y="267" type="line"/>
      <point x="577" y="272" type="line"/>
      <point x="574" y="379"/>
      <point x="524" y="434"/>
      <point x="430" y="434" type="curve" smooth="yes"/>
      <point x="377" y="434"/>
      <point x="328" y="415"/>
      <point x="303" y="384" type="curve"/>
      <point x="288" y="418"/>
      <point x="263" y="433"/>
      <point x="224" y="433" type="curve" name="hr01" smooth="yes"/>
      <point x="193" y="433"/>
      <point x="161" y="424"/>
      <point x="131" y="408" type="curve" smooth="yes"/>
      <point x="82" y="382"/>
      <point x="47" y="340"/>
      <point x="47" y="308" type="curve" smooth="yes"/>
      <point x="47" y="287"/>
      <point x="61" y="272"/>
      <point x="81" y="272" type="curve" smooth="yes"/>
      <point x="103" y="272"/>
      <point x="117" y="292"/>
      <point x="117" y="326" type="curve" smooth="yes"/>
      <point x="117" y="335"/>
      <point x="116" y="346"/>
      <point x="116" y="353" type="curve" smooth="yes"/>
      <point x="116" y="390"/>
      <point x="144" y="414"/>
      <point x="185" y="414" type="curve" smooth="yes"/>
      <point x="228" y="414"/>
      <point x="243" y="388"/>
      <point x="243" y="311" type="curve" smooth="yes"/>
      <point x="243" y="220" type="line"/>
      <point x="97" y="191"/>
      <point x="43" y="155"/>
      <point x="43" y="88" type="curve" smooth="yes"/>
      <point x="43" y="32"/>
      <point x="79" y="-7"/>
    </contour>
    <contour>
      <point x="425" y="423" type="curve" smooth="yes"/>
      <point x="474" y="423"/>
      <point x="499" y="389"/>
      <point x="499" y="324" type="curve" smooth="yes"/>
      <point x="499" y="308"/>
      <point x="498" y="292"/>
      <point x="496" y="285" type="curve"/>
      <point x="312" y="278" type="line"/>
      <point x="322" y="369"/>
      <point x="363" y="423"/>
    </contour>
    <contour>
      <point x="173" y="31" type="curve" smooth="yes"/>
      <point x="134" y="31"/>
      <point x="110" y="60"/>
      <point x="110" y="107" type="curve" smooth="yes"/>
      <point x="110" y="160"/>
      <point x="141" y="183"/>
      <point x="244" y="209" type="curve"/>
      <point x="248" y="120"/>
      <point x="253" y="105"/>
      <point x="258" y="91" type="curve"/>
      <point x="237" y="52"/>
      <point x="208" y="31"/>
    </contour>
  </outline>
</glyph>
<glyph name="eth" format="1">
  <advance width="511"/>
  <unicode hex="00F0"/>
  <outline>
    <contour>
      <point x="248" y="-16" type="curve" smooth="yes"/>
      <point x="123" y="-16"/>
      <point x="41" y="71"/>
      <point x="41" y="202" type="curve" smooth="yes"/>
      <point x="41" y="330"/>
      <point x="118" y="413"/>
      <point x="238" y="413" type="curve" smooth="yes"/>
      <point x="286" y="413"/>
      <point x="320" y="400"/>
      <point x="354" y="370" type="curve"/>
      <point x="334" y="527"/>
      <point x="278" y="611"/>
      <point x="122" y="706" type="curve"/>
      <point x="126" y="714" type="line"/>
      <point x="322" y="632"/>
      <point x="459" y="451"/>
      <point x="459" y="245" type="curve" smooth="yes"/>
      <point x="459" y="82"/>
      <point x="380" y="-16"/>
    </contour>
    <contour>
      <point x="252" y="-4" type="curve" smooth="yes"/>
      <point x="326" y="-4"/>
      <point x="367" y="73"/>
      <point x="367" y="213" type="curve" smooth="yes"/>
      <point x="367" y="258"/>
      <point x="363" y="311"/>
      <point x="356" y="352" type="curve"/>
      <point x="333" y="375"/>
      <point x="297" y="389"/>
      <point x="261" y="389" type="curve" smooth="yes"/>
      <point x="179" y="389"/>
      <point x="134" y="319"/>
      <point x="134" y="194" type="curve" smooth="yes"/>
      <point x="134" y="70"/>
      <point x="178" y="-4"/>
    </contour>
    <contour>
      <point x="417" y="666" type="line"/>
      <point x="141" y="507" type="line"/>
      <point x="141" y="525" type="line"/>
      <point x="417" y="685" type="line"/>
    </contour>
  </outline>
</glyph>
<glyph name="divide" format="1">
  <advance width="498"/>
  <unicode hex="00F7"/>
  <outline>
    <contour>
      <point x="79" y="355" type="line"/>
      <point x="419" y="355" type="line"/>
      <point x="419" y="333" type="line"/>
      <point x="79" y="333" type="line"/>
    </contour>
    <contour>
      <point x="199" y="502" type="curve" smooth="yes"/>
      <point x="199" y="475"/>
      <point x="218" y="454"/>
      <point x="247" y="454" type="curve" smooth="yes"/>
      <point x="276" y="454"/>
      <point x="295" y="475"/>
      <point x="295" y="502" type="curve" smooth="yes"/>
      <point x="295" y="529"/>
      <point x="276" y="550"/>
      <point x="247" y="550" type="curve" smooth="yes"/>
      <point x="218" y="550"/>
      <point x="199" y="529"/>
    </contour>
    <contour>
      <point x="199" y="186" type="curve" smooth="yes"/>
      <point x="199" y="159"/>
      <point x="218" y="138"/>
      <point x="247" y="138" type="curve" smooth="yes"/>
      <point x="276" y="138"/>
      <point x="295" y="159"/>
      <point x="295" y="186" type="curve" smooth="yes"/>
      <point x="295" y="213"/>
      <point x="276" y="234"/>
      <point x="247" y="234" type="curve" smooth="yes"/>
      <point x="218" y="234"/>
      <point x="199" y="213"/>
    </contour>
  </outline>
</glyph>
<glyph name="thorn" format="1">
  <advance width="466"/>
  <unicode hex="00FE"/>
  <outline>
    <contour>
      <point x="425" y="224" type="curve" name="hr00" smooth="yes"/>
      <point x="425" y="87"/>
      <point x="340" y="-10"/>
      <point x="220" y="-10" type="curve" smooth="yes"/>
      <point x="191" y="-10"/>
      <point x="165" y="-4"/>
      <point x="138" y="8" type="curve"/>
      <point x="138" y="-216" type="line"/>
      <point x="228" y="-227" type="line"/>
      <point x="228" y="-234" type="line"/>
      <point x="12" y="-234" type="line"/>
      <point x="12" y="-226" type="line"/>
      <point x="73" y="-218" type="line"/>
      <point x="73" y="653" type="line"/>
      <point x="14" y="675" type="line"/>
      <point x="14" y="682" type="line"/>
      <point x="130" y="721" type="line"/>
      <point x="138" y="721" type="line"/>
      <point x="138" y="377" type="line"/>
      <point x="173" y="415"/>
      <point x="214" y="434"/>
      <point x="261" y="434" type="curve" smooth="yes"/>
      <point x="361" y="434"/>
      <point x="425" y="347"/>
    </contour>
    <contour>
      <point x="227" y="0" type="curve" smooth="yes"/>
      <point x="299" y="0"/>
      <point x="353" y="85"/>
      <point x="353" y="207" type="curve" smooth="yes"/>
      <point x="353" y="329"/>
      <point x="305" y="404"/>
      <point x="227" y="404" type="curve" smooth="yes"/>
      <point x="191" y="404"/>
      <point x="158" y="388"/>
      <point x="138" y="362" type="curve"/>
      <point x="138" y="71" type="line" smooth="yes"/>
      <point x="138" y="33"/>
      <point x="179" y="0"/>
    </contour>
  </outline>
</glyph>
<glyph name="Aogonek" format="1">
  <advance width="653"/>
  <unicode hex="0104"/>
  <outline>
    <contour>
      <point x="626" y="-178" type="line"/>
      <point x="598" y="-211"/>
      <point x="567" y="-226"/>
      <point x="528" y="-226" type="curve" smooth="yes"/>
      <point x="473" y="-226"/>
      <point x="438" y="-196"/>
      <point x="438" y="-149" type="curve" smooth="yes"/>
      <point x="438" y="-99"/>
      <point x="480" y="-42"/>
      <point x="552" y="9" type="curve"/>
      <point x="564" y="9" type="line"/>
      <point x="531" y="-23"/>
      <point x="499" y="-87"/>
      <point x="499" y="-132" type="curve" smooth="yes"/>
      <point x="499" y="-175"/>
      <point x="523" y="-198"/>
      <point x="561" y="-198" type="curve" smooth="yes"/>
      <point x="584" y="-198"/>
      <point x="604" y="-191"/>
      <point x="623" y="-173" type="curve"/>
    </contour>
    <component base="A" xOffset="-3"/>
  </outline>
</glyph>
<glyph name="dcroat" format="1">
  <advance width="472"/>
  <unicode hex="0111"/>
  <outline>
    <contour>
      <point x="234" y="553" type="line"/>
      <point x="448" y="553" type="line"/>
      <point x="448" y="531" type="line"/>
      <point x="234" y="531" type="line"/>
    </contour>
    <component base="d"/>
  </outline>
</glyph>
<glyph name="eogonek" format="1">
  <advance width="423"/>
  <unicode hex="0119"/>
  <outline>
    <contour>
      <point x="347" y="-173" type="line" name="hr00"/>
      <point x="328" y="-191"/>
      <point x="308" y="-198"/>
      <point x="285" y="-198" type="curve" smooth="yes"/>
      <point x="247" y="-198"/>
      <point x="223" y="-175"/>
      <point x="223" y="-132" type="curve" smooth="yes"/>
      <point x="223" y="-81"/>
      <point x="257" y="-29"/>
      <point x="295" y="0" type="curve" smooth="yes"/>
      <point x="334" y="26"/>
      <point x="362" y="53"/>
      <point x="379" y="101" type="curve" smooth="yes"/>
      <point x="383" y="112" type="line"/>
      <point x="379" y="114" type="line"/>
      <point x="370" y="102" type="line" smooth="yes"/>
      <point x="337" y="60"/>
      <point x="293" y="40"/>
      <point x="249" y="40" type="curve" smooth="yes"/>
      <point x="162" y="40"/>
      <point x="109" y="102"/>
      <point x="109" y="226" type="curve" smooth="yes"/>
      <point x="109" y="240"/>
      <point x="109" y="254"/>
      <point x="111" y="267" type="curve"/>
      <point x="381" y="267" type="line"/>
      <point x="387" y="272" type="line"/>
      <point x="385" y="378"/>
      <point x="334" y="434"/>
      <point x="241" y="434" type="curve" smooth="yes"/>
      <point x="121" y="434"/>
      <point x="40" y="343"/>
      <point x="40" y="211" type="curve" smooth="yes"/>
      <point x="40" y="80"/>
      <point x="115" y="-10"/>
      <point x="225" y="-10" type="curve" smooth="yes"/>
      <point x="241" y="-10"/>
      <point x="256" y="-8"/>
      <point x="271" y="-4" type="curve"/>
      <point x="202" y="-51"/>
      <point x="162" y="-103"/>
      <point x="162" y="-149" type="curve" smooth="yes"/>
      <point x="162" y="-196"/>
      <point x="197" y="-226"/>
      <point x="252" y="-226" type="curve" smooth="yes"/>
      <point x="291" y="-226"/>
      <point x="322" y="-211"/>
      <point x="350" y="-178" type="curve"/>
    </contour>
    <contour>
      <point x="230" y="423" type="curve" smooth="yes"/>
      <point x="276" y="423"/>
      <point x="309" y="401"/>
      <point x="309" y="325" type="curve" smooth="yes"/>
      <point x="309" y="310"/>
      <point x="308" y="293"/>
      <point x="306" y="285" type="curve"/>
      <point x="112" y="278" type="line"/>
      <point x="124" y="365"/>
      <point x="167" y="423"/>
    </contour>
  </outline>
</glyph>
<glyph name="gcommaaccent" format="1">
  <advance width="403"/>
  <unicode hex="0123"/>
  <outline>
    <contour>
      <point x="239" y="703" type="line"/>
      <point x="197" y="673"/>
      <point x="174" y="633"/>
      <point x="174" y="591" type="curve" smooth="yes"/>
      <point x="174" y="555"/>
      <point x="191" y="531"/>
      <point x="216" y="531" type="curve" smooth="yes"/>
      <point x="235" y="531"/>
      <point x="248" y="545"/>
      <point x="248" y="565" type="curve" smooth="yes"/>
      <point x="248" y="599"/>
      <point x="210" y="599"/>
      <point x="210" y="636" type="curve" smooth="yes"/>
      <point x="210" y="657"/>
      <point x="223" y="683"/>
      <point x="243" y="698" type="curve"/>
    </contour>
    <component base="g"/>
  </outline>
</glyph>
<glyph name="Hbar" format="1">
  <advance width="745"/>
  <unicode hex="0126"/>
  <outline>
    <contour>
      <point x="47" y="531" type="line"/>
      <point x="697" y="531" type="line"/>
      <point x="697" y="514" type="line"/>
      <point x="47" y="514" type="line"/>
    </contour>
    <component base="H" xOffset="6"/>
  </outline>
</glyph>
<glyph name="iogonek" format="1">
  <advance width="226"/>
  <unicode hex="012F"/>
  <outline>
    <contour>
      <point x="203" y="-178" type="line"/>
      <point x="175" y="-211"/>
      <point x="144" y="-226"/>
      <point x="105" y="-226" type="curve" smooth="yes"/>
      <point x="50" y="-226"/>
      <point x="15" y="-196"/>
      <point x="15" y="-149" type="curve" smooth="yes"/>
      <point x="15" y="-99"/>
      <point x="57" y="-40"/>
      <point x="129" y="11" type="curve"/>
      <point x="141" y="11" type="line"/>
      <point x="108" y="-21"/>
      <point x="76" y="-87"/>
      <point x="76" y="-132" type="curve" smooth="yes"/>
      <point x="76" y="-175"/>
      <point x="100" y="-198"/>
      <point x="138" y="-198" type="curve" smooth="yes"/>
      <point x="161" y="-198"/>
      <point x="181" y="-191"/>
      <point x="200" y="-173" type="curve"/>
    </contour>
    <component base="i"/>
  </outline>
</glyph>
<glyph name="dotlessi" format="1">
  <advance width="229"/>
  <unicode hex="0131"/>
  <outline>
    <contour>
      <point x="212" y="8" type="line" name="hr00"/>
      <point x="212" y="0" type="line"/>
      <point x="25" y="0" type="line"/>
      <point x="25" y="8" type="line"/>
      <point x="86" y="16" type="line"/>
      <point x="86" y="366" type="line"/>
      <point x="27" y="388" type="line"/>
      <point x="27" y="395" type="line"/>
      <point x="143" y="434" type="line"/>
      <point x="151" y="434" type="line"/>
      <point x="151" y="16" type="line"/>
    </contour>
    <contour>
      <point x="117" y="0" type="move" name="bottom"/>
    </contour>
    <contour>
      <point x="117" y="530" type="move" name="top"/>
    </contour>
  </outline>
</glyph>
<glyph name="kgreenlandic" format="1">
  <advance width="464"/>
  <unicode hex="0138"/>
  <outline>
    <contour>
      <point x="218" y="262" type="line" name="hr00"/>
      <point x="421" y="16" type="line"/>
      <point x="476" y="8" type="line"/>
      <point x="476" y="0" type="line"/>
      <point x="348" y="0" type="line"/>
      <point x="175" y="210" type="line"/>
    </contour>
    <contour>
      <point x="211" y="8" type="line"/>
      <point x="211" y="0" type="line"/>
      <point x="25" y="0" type="line"/>
      <point x="25" y="8" type="line"/>
      <point x="86" y="16" type="line"/>
      <point x="86" y="361" type="line"/>
      <point x="27" y="383" type="line"/>
      <point x="27" y="390" type="line"/>
      <point x="143" y="429" type="line"/>
      <point x="151" y="429" type="line"/>
      <point x="151" y="16" type="line"/>
    </contour>
    <contour>
      <point x="249" y="416" type="curve"/>
      <point x="249" y="424" type="line"/>
      <point x="418" y="424" type="line"/>
      <point x="418" y="416" type="line"/>
      <point x="364" y="407"/>
      <point x="340" y="394"/>
      <point x="313" y="362" type="curve" smooth="yes"/>
      <point x="129" y="145" type="line"/>
      <point x="129" y="163" type="line"/>
      <point x="293" y="360" type="line" smooth="yes"/>
      <point x="305" y="375"/>
      <point x="311" y="385"/>
      <point x="311" y="392" type="curve" smooth="yes"/>
      <point x="311" y="404"/>
      <point x="297" y="409"/>
    </contour>
  </outline>
</glyph>
<glyph name="Lslash" format="1">
  <advance width="583"/>
  <unicode hex="0141"/>
  <outline>
    <contour>
      <point x="316" y="412" type="line"/>
      <point x="40" y="253" type="line"/>
      <point x="40" y="271" type="line"/>
      <point x="316" y="431" type="line"/>
    </contour>
    <component base="L"/>
  </outline>
</glyph>
